M48
;GenerationSoftware,Autodesk,EAGLE,9.6.2*%
;CreationDate,2022-09-26T09:20:36Z*%
FMAT,2
ICI,OFF
METRIC,TZ,000.000
T3C0.300
T2C1.016
T1C3.302
%
G90
M71
T1
X132080Y22860
X22860Y22860
X2540Y22860
X48768Y22860
X28448Y22860
X74676Y22860
X54356Y22860
X100584Y22860
X80264Y22860
X126492Y22860
X106172Y22860
X152400Y22860
X132080Y48768
X22860Y48768
X2540Y48768
X48768Y48768
X28448Y48768
X74676Y48768
X54356Y48768
X100584Y48768
X80264Y48768
X126492Y48768
X106172Y48768
X152400Y48768
X132080Y100584
X22860Y74676
X2540Y74676
X48768Y74676
X28448Y74676
X74676Y74676
X54356Y74676
X100584Y74676
X80264Y74676
X126492Y74676
X106172Y74676
X152400Y74676
X132080Y74676
X22860Y100584
X2540Y100584
X48768Y100584
X28448Y100584
X74676Y100584
X54356Y100584
X100584Y100584
X80264Y100584
X126492Y100584
X106172Y100584
X152400Y100584
T2
X153670Y91694
X24130Y11430
X24130Y13970
X50038Y11430
X50038Y13970
X75946Y11430
X75946Y13970
X101854Y11430
X101854Y13970
X127762Y11430
X127762Y13970
X153670Y11430
X153670Y13970
X24130Y37338
X24130Y39878
X50038Y37338
X50038Y39878
X75946Y37338
X75946Y39878
X101854Y37338
X101854Y39878
X127762Y37338
X127762Y39878
X153670Y37338
X153670Y39878
X24130Y63246
X24130Y65786
X50038Y63246
X50038Y65786
X75946Y63246
X75946Y65786
X101854Y63246
X101854Y65786
X127762Y63246
X127762Y65786
X153670Y63246
X153670Y65786
X24130Y89154
X24130Y91694
X50038Y89154
X50038Y91694
X75946Y89154
X75946Y91694
X101854Y89154
X101854Y91694
X127762Y89154
X127762Y91694
X153670Y89154
T3
X37973Y10033
X39243Y10033
X40513Y10033
X36703Y10033
X39243Y13081
X37465Y18542
X41148Y18542
X34798Y19050
X34290Y20320
X34290Y23368
X34290Y21844
X42926Y23368
X42926Y21844
X42926Y20320
X40513Y16129
X37973Y7366
X39243Y7366
X34798Y5080
X42418Y5080
X34798Y2540
X42418Y2540
X33782Y1524
X32639Y762
X43434Y1524
X44577Y889
X49784Y7874
X48768Y8890
X50419Y6731
X27432Y7874
X28829Y8890
X26670Y6731
X32258Y10160
X33528Y10160
X42418Y10160
X34798Y10160
X43688Y10160
X44958Y10160
X46228Y10160
X42418Y12700
X43688Y12700
X44958Y12700
X46228Y12700
X47498Y12700
X47498Y10160
X29718Y11430
X33528Y8890
X34798Y8890
X36068Y5080
X37338Y5080
X38608Y5080
X39878Y5080
X41148Y5080
X42418Y8890
X43688Y8890
X44958Y8890
X46228Y8890
X30988Y8890
X42418Y15240
X42418Y19050
X34798Y13970
X32258Y19050
X41148Y17145
X34925Y16129
X32258Y13208
X33020Y13208
X31115Y16129
X66421Y7493
X66421Y6858
X62611Y7493
X62611Y6858
X58801Y6858
X58166Y6858
X70231Y6858
X70866Y6858
X62611Y13081
X63881Y13081
X66421Y13081
X61722Y14732
X59436Y14732
X56896Y15240
X55626Y14224
X63881Y10033
X65151Y10033
X66421Y10033
X62611Y10033
X65151Y13081
X63373Y18542
X67056Y18542
X60706Y19050
X60198Y20320
X60198Y23368
X60198Y21844
X68834Y23368
X68834Y21844
X68834Y20320
X66421Y16129
X63881Y7366
X65151Y7366
X60706Y5080
X68326Y5080
X60706Y2540
X68326Y2540
X59690Y1524
X58547Y762
X69342Y1524
X70485Y889
X75692Y7874
X74676Y8890
X76327Y6731
X53340Y7874
X54737Y8890
X52578Y6731
X58166Y10160
X59436Y10160
X68326Y10160
X60706Y10160
X69596Y10160
X70866Y10160
X72136Y10160
X68326Y12700
X69596Y12700
X70866Y12700
X72136Y12700
X73406Y12700
X73406Y10160
X55626Y11430
X59436Y8890
X60706Y8890
X61976Y5080
X63246Y5080
X64516Y5080
X65786Y5080
X67056Y5080
X68326Y8890
X69596Y8890
X70866Y8890
X72136Y8890
X56896Y8890
X68326Y15240
X68326Y19050
X60706Y13970
X58166Y19050
X67056Y17145
X60833Y16129
X58166Y13208
X58928Y13208
X57023Y16129
X92329Y7493
X92329Y6858
X88519Y7493
X88519Y6858
X84709Y6858
X84074Y6858
X96139Y6858
X96774Y6858
X88519Y13081
X89789Y13081
X92329Y13081
X87630Y14732
X85344Y14732
X82804Y15240
X81534Y14224
X89789Y10033
X91059Y10033
X92329Y10033
X88519Y10033
X91059Y13081
X89281Y18542
X92964Y18542
X86614Y19050
X86106Y20320
X86106Y23368
X86106Y21844
X94742Y23368
X94742Y21844
X94742Y20320
X92329Y16129
X89789Y7366
X91059Y7366
X86614Y5080
X94234Y5080
X86614Y2540
X94234Y2540
X85598Y1524
X84455Y762
X95250Y1524
X96393Y889
X101600Y7874
X100584Y8890
X102235Y6731
X79248Y7874
X80645Y8890
X78486Y6731
X84074Y10160
X85344Y10160
X94234Y10160
X86614Y10160
X95504Y10160
X96774Y10160
X98044Y10160
X94234Y12700
X95504Y12700
X96774Y12700
X98044Y12700
X99314Y12700
X99314Y10160
X81534Y11430
X85344Y8890
X86614Y8890
X87884Y5080
X89154Y5080
X90424Y5080
X91694Y5080
X92964Y5080
X94234Y8890
X95504Y8890
X96774Y8890
X98044Y8890
X82804Y8890
X94234Y15240
X94234Y19050
X86614Y13970
X84074Y19050
X92964Y17145
X86741Y16129
X84074Y13208
X84836Y13208
X82931Y16129
X118237Y7493
X118237Y6858
X114427Y7493
X114427Y6858
X110617Y6858
X109982Y6858
X122047Y6858
X122682Y6858
X114427Y13081
X115697Y13081
X118237Y13081
X113538Y14732
X111252Y14732
X108712Y15240
X107442Y14224
X115697Y10033
X116967Y10033
X118237Y10033
X114427Y10033
X116967Y13081
X115189Y18542
X118872Y18542
X112522Y19050
X112014Y20320
X112014Y23368
X112014Y21844
X120650Y23368
X120650Y21844
X120650Y20320
X118237Y16129
X115697Y7366
X116967Y7366
X112522Y5080
X120142Y5080
X112522Y2540
X120142Y2540
X111506Y1524
X110363Y762
X121158Y1524
X122301Y889
X127508Y7874
X126492Y8890
X128143Y6731
X105156Y7874
X106553Y8890
X104394Y6731
X109982Y10160
X111252Y10160
X120142Y10160
X112522Y10160
X121412Y10160
X122682Y10160
X123952Y10160
X120142Y12700
X121412Y12700
X122682Y12700
X123952Y12700
X125222Y12700
X125222Y10160
X107442Y11430
X111252Y8890
X112522Y8890
X113792Y5080
X115062Y5080
X116332Y5080
X117602Y5080
X118872Y5080
X120142Y8890
X121412Y8890
X122682Y8890
X123952Y8890
X108712Y8890
X120142Y15240
X120142Y19050
X112522Y13970
X109982Y19050
X118872Y17145
X112649Y16129
X109982Y13208
X110744Y13208
X108839Y16129
X144145Y7493
X144145Y6858
X140335Y7493
X140335Y6858
X136525Y6858
X135890Y6858
X147955Y6858
X148590Y6858
X140335Y13081
X141605Y13081
X144145Y13081
X139446Y14732
X137160Y14732
X134620Y15240
X133350Y14224
X141605Y10033
X142875Y10033
X144145Y10033
X140335Y10033
X142875Y13081
X141097Y18542
X144780Y18542
X138430Y19050
X137922Y20320
X137922Y23368
X137922Y21844
X146558Y23368
X146558Y21844
X146558Y20320
X144145Y16129
X141605Y7366
X142875Y7366
X138430Y5080
X146050Y5080
X138430Y2540
X146050Y2540
X137414Y1524
X136271Y762
X147066Y1524
X148209Y889
X153416Y7874
X152400Y8890
X154051Y6731
X131064Y7874
X132461Y8890
X130302Y6731
X135890Y10160
X137160Y10160
X146050Y10160
X138430Y10160
X147320Y10160
X148590Y10160
X149860Y10160
X146050Y12700
X147320Y12700
X148590Y12700
X149860Y12700
X151130Y12700
X151130Y10160
X133350Y11430
X137160Y8890
X138430Y8890
X139700Y5080
X140970Y5080
X142240Y5080
X143510Y5080
X144780Y5080
X146050Y8890
X147320Y8890
X148590Y8890
X149860Y8890
X134620Y8890
X146050Y15240
X146050Y19050
X138430Y13970
X135890Y19050
X144780Y17145
X138557Y16129
X135890Y13208
X136652Y13208
X134747Y16129
X14605Y33401
X14605Y32766
X10795Y33401
X10795Y32766
X6985Y32766
X6350Y32766
X18415Y32766
X19050Y32766
X10795Y38989
X12065Y38989
X14605Y38989
X9906Y40640
X7620Y40640
X5080Y41148
X3810Y40132
X12065Y35941
X13335Y35941
X14605Y35941
X10795Y35941
X13335Y38989
X11557Y44450
X15240Y44450
X8890Y44958
X8382Y46228
X8382Y49276
X8382Y47752
X17018Y49276
X17018Y47752
X17018Y46228
X14605Y42037
X12065Y33274
X13335Y33274
X8890Y30988
X16510Y30988
X8890Y28448
X16510Y28448
X7874Y27432
X6731Y26670
X17526Y27432
X18669Y26797
X23876Y33782
X22860Y34798
X24511Y32639
X1524Y33782
X2921Y34798
X762Y32639
X6350Y36068
X7620Y36068
X16510Y36068
X8890Y36068
X17780Y36068
X19050Y36068
X20320Y36068
X16510Y38608
X17780Y38608
X19050Y38608
X20320Y38608
X21590Y38608
X21590Y36068
X3810Y37338
X7620Y34798
X8890Y34798
X10160Y30988
X11430Y30988
X12700Y30988
X13970Y30988
X15240Y30988
X16510Y34798
X17780Y34798
X19050Y34798
X20320Y34798
X5080Y34798
X16510Y41148
X16510Y44958
X8890Y39878
X6350Y44958
X15240Y43053
X9017Y42037
X6350Y39116
X7112Y39116
X5207Y42037
X40513Y33401
X40513Y32766
X36703Y33401
X36703Y32766
X32893Y32766
X32258Y32766
X44323Y32766
X44958Y32766
X36703Y38989
X37973Y38989
X40513Y38989
X35814Y40640
X33528Y40640
X30988Y41148
X29718Y40132
X37973Y35941
X39243Y35941
X40513Y35941
X36703Y35941
X39243Y38989
X37465Y44450
X41148Y44450
X34798Y44958
X34290Y46228
X34290Y49276
X34290Y47752
X42926Y49276
X42926Y47752
X42926Y46228
X40513Y42037
X37973Y33274
X39243Y33274
X34798Y30988
X42418Y30988
X34798Y28448
X42418Y28448
X33782Y27432
X32639Y26670
X43434Y27432
X44577Y26797
X49784Y33782
X48768Y34798
X50419Y32639
X27432Y33782
X28829Y34798
X26670Y32639
X32258Y36068
X33528Y36068
X42418Y36068
X34798Y36068
X43688Y36068
X44958Y36068
X46228Y36068
X42418Y38608
X43688Y38608
X44958Y38608
X46228Y38608
X47498Y38608
X47498Y36068
X29718Y37338
X33528Y34798
X34798Y34798
X36068Y30988
X37338Y30988
X38608Y30988
X39878Y30988
X41148Y30988
X42418Y34798
X43688Y34798
X44958Y34798
X46228Y34798
X30988Y34798
X42418Y41148
X42418Y44958
X34798Y39878
X32258Y44958
X41148Y43053
X34925Y42037
X32258Y39116
X33020Y39116
X31115Y42037
X66421Y33401
X66421Y32766
X62611Y33401
X62611Y32766
X58801Y32766
X58166Y32766
X70231Y32766
X70866Y32766
X62611Y38989
X63881Y38989
X66421Y38989
X61722Y40640
X59436Y40640
X56896Y41148
X55626Y40132
X63881Y35941
X65151Y35941
X66421Y35941
X62611Y35941
X65151Y38989
X63373Y44450
X67056Y44450
X60706Y44958
X60198Y46228
X60198Y49276
X60198Y47752
X68834Y49276
X68834Y47752
X68834Y46228
X66421Y42037
X63881Y33274
X65151Y33274
X60706Y30988
X68326Y30988
X60706Y28448
X68326Y28448
X59690Y27432
X58547Y26670
X69342Y27432
X70485Y26797
X75692Y33782
X74676Y34798
X76327Y32639
X53340Y33782
X54737Y34798
X52578Y32639
X58166Y36068
X59436Y36068
X68326Y36068
X60706Y36068
X69596Y36068
X70866Y36068
X72136Y36068
X68326Y38608
X69596Y38608
X70866Y38608
X72136Y38608
X73406Y38608
X73406Y36068
X55626Y37338
X59436Y34798
X60706Y34798
X61976Y30988
X63246Y30988
X64516Y30988
X65786Y30988
X67056Y30988
X68326Y34798
X69596Y34798
X70866Y34798
X72136Y34798
X56896Y34798
X68326Y41148
X68326Y44958
X60706Y39878
X58166Y44958
X67056Y43053
X60833Y42037
X58166Y39116
X58928Y39116
X57023Y42037
X92329Y33401
X92329Y32766
X88519Y33401
X88519Y32766
X84709Y32766
X84074Y32766
X96139Y32766
X96774Y32766
X88519Y38989
X89789Y38989
X92329Y38989
X87630Y40640
X85344Y40640
X82804Y41148
X81534Y40132
X89789Y35941
X91059Y35941
X92329Y35941
X88519Y35941
X91059Y38989
X89281Y44450
X92964Y44450
X86614Y44958
X86106Y46228
X86106Y49276
X86106Y47752
X94742Y49276
X94742Y47752
X94742Y46228
X92329Y42037
X89789Y33274
X91059Y33274
X86614Y30988
X94234Y30988
X86614Y28448
X94234Y28448
X85598Y27432
X84455Y26670
X95250Y27432
X96393Y26797
X101600Y33782
X100584Y34798
X102235Y32639
X79248Y33782
X80645Y34798
X78486Y32639
X84074Y36068
X85344Y36068
X94234Y36068
X86614Y36068
X95504Y36068
X96774Y36068
X98044Y36068
X94234Y38608
X95504Y38608
X96774Y38608
X98044Y38608
X99314Y38608
X99314Y36068
X81534Y37338
X85344Y34798
X86614Y34798
X87884Y30988
X89154Y30988
X90424Y30988
X91694Y30988
X92964Y30988
X94234Y34798
X95504Y34798
X96774Y34798
X98044Y34798
X82804Y34798
X94234Y41148
X94234Y44958
X86614Y39878
X84074Y44958
X92964Y43053
X86741Y42037
X84074Y39116
X84836Y39116
X82931Y42037
X118237Y33401
X118237Y32766
X114427Y33401
X114427Y32766
X110617Y32766
X109982Y32766
X122047Y32766
X122682Y32766
X114427Y38989
X115697Y38989
X118237Y38989
X113538Y40640
X111252Y40640
X108712Y41148
X107442Y40132
X115697Y35941
X116967Y35941
X118237Y35941
X114427Y35941
X116967Y38989
X115189Y44450
X118872Y44450
X112522Y44958
X112014Y46228
X112014Y49276
X112014Y47752
X120650Y49276
X120650Y47752
X120650Y46228
X118237Y42037
X115697Y33274
X116967Y33274
X112522Y30988
X120142Y30988
X112522Y28448
X120142Y28448
X111506Y27432
X110363Y26670
X121158Y27432
X122301Y26797
X127508Y33782
X126492Y34798
X128143Y32639
X105156Y33782
X106553Y34798
X104394Y32639
X109982Y36068
X111252Y36068
X120142Y36068
X112522Y36068
X121412Y36068
X122682Y36068
X123952Y36068
X120142Y38608
X121412Y38608
X122682Y38608
X123952Y38608
X125222Y38608
X125222Y36068
X107442Y37338
X111252Y34798
X112522Y34798
X113792Y30988
X115062Y30988
X116332Y30988
X117602Y30988
X118872Y30988
X120142Y34798
X121412Y34798
X122682Y34798
X123952Y34798
X108712Y34798
X120142Y41148
X120142Y44958
X112522Y39878
X109982Y44958
X118872Y43053
X112649Y42037
X109982Y39116
X110744Y39116
X108839Y42037
X144145Y33401
X144145Y32766
X140335Y33401
X140335Y32766
X136525Y32766
X135890Y32766
X147955Y32766
X148590Y32766
X140335Y38989
X141605Y38989
X144145Y38989
X139446Y40640
X137160Y40640
X134620Y41148
X133350Y40132
X141605Y35941
X142875Y35941
X144145Y35941
X140335Y35941
X142875Y38989
X141097Y44450
X144780Y44450
X138430Y44958
X137922Y46228
X137922Y49276
X137922Y47752
X146558Y49276
X146558Y47752
X146558Y46228
X144145Y42037
X141605Y33274
X142875Y33274
X138430Y30988
X146050Y30988
X138430Y28448
X146050Y28448
X137414Y27432
X136271Y26670
X147066Y27432
X148209Y26797
X153416Y33782
X152400Y34798
X154051Y32639
X131064Y33782
X132461Y34798
X130302Y32639
X135890Y36068
X137160Y36068
X146050Y36068
X138430Y36068
X147320Y36068
X148590Y36068
X149860Y36068
X146050Y38608
X147320Y38608
X148590Y38608
X149860Y38608
X151130Y38608
X151130Y36068
X133350Y37338
X137160Y34798
X138430Y34798
X139700Y30988
X140970Y30988
X142240Y30988
X143510Y30988
X144780Y30988
X146050Y34798
X147320Y34798
X148590Y34798
X149860Y34798
X134620Y34798
X146050Y41148
X146050Y44958
X138430Y39878
X135890Y44958
X144780Y43053
X138557Y42037
X135890Y39116
X136652Y39116
X134747Y42037
X14605Y59309
X14605Y58674
X10795Y59309
X10795Y58674
X6985Y58674
X6350Y58674
X18415Y58674
X19050Y58674
X10795Y64897
X12065Y64897
X14605Y64897
X9906Y66548
X7620Y66548
X5080Y67056
X3810Y66040
X12065Y61849
X13335Y61849
X14605Y61849
X10795Y61849
X13335Y64897
X11557Y70358
X15240Y70358
X8890Y70866
X8382Y72136
X8382Y75184
X8382Y73660
X17018Y75184
X17018Y73660
X17018Y72136
X14605Y67945
X12065Y59182
X13335Y59182
X8890Y56896
X16510Y56896
X8890Y54356
X16510Y54356
X7874Y53340
X6731Y52578
X17526Y53340
X18669Y52705
X23876Y59690
X22860Y60706
X24511Y58547
X1524Y59690
X2921Y60706
X762Y58547
X6350Y61976
X7620Y61976
X16510Y61976
X8890Y61976
X17780Y61976
X19050Y61976
X20320Y61976
X16510Y64516
X17780Y64516
X19050Y64516
X20320Y64516
X21590Y64516
X21590Y61976
X3810Y63246
X7620Y60706
X8890Y60706
X10160Y56896
X11430Y56896
X12700Y56896
X13970Y56896
X15240Y56896
X16510Y60706
X17780Y60706
X19050Y60706
X20320Y60706
X5080Y60706
X16510Y67056
X16510Y70866
X8890Y65786
X6350Y70866
X15240Y68961
X9017Y67945
X6350Y65024
X7112Y65024
X5207Y67945
X40513Y59309
X40513Y58674
X36703Y59309
X36703Y58674
X32893Y58674
X32258Y58674
X44323Y58674
X44958Y58674
X36703Y64897
X37973Y64897
X40513Y64897
X35814Y66548
X33528Y66548
X30988Y67056
X29718Y66040
X37973Y61849
X39243Y61849
X40513Y61849
X36703Y61849
X39243Y64897
X37465Y70358
X41148Y70358
X34798Y70866
X34290Y72136
X34290Y75184
X34290Y73660
X42926Y75184
X42926Y73660
X42926Y72136
X40513Y67945
X37973Y59182
X39243Y59182
X34798Y56896
X42418Y56896
X34798Y54356
X42418Y54356
X33782Y53340
X32639Y52578
X43434Y53340
X44577Y52705
X49784Y59690
X48768Y60706
X50419Y58547
X27432Y59690
X28829Y60706
X26670Y58547
X32258Y61976
X33528Y61976
X42418Y61976
X34798Y61976
X43688Y61976
X44958Y61976
X46228Y61976
X42418Y64516
X43688Y64516
X44958Y64516
X46228Y64516
X47498Y64516
X47498Y61976
X29718Y63246
X33528Y60706
X34798Y60706
X36068Y56896
X37338Y56896
X38608Y56896
X39878Y56896
X41148Y56896
X42418Y60706
X43688Y60706
X44958Y60706
X46228Y60706
X30988Y60706
X42418Y67056
X42418Y70866
X34798Y65786
X32258Y70866
X41148Y68961
X34925Y67945
X32258Y65024
X33020Y65024
X31115Y67945
X66421Y59309
X66421Y58674
X62611Y59309
X62611Y58674
X58801Y58674
X58166Y58674
X70231Y58674
X70866Y58674
X62611Y64897
X63881Y64897
X66421Y64897
X61722Y66548
X59436Y66548
X56896Y67056
X55626Y66040
X63881Y61849
X65151Y61849
X66421Y61849
X62611Y61849
X65151Y64897
X63373Y70358
X67056Y70358
X60706Y70866
X60198Y72136
X60198Y75184
X60198Y73660
X68834Y75184
X68834Y73660
X68834Y72136
X66421Y67945
X63881Y59182
X65151Y59182
X60706Y56896
X68326Y56896
X60706Y54356
X68326Y54356
X59690Y53340
X58547Y52578
X69342Y53340
X70485Y52705
X75692Y59690
X74676Y60706
X76327Y58547
X53340Y59690
X54737Y60706
X52578Y58547
X58166Y61976
X59436Y61976
X68326Y61976
X60706Y61976
X69596Y61976
X70866Y61976
X72136Y61976
X68326Y64516
X69596Y64516
X70866Y64516
X72136Y64516
X73406Y64516
X73406Y61976
X55626Y63246
X59436Y60706
X60706Y60706
X61976Y56896
X63246Y56896
X64516Y56896
X65786Y56896
X67056Y56896
X68326Y60706
X69596Y60706
X70866Y60706
X72136Y60706
X56896Y60706
X68326Y67056
X68326Y70866
X60706Y65786
X58166Y70866
X67056Y68961
X60833Y67945
X58166Y65024
X58928Y65024
X57023Y67945
X92329Y59309
X92329Y58674
X88519Y59309
X88519Y58674
X84709Y58674
X84074Y58674
X96139Y58674
X96774Y58674
X88519Y64897
X89789Y64897
X92329Y64897
X87630Y66548
X85344Y66548
X82804Y67056
X81534Y66040
X89789Y61849
X91059Y61849
X92329Y61849
X88519Y61849
X91059Y64897
X89281Y70358
X92964Y70358
X86614Y70866
X86106Y72136
X86106Y75184
X86106Y73660
X94742Y75184
X94742Y73660
X94742Y72136
X92329Y67945
X89789Y59182
X91059Y59182
X86614Y56896
X94234Y56896
X86614Y54356
X94234Y54356
X85598Y53340
X84455Y52578
X95250Y53340
X96393Y52705
X101600Y59690
X100584Y60706
X102235Y58547
X79248Y59690
X80645Y60706
X78486Y58547
X84074Y61976
X85344Y61976
X94234Y61976
X86614Y61976
X95504Y61976
X96774Y61976
X98044Y61976
X94234Y64516
X95504Y64516
X96774Y64516
X98044Y64516
X99314Y64516
X99314Y61976
X81534Y63246
X85344Y60706
X86614Y60706
X87884Y56896
X89154Y56896
X90424Y56896
X91694Y56896
X92964Y56896
X94234Y60706
X95504Y60706
X96774Y60706
X98044Y60706
X82804Y60706
X94234Y67056
X94234Y70866
X86614Y65786
X84074Y70866
X92964Y68961
X86741Y67945
X84074Y65024
X84836Y65024
X82931Y67945
X118237Y59309
X118237Y58674
X114427Y59309
X114427Y58674
X110617Y58674
X109982Y58674
X122047Y58674
X122682Y58674
X114427Y64897
X115697Y64897
X118237Y64897
X113538Y66548
X111252Y66548
X108712Y67056
X107442Y66040
X115697Y61849
X116967Y61849
X118237Y61849
X114427Y61849
X116967Y64897
X115189Y70358
X118872Y70358
X112522Y70866
X112014Y72136
X112014Y75184
X112014Y73660
X120650Y75184
X120650Y73660
X120650Y72136
X118237Y67945
X115697Y59182
X116967Y59182
X112522Y56896
X120142Y56896
X112522Y54356
X120142Y54356
X111506Y53340
X110363Y52578
X121158Y53340
X122301Y52705
X127508Y59690
X126492Y60706
X128143Y58547
X105156Y59690
X106553Y60706
X104394Y58547
X109982Y61976
X111252Y61976
X120142Y61976
X112522Y61976
X121412Y61976
X122682Y61976
X123952Y61976
X120142Y64516
X121412Y64516
X122682Y64516
X123952Y64516
X125222Y64516
X125222Y61976
X107442Y63246
X111252Y60706
X112522Y60706
X113792Y56896
X115062Y56896
X116332Y56896
X117602Y56896
X118872Y56896
X120142Y60706
X121412Y60706
X122682Y60706
X123952Y60706
X108712Y60706
X120142Y67056
X120142Y70866
X112522Y65786
X109982Y70866
X118872Y68961
X112649Y67945
X109982Y65024
X110744Y65024
X108839Y67945
X144145Y59309
X144145Y58674
X140335Y59309
X140335Y58674
X136525Y58674
X135890Y58674
X147955Y58674
X148590Y58674
X140335Y64897
X141605Y64897
X144145Y64897
X139446Y66548
X137160Y66548
X134620Y67056
X133350Y66040
X141605Y61849
X142875Y61849
X144145Y61849
X140335Y61849
X142875Y64897
X141097Y70358
X144780Y70358
X138430Y70866
X137922Y72136
X137922Y75184
X137922Y73660
X146558Y75184
X146558Y73660
X146558Y72136
X144145Y67945
X141605Y59182
X142875Y59182
X138430Y56896
X146050Y56896
X138430Y54356
X146050Y54356
X137414Y53340
X136271Y52578
X147066Y53340
X148209Y52705
X153416Y59690
X152400Y60706
X154051Y58547
X131064Y59690
X132461Y60706
X130302Y58547
X135890Y61976
X137160Y61976
X146050Y61976
X138430Y61976
X147320Y61976
X148590Y61976
X149860Y61976
X146050Y64516
X147320Y64516
X148590Y64516
X149860Y64516
X151130Y64516
X151130Y61976
X133350Y63246
X137160Y60706
X138430Y60706
X139700Y56896
X140970Y56896
X142240Y56896
X143510Y56896
X144780Y56896
X146050Y60706
X147320Y60706
X148590Y60706
X149860Y60706
X134620Y60706
X146050Y67056
X146050Y70866
X138430Y65786
X135890Y70866
X144780Y68961
X138557Y67945
X135890Y65024
X136652Y65024
X134747Y67945
X14605Y85217
X14605Y84582
X10795Y85217
X10795Y84582
X6985Y84582
X6350Y84582
X18415Y84582
X19050Y84582
X10795Y90805
X12065Y90805
X14605Y90805
X9906Y92456
X7620Y92456
X5080Y92964
X3810Y91948
X12065Y87757
X13335Y87757
X14605Y87757
X10795Y87757
X13335Y90805
X11557Y96266
X15240Y96266
X8890Y96774
X8382Y98044
X8382Y101092
X8382Y99568
X17018Y101092
X17018Y99568
X17018Y98044
X14605Y93853
X12065Y85090
X13335Y85090
X8890Y82804
X16510Y82804
X8890Y80264
X16510Y80264
X7874Y79248
X6731Y78486
X17526Y79248
X18669Y78613
X23876Y85598
X22860Y86614
X24511Y84455
X1524Y85598
X2921Y86614
X762Y84455
X6350Y87884
X7620Y87884
X16510Y87884
X8890Y87884
X17780Y87884
X19050Y87884
X20320Y87884
X16510Y90424
X17780Y90424
X19050Y90424
X20320Y90424
X21590Y90424
X21590Y87884
X3810Y89154
X7620Y86614
X8890Y86614
X10160Y82804
X11430Y82804
X12700Y82804
X13970Y82804
X15240Y82804
X16510Y86614
X17780Y86614
X19050Y86614
X20320Y86614
X14605Y7493
X16510Y92964
X16510Y96774
X8890Y91694
X6350Y96774
X15240Y94869
X9017Y93853
X6350Y90932
X7112Y90932
X5207Y93853
X40513Y85217
X40513Y84582
X36703Y85217
X36703Y84582
X32893Y84582
X32258Y84582
X44323Y84582
X44958Y84582
X36703Y90805
X37973Y90805
X40513Y90805
X35814Y92456
X33528Y92456
X30988Y92964
X29718Y91948
X37973Y87757
X39243Y87757
X40513Y87757
X36703Y87757
X39243Y90805
X37465Y96266
X41148Y96266
X34798Y96774
X34290Y98044
X34290Y101092
X34290Y99568
X42926Y101092
X42926Y99568
X42926Y98044
X40513Y93853
X37973Y85090
X39243Y85090
X34798Y82804
X42418Y82804
X34798Y80264
X42418Y80264
X33782Y79248
X32639Y78486
X43434Y79248
X44577Y78613
X49784Y85598
X48768Y86614
X50419Y84455
X27432Y85598
X28829Y86614
X26670Y84455
X32258Y87884
X33528Y87884
X42418Y87884
X34798Y87884
X43688Y87884
X44958Y87884
X46228Y87884
X42418Y90424
X43688Y90424
X44958Y90424
X46228Y90424
X47498Y90424
X47498Y87884
X29718Y89154
X33528Y86614
X34798Y86614
X36068Y82804
X37338Y82804
X38608Y82804
X39878Y82804
X41148Y82804
X42418Y86614
X43688Y86614
X44958Y86614
X46228Y86614
X30988Y86614
X42418Y92964
X42418Y96774
X34798Y91694
X32258Y96774
X41148Y94869
X34925Y93853
X32258Y90932
X33020Y90932
X31115Y93853
X66421Y85217
X66421Y84582
X62611Y85217
X62611Y84582
X58801Y84582
X58166Y84582
X70231Y84582
X70866Y84582
X62611Y90805
X63881Y90805
X66421Y90805
X61722Y92456
X59436Y92456
X56896Y92964
X55626Y91948
X63881Y87757
X65151Y87757
X66421Y87757
X62611Y87757
X65151Y90805
X63373Y96266
X67056Y96266
X60706Y96774
X60198Y98044
X60198Y101092
X60198Y99568
X68834Y101092
X68834Y99568
X68834Y98044
X66421Y93853
X63881Y85090
X65151Y85090
X60706Y82804
X68326Y82804
X60706Y80264
X68326Y80264
X59690Y79248
X58547Y78486
X69342Y79248
X70485Y78613
X75692Y85598
X74676Y86614
X76327Y84455
X53340Y85598
X54737Y86614
X52578Y84455
X58166Y87884
X59436Y87884
X68326Y87884
X60706Y87884
X69596Y87884
X70866Y87884
X72136Y87884
X68326Y90424
X69596Y90424
X70866Y90424
X72136Y90424
X73406Y90424
X73406Y87884
X55626Y89154
X59436Y86614
X60706Y86614
X61976Y82804
X63246Y82804
X64516Y82804
X65786Y82804
X67056Y82804
X68326Y86614
X69596Y86614
X70866Y86614
X72136Y86614
X56896Y86614
X68326Y92964
X68326Y96774
X60706Y91694
X58166Y96774
X67056Y94869
X60833Y93853
X58166Y90932
X58928Y90932
X57023Y93853
X92329Y85217
X92329Y84582
X88519Y85217
X88519Y84582
X84709Y84582
X84074Y84582
X96139Y84582
X96774Y84582
X88519Y90805
X89789Y90805
X92329Y90805
X87630Y92456
X85344Y92456
X82804Y92964
X81534Y91948
X89789Y87757
X91059Y87757
X92329Y87757
X88519Y87757
X91059Y90805
X89281Y96266
X92964Y96266
X86614Y96774
X86106Y98044
X86106Y101092
X86106Y99568
X94742Y101092
X94742Y99568
X94742Y98044
X92329Y93853
X89789Y85090
X91059Y85090
X86614Y82804
X94234Y82804
X86614Y80264
X94234Y80264
X85598Y79248
X84455Y78486
X95250Y79248
X96393Y78613
X101600Y85598
X100584Y86614
X102235Y84455
X79248Y85598
X80645Y86614
X78486Y84455
X84074Y87884
X85344Y87884
X94234Y87884
X86614Y87884
X95504Y87884
X96774Y87884
X98044Y87884
X94234Y90424
X95504Y90424
X96774Y90424
X98044Y90424
X99314Y90424
X99314Y87884
X81534Y89154
X85344Y86614
X86614Y86614
X87884Y82804
X89154Y82804
X90424Y82804
X91694Y82804
X92964Y82804
X94234Y86614
X95504Y86614
X96774Y86614
X98044Y86614
X82804Y86614
X94234Y92964
X94234Y96774
X86614Y91694
X84074Y96774
X92964Y94869
X86741Y93853
X84074Y90932
X84836Y90932
X82931Y93853
X118237Y85217
X118237Y84582
X5080Y86614
X114427Y84582
X110617Y84582
X109982Y84582
X122047Y84582
X122682Y84582
X114427Y90805
X115697Y90805
X118237Y90805
X113538Y92456
X111252Y92456
X108712Y92964
X107442Y91948
X115697Y87757
X116967Y87757
X118237Y87757
X114427Y87757
X116967Y90805
X115189Y96266
X118872Y96266
X112522Y96774
X112014Y98044
X112014Y101092
X112014Y99568
X120650Y101092
X120650Y99568
X120650Y98044
X118237Y93853
X115697Y85090
X116967Y85090
X112522Y82804
X120142Y82804
X112522Y80264
X120142Y80264
X111506Y79248
X110363Y78486
X121158Y79248
X122301Y78613
X127508Y85598
X126492Y86614
X128143Y84455
X105156Y85598
X106553Y86614
X104394Y84455
X109982Y87884
X111252Y87884
X120142Y87884
X112522Y87884
X121412Y87884
X122682Y87884
X123952Y87884
X120142Y90424
X121412Y90424
X122682Y90424
X123952Y90424
X125222Y90424
X125222Y87884
X107442Y89154
X111252Y86614
X112522Y86614
X113792Y82804
X115062Y82804
X116332Y82804
X117602Y82804
X118872Y82804
X120142Y86614
X121412Y86614
X122682Y86614
X123952Y86614
X108712Y86614
X120142Y92964
X120142Y96774
X112522Y91694
X109982Y96774
X118872Y94869
X112649Y93853
X109982Y90932
X110744Y90932
X108839Y93853
X144145Y85217
X144145Y84582
X140335Y85217
X140335Y84582
X136525Y84582
X135890Y84582
X147955Y84582
X148590Y84582
X140335Y90805
X141605Y90805
X144145Y90805
X139446Y92456
X137160Y92456
X134620Y92964
X133350Y91948
X141605Y87757
X142875Y87757
X144145Y87757
X140335Y87757
X142875Y90805
X141097Y96266
X144780Y96266
X138430Y96774
X137922Y98044
X137922Y101092
X137922Y99568
X146558Y101092
X146558Y99568
X146558Y98044
X144145Y93853
X141605Y85090
X142875Y85090
X138430Y82804
X146050Y82804
X138430Y80264
X146050Y80264
X137414Y79248
X136271Y78486
X147066Y79248
X148209Y78613
X153416Y85598
X152400Y86614
X154051Y84455
X131064Y85598
X132461Y86614
X130302Y84455
X135890Y87884
X137160Y87884
X146050Y87884
X138430Y87884
X147320Y87884
X148590Y87884
X149860Y87884
X146050Y90424
X147320Y90424
X148590Y90424
X149860Y90424
X151130Y90424
X151130Y87884
X133350Y89154
X137160Y86614
X138430Y86614
X139700Y82804
X140970Y82804
X142240Y82804
X143510Y82804
X144780Y82804
X146050Y86614
X147320Y86614
X148590Y86614
X149860Y86614
X134620Y86614
X146050Y92964
X146050Y96774
X138430Y91694
X135890Y96774
X144780Y94869
X138557Y93853
X135890Y90932
X136652Y90932
X134747Y93853
X14605Y6858
X10795Y7493
X10795Y6858
X6985Y6858
X6350Y6858
X18415Y6858
X19050Y6858
X10795Y13081
X12065Y13081
X14605Y13081
X9906Y14732
X7620Y14732
X5080Y15240
X3810Y14224
X12065Y10033
X13335Y10033
X14605Y10033
X10795Y10033
X13335Y13081
X11557Y18542
X15240Y18542
X8890Y19050
X8382Y20320
X8382Y23368
X8382Y21844
X17018Y23368
X17018Y21844
X17018Y20320
X14605Y16129
X12065Y7366
X13335Y7366
X8890Y5080
X16510Y5080
X8890Y2540
X16510Y2540
X7874Y1524
X6731Y762
X17526Y1524
X18669Y889
X23876Y7874
X22860Y8890
X24511Y6731
X1524Y7874
X2921Y8890
X762Y6731
X6350Y10160
X7620Y10160
X16510Y10160
X8890Y10160
X17780Y10160
X19050Y10160
X20320Y10160
X16510Y12700
X17780Y12700
X19050Y12700
X20320Y12700
X21590Y12700
X21590Y10160
X3810Y11430
X7620Y8890
X8890Y8890
X10160Y5080
X11430Y5080
X12700Y5080
X13970Y5080
X15240Y5080
X16510Y8890
X17780Y8890
X19050Y8890
X20320Y8890
X5080Y8890
X16510Y15240
X16510Y19050
X8890Y13970
X6350Y19050
X15240Y17145
X9017Y16129
X6350Y13208
X7112Y13208
X5207Y16129
X40513Y7493
X40513Y6858
X36703Y7493
X36703Y6858
X32893Y6858
X32258Y6858
X44323Y6858
X44958Y6858
X36703Y13081
X37973Y13081
X40513Y13081
X35814Y14732
X33528Y14732
X30988Y15240
X29718Y14224
X114427Y85217
M30