G04 EAGLE Gerber RS-274X export*
G75*
%MOMM*%
%FSLAX34Y34*%
%LPD*%
%INSoldermask Bottom*%
%IPPOS*%
%AMOC8*
5,1,8,0,0,1.08239X$1,22.5*%
G01*
%ADD10C,0.264381*%
%ADD11C,0.251966*%
%ADD12C,2.032000*%
%ADD13C,1.152400*%
%ADD14C,3.454400*%
%ADD15C,1.270000*%
%ADD16C,1.652400*%

G36*
X944310Y843927D02*
X944310Y843927D01*
X944376Y843929D01*
X944419Y843947D01*
X944466Y843955D01*
X944523Y843989D01*
X944583Y844014D01*
X944618Y844045D01*
X944659Y844070D01*
X944701Y844121D01*
X944749Y844165D01*
X944771Y844207D01*
X944800Y844244D01*
X944821Y844306D01*
X944852Y844365D01*
X944860Y844419D01*
X944872Y844456D01*
X944871Y844496D01*
X944879Y844550D01*
X944879Y847090D01*
X944868Y847155D01*
X944866Y847221D01*
X944848Y847264D01*
X944840Y847311D01*
X944806Y847368D01*
X944781Y847428D01*
X944750Y847463D01*
X944725Y847504D01*
X944674Y847546D01*
X944630Y847594D01*
X944588Y847616D01*
X944551Y847645D01*
X944489Y847666D01*
X944430Y847697D01*
X944376Y847705D01*
X944339Y847717D01*
X944299Y847716D01*
X944245Y847724D01*
X940435Y847724D01*
X940370Y847713D01*
X940304Y847711D01*
X940261Y847693D01*
X940214Y847685D01*
X940157Y847651D01*
X940097Y847626D01*
X940062Y847595D01*
X940021Y847570D01*
X939980Y847519D01*
X939931Y847475D01*
X939909Y847433D01*
X939880Y847396D01*
X939859Y847334D01*
X939828Y847275D01*
X939820Y847221D01*
X939808Y847184D01*
X939808Y847181D01*
X939809Y847144D01*
X939801Y847090D01*
X939801Y844550D01*
X939812Y844485D01*
X939814Y844419D01*
X939832Y844376D01*
X939840Y844329D01*
X939874Y844272D01*
X939899Y844212D01*
X939930Y844177D01*
X939955Y844136D01*
X940006Y844095D01*
X940050Y844046D01*
X940092Y844024D01*
X940129Y843995D01*
X940191Y843974D01*
X940250Y843943D01*
X940304Y843935D01*
X940341Y843923D01*
X940381Y843924D01*
X940435Y843916D01*
X944245Y843916D01*
X944310Y843927D01*
G37*
G36*
X1203390Y843927D02*
X1203390Y843927D01*
X1203456Y843929D01*
X1203499Y843947D01*
X1203546Y843955D01*
X1203603Y843989D01*
X1203663Y844014D01*
X1203698Y844045D01*
X1203739Y844070D01*
X1203781Y844121D01*
X1203829Y844165D01*
X1203851Y844207D01*
X1203880Y844244D01*
X1203901Y844306D01*
X1203932Y844365D01*
X1203940Y844419D01*
X1203952Y844456D01*
X1203951Y844496D01*
X1203959Y844550D01*
X1203959Y847090D01*
X1203948Y847155D01*
X1203946Y847221D01*
X1203928Y847264D01*
X1203920Y847311D01*
X1203886Y847368D01*
X1203861Y847428D01*
X1203830Y847463D01*
X1203805Y847504D01*
X1203754Y847546D01*
X1203710Y847594D01*
X1203668Y847616D01*
X1203631Y847645D01*
X1203569Y847666D01*
X1203510Y847697D01*
X1203456Y847705D01*
X1203419Y847717D01*
X1203379Y847716D01*
X1203325Y847724D01*
X1199515Y847724D01*
X1199450Y847713D01*
X1199384Y847711D01*
X1199341Y847693D01*
X1199294Y847685D01*
X1199237Y847651D01*
X1199177Y847626D01*
X1199142Y847595D01*
X1199101Y847570D01*
X1199060Y847519D01*
X1199011Y847475D01*
X1198989Y847433D01*
X1198960Y847396D01*
X1198939Y847334D01*
X1198908Y847275D01*
X1198900Y847221D01*
X1198888Y847184D01*
X1198888Y847181D01*
X1198889Y847144D01*
X1198881Y847090D01*
X1198881Y844550D01*
X1198892Y844485D01*
X1198894Y844419D01*
X1198912Y844376D01*
X1198920Y844329D01*
X1198954Y844272D01*
X1198979Y844212D01*
X1199010Y844177D01*
X1199035Y844136D01*
X1199086Y844095D01*
X1199130Y844046D01*
X1199172Y844024D01*
X1199209Y843995D01*
X1199271Y843974D01*
X1199330Y843943D01*
X1199384Y843935D01*
X1199421Y843923D01*
X1199461Y843924D01*
X1199515Y843916D01*
X1203325Y843916D01*
X1203390Y843927D01*
G37*
G36*
X685230Y843927D02*
X685230Y843927D01*
X685296Y843929D01*
X685339Y843947D01*
X685386Y843955D01*
X685443Y843989D01*
X685503Y844014D01*
X685538Y844045D01*
X685579Y844070D01*
X685621Y844121D01*
X685669Y844165D01*
X685691Y844207D01*
X685720Y844244D01*
X685741Y844306D01*
X685772Y844365D01*
X685780Y844419D01*
X685792Y844456D01*
X685791Y844496D01*
X685799Y844550D01*
X685799Y847090D01*
X685788Y847155D01*
X685786Y847221D01*
X685768Y847264D01*
X685760Y847311D01*
X685726Y847368D01*
X685701Y847428D01*
X685670Y847463D01*
X685645Y847504D01*
X685594Y847546D01*
X685550Y847594D01*
X685508Y847616D01*
X685471Y847645D01*
X685409Y847666D01*
X685350Y847697D01*
X685296Y847705D01*
X685259Y847717D01*
X685219Y847716D01*
X685165Y847724D01*
X681355Y847724D01*
X681290Y847713D01*
X681224Y847711D01*
X681181Y847693D01*
X681134Y847685D01*
X681077Y847651D01*
X681017Y847626D01*
X680982Y847595D01*
X680941Y847570D01*
X680900Y847519D01*
X680851Y847475D01*
X680829Y847433D01*
X680800Y847396D01*
X680779Y847334D01*
X680748Y847275D01*
X680740Y847221D01*
X680728Y847184D01*
X680728Y847181D01*
X680729Y847144D01*
X680721Y847090D01*
X680721Y844550D01*
X680732Y844485D01*
X680734Y844419D01*
X680752Y844376D01*
X680760Y844329D01*
X680794Y844272D01*
X680819Y844212D01*
X680850Y844177D01*
X680875Y844136D01*
X680926Y844095D01*
X680970Y844046D01*
X681012Y844024D01*
X681049Y843995D01*
X681111Y843974D01*
X681170Y843943D01*
X681224Y843935D01*
X681261Y843923D01*
X681301Y843924D01*
X681355Y843916D01*
X685165Y843916D01*
X685230Y843927D01*
G37*
G36*
X426150Y843927D02*
X426150Y843927D01*
X426216Y843929D01*
X426259Y843947D01*
X426306Y843955D01*
X426363Y843989D01*
X426423Y844014D01*
X426458Y844045D01*
X426499Y844070D01*
X426541Y844121D01*
X426589Y844165D01*
X426611Y844207D01*
X426640Y844244D01*
X426661Y844306D01*
X426692Y844365D01*
X426700Y844419D01*
X426712Y844456D01*
X426711Y844496D01*
X426719Y844550D01*
X426719Y847090D01*
X426708Y847155D01*
X426706Y847221D01*
X426688Y847264D01*
X426680Y847311D01*
X426646Y847368D01*
X426621Y847428D01*
X426590Y847463D01*
X426565Y847504D01*
X426514Y847546D01*
X426470Y847594D01*
X426428Y847616D01*
X426391Y847645D01*
X426329Y847666D01*
X426270Y847697D01*
X426216Y847705D01*
X426179Y847717D01*
X426139Y847716D01*
X426085Y847724D01*
X422275Y847724D01*
X422210Y847713D01*
X422144Y847711D01*
X422101Y847693D01*
X422054Y847685D01*
X421997Y847651D01*
X421937Y847626D01*
X421902Y847595D01*
X421861Y847570D01*
X421820Y847519D01*
X421771Y847475D01*
X421749Y847433D01*
X421720Y847396D01*
X421699Y847334D01*
X421668Y847275D01*
X421660Y847221D01*
X421648Y847184D01*
X421648Y847181D01*
X421649Y847144D01*
X421641Y847090D01*
X421641Y844550D01*
X421652Y844485D01*
X421654Y844419D01*
X421672Y844376D01*
X421680Y844329D01*
X421714Y844272D01*
X421739Y844212D01*
X421770Y844177D01*
X421795Y844136D01*
X421846Y844095D01*
X421890Y844046D01*
X421932Y844024D01*
X421969Y843995D01*
X422031Y843974D01*
X422090Y843943D01*
X422144Y843935D01*
X422181Y843923D01*
X422221Y843924D01*
X422275Y843916D01*
X426085Y843916D01*
X426150Y843927D01*
G37*
G36*
X167070Y843927D02*
X167070Y843927D01*
X167136Y843929D01*
X167179Y843947D01*
X167226Y843955D01*
X167283Y843989D01*
X167343Y844014D01*
X167378Y844045D01*
X167419Y844070D01*
X167461Y844121D01*
X167509Y844165D01*
X167531Y844207D01*
X167560Y844244D01*
X167581Y844306D01*
X167612Y844365D01*
X167620Y844419D01*
X167632Y844456D01*
X167631Y844496D01*
X167639Y844550D01*
X167639Y847090D01*
X167628Y847155D01*
X167626Y847221D01*
X167608Y847264D01*
X167600Y847311D01*
X167566Y847368D01*
X167541Y847428D01*
X167510Y847463D01*
X167485Y847504D01*
X167434Y847546D01*
X167390Y847594D01*
X167348Y847616D01*
X167311Y847645D01*
X167249Y847666D01*
X167190Y847697D01*
X167136Y847705D01*
X167099Y847717D01*
X167059Y847716D01*
X167005Y847724D01*
X163195Y847724D01*
X163130Y847713D01*
X163064Y847711D01*
X163021Y847693D01*
X162974Y847685D01*
X162917Y847651D01*
X162857Y847626D01*
X162822Y847595D01*
X162781Y847570D01*
X162740Y847519D01*
X162691Y847475D01*
X162669Y847433D01*
X162640Y847396D01*
X162619Y847334D01*
X162588Y847275D01*
X162580Y847221D01*
X162568Y847184D01*
X162568Y847181D01*
X162569Y847144D01*
X162561Y847090D01*
X162561Y844550D01*
X162572Y844485D01*
X162574Y844419D01*
X162592Y844376D01*
X162600Y844329D01*
X162634Y844272D01*
X162659Y844212D01*
X162690Y844177D01*
X162715Y844136D01*
X162766Y844095D01*
X162810Y844046D01*
X162852Y844024D01*
X162889Y843995D01*
X162951Y843974D01*
X163010Y843943D01*
X163064Y843935D01*
X163101Y843923D01*
X163141Y843924D01*
X163195Y843916D01*
X167005Y843916D01*
X167070Y843927D01*
G37*
G36*
X1462470Y843927D02*
X1462470Y843927D01*
X1462536Y843929D01*
X1462579Y843947D01*
X1462626Y843955D01*
X1462683Y843989D01*
X1462743Y844014D01*
X1462778Y844045D01*
X1462819Y844070D01*
X1462861Y844121D01*
X1462909Y844165D01*
X1462931Y844207D01*
X1462960Y844244D01*
X1462981Y844306D01*
X1463012Y844365D01*
X1463020Y844419D01*
X1463032Y844456D01*
X1463031Y844496D01*
X1463039Y844550D01*
X1463039Y847090D01*
X1463028Y847155D01*
X1463026Y847221D01*
X1463008Y847264D01*
X1463000Y847311D01*
X1462966Y847368D01*
X1462941Y847428D01*
X1462910Y847463D01*
X1462885Y847504D01*
X1462834Y847546D01*
X1462790Y847594D01*
X1462748Y847616D01*
X1462711Y847645D01*
X1462649Y847666D01*
X1462590Y847697D01*
X1462536Y847705D01*
X1462499Y847717D01*
X1462459Y847716D01*
X1462405Y847724D01*
X1458595Y847724D01*
X1458530Y847713D01*
X1458464Y847711D01*
X1458421Y847693D01*
X1458374Y847685D01*
X1458317Y847651D01*
X1458257Y847626D01*
X1458222Y847595D01*
X1458181Y847570D01*
X1458140Y847519D01*
X1458091Y847475D01*
X1458069Y847433D01*
X1458040Y847396D01*
X1458019Y847334D01*
X1457988Y847275D01*
X1457980Y847221D01*
X1457968Y847184D01*
X1457968Y847181D01*
X1457969Y847144D01*
X1457961Y847090D01*
X1457961Y844550D01*
X1457972Y844485D01*
X1457974Y844419D01*
X1457992Y844376D01*
X1458000Y844329D01*
X1458034Y844272D01*
X1458059Y844212D01*
X1458090Y844177D01*
X1458115Y844136D01*
X1458166Y844095D01*
X1458210Y844046D01*
X1458252Y844024D01*
X1458289Y843995D01*
X1458351Y843974D01*
X1458410Y843943D01*
X1458464Y843935D01*
X1458501Y843923D01*
X1458541Y843924D01*
X1458595Y843916D01*
X1462405Y843916D01*
X1462470Y843927D01*
G37*
G36*
X1203390Y584847D02*
X1203390Y584847D01*
X1203456Y584849D01*
X1203499Y584867D01*
X1203546Y584875D01*
X1203603Y584909D01*
X1203663Y584934D01*
X1203698Y584965D01*
X1203739Y584990D01*
X1203781Y585041D01*
X1203829Y585085D01*
X1203851Y585127D01*
X1203880Y585164D01*
X1203901Y585226D01*
X1203932Y585285D01*
X1203940Y585339D01*
X1203952Y585376D01*
X1203951Y585416D01*
X1203959Y585470D01*
X1203959Y588010D01*
X1203948Y588075D01*
X1203946Y588141D01*
X1203928Y588184D01*
X1203920Y588231D01*
X1203886Y588288D01*
X1203861Y588348D01*
X1203830Y588383D01*
X1203805Y588424D01*
X1203754Y588466D01*
X1203710Y588514D01*
X1203668Y588536D01*
X1203631Y588565D01*
X1203569Y588586D01*
X1203510Y588617D01*
X1203456Y588625D01*
X1203419Y588637D01*
X1203379Y588636D01*
X1203325Y588644D01*
X1199515Y588644D01*
X1199450Y588633D01*
X1199384Y588631D01*
X1199341Y588613D01*
X1199294Y588605D01*
X1199237Y588571D01*
X1199177Y588546D01*
X1199142Y588515D01*
X1199101Y588490D01*
X1199060Y588439D01*
X1199011Y588395D01*
X1198989Y588353D01*
X1198960Y588316D01*
X1198939Y588254D01*
X1198908Y588195D01*
X1198900Y588141D01*
X1198888Y588104D01*
X1198888Y588101D01*
X1198889Y588064D01*
X1198881Y588010D01*
X1198881Y585470D01*
X1198892Y585405D01*
X1198894Y585339D01*
X1198912Y585296D01*
X1198920Y585249D01*
X1198954Y585192D01*
X1198979Y585132D01*
X1199010Y585097D01*
X1199035Y585056D01*
X1199086Y585015D01*
X1199130Y584966D01*
X1199172Y584944D01*
X1199209Y584915D01*
X1199271Y584894D01*
X1199330Y584863D01*
X1199384Y584855D01*
X1199421Y584843D01*
X1199461Y584844D01*
X1199515Y584836D01*
X1203325Y584836D01*
X1203390Y584847D01*
G37*
G36*
X426150Y584847D02*
X426150Y584847D01*
X426216Y584849D01*
X426259Y584867D01*
X426306Y584875D01*
X426363Y584909D01*
X426423Y584934D01*
X426458Y584965D01*
X426499Y584990D01*
X426541Y585041D01*
X426589Y585085D01*
X426611Y585127D01*
X426640Y585164D01*
X426661Y585226D01*
X426692Y585285D01*
X426700Y585339D01*
X426712Y585376D01*
X426711Y585416D01*
X426719Y585470D01*
X426719Y588010D01*
X426708Y588075D01*
X426706Y588141D01*
X426688Y588184D01*
X426680Y588231D01*
X426646Y588288D01*
X426621Y588348D01*
X426590Y588383D01*
X426565Y588424D01*
X426514Y588466D01*
X426470Y588514D01*
X426428Y588536D01*
X426391Y588565D01*
X426329Y588586D01*
X426270Y588617D01*
X426216Y588625D01*
X426179Y588637D01*
X426139Y588636D01*
X426085Y588644D01*
X422275Y588644D01*
X422210Y588633D01*
X422144Y588631D01*
X422101Y588613D01*
X422054Y588605D01*
X421997Y588571D01*
X421937Y588546D01*
X421902Y588515D01*
X421861Y588490D01*
X421820Y588439D01*
X421771Y588395D01*
X421749Y588353D01*
X421720Y588316D01*
X421699Y588254D01*
X421668Y588195D01*
X421660Y588141D01*
X421648Y588104D01*
X421648Y588101D01*
X421649Y588064D01*
X421641Y588010D01*
X421641Y585470D01*
X421652Y585405D01*
X421654Y585339D01*
X421672Y585296D01*
X421680Y585249D01*
X421714Y585192D01*
X421739Y585132D01*
X421770Y585097D01*
X421795Y585056D01*
X421846Y585015D01*
X421890Y584966D01*
X421932Y584944D01*
X421969Y584915D01*
X422031Y584894D01*
X422090Y584863D01*
X422144Y584855D01*
X422181Y584843D01*
X422221Y584844D01*
X422275Y584836D01*
X426085Y584836D01*
X426150Y584847D01*
G37*
G36*
X1462470Y584847D02*
X1462470Y584847D01*
X1462536Y584849D01*
X1462579Y584867D01*
X1462626Y584875D01*
X1462683Y584909D01*
X1462743Y584934D01*
X1462778Y584965D01*
X1462819Y584990D01*
X1462861Y585041D01*
X1462909Y585085D01*
X1462931Y585127D01*
X1462960Y585164D01*
X1462981Y585226D01*
X1463012Y585285D01*
X1463020Y585339D01*
X1463032Y585376D01*
X1463031Y585416D01*
X1463039Y585470D01*
X1463039Y588010D01*
X1463028Y588075D01*
X1463026Y588141D01*
X1463008Y588184D01*
X1463000Y588231D01*
X1462966Y588288D01*
X1462941Y588348D01*
X1462910Y588383D01*
X1462885Y588424D01*
X1462834Y588466D01*
X1462790Y588514D01*
X1462748Y588536D01*
X1462711Y588565D01*
X1462649Y588586D01*
X1462590Y588617D01*
X1462536Y588625D01*
X1462499Y588637D01*
X1462459Y588636D01*
X1462405Y588644D01*
X1458595Y588644D01*
X1458530Y588633D01*
X1458464Y588631D01*
X1458421Y588613D01*
X1458374Y588605D01*
X1458317Y588571D01*
X1458257Y588546D01*
X1458222Y588515D01*
X1458181Y588490D01*
X1458140Y588439D01*
X1458091Y588395D01*
X1458069Y588353D01*
X1458040Y588316D01*
X1458019Y588254D01*
X1457988Y588195D01*
X1457980Y588141D01*
X1457968Y588104D01*
X1457968Y588101D01*
X1457969Y588064D01*
X1457961Y588010D01*
X1457961Y585470D01*
X1457972Y585405D01*
X1457974Y585339D01*
X1457992Y585296D01*
X1458000Y585249D01*
X1458034Y585192D01*
X1458059Y585132D01*
X1458090Y585097D01*
X1458115Y585056D01*
X1458166Y585015D01*
X1458210Y584966D01*
X1458252Y584944D01*
X1458289Y584915D01*
X1458351Y584894D01*
X1458410Y584863D01*
X1458464Y584855D01*
X1458501Y584843D01*
X1458541Y584844D01*
X1458595Y584836D01*
X1462405Y584836D01*
X1462470Y584847D01*
G37*
G36*
X167070Y584847D02*
X167070Y584847D01*
X167136Y584849D01*
X167179Y584867D01*
X167226Y584875D01*
X167283Y584909D01*
X167343Y584934D01*
X167378Y584965D01*
X167419Y584990D01*
X167461Y585041D01*
X167509Y585085D01*
X167531Y585127D01*
X167560Y585164D01*
X167581Y585226D01*
X167612Y585285D01*
X167620Y585339D01*
X167632Y585376D01*
X167631Y585416D01*
X167639Y585470D01*
X167639Y588010D01*
X167628Y588075D01*
X167626Y588141D01*
X167608Y588184D01*
X167600Y588231D01*
X167566Y588288D01*
X167541Y588348D01*
X167510Y588383D01*
X167485Y588424D01*
X167434Y588466D01*
X167390Y588514D01*
X167348Y588536D01*
X167311Y588565D01*
X167249Y588586D01*
X167190Y588617D01*
X167136Y588625D01*
X167099Y588637D01*
X167059Y588636D01*
X167005Y588644D01*
X163195Y588644D01*
X163130Y588633D01*
X163064Y588631D01*
X163021Y588613D01*
X162974Y588605D01*
X162917Y588571D01*
X162857Y588546D01*
X162822Y588515D01*
X162781Y588490D01*
X162740Y588439D01*
X162691Y588395D01*
X162669Y588353D01*
X162640Y588316D01*
X162619Y588254D01*
X162588Y588195D01*
X162580Y588141D01*
X162568Y588104D01*
X162568Y588101D01*
X162569Y588064D01*
X162561Y588010D01*
X162561Y585470D01*
X162572Y585405D01*
X162574Y585339D01*
X162592Y585296D01*
X162600Y585249D01*
X162634Y585192D01*
X162659Y585132D01*
X162690Y585097D01*
X162715Y585056D01*
X162766Y585015D01*
X162810Y584966D01*
X162852Y584944D01*
X162889Y584915D01*
X162951Y584894D01*
X163010Y584863D01*
X163064Y584855D01*
X163101Y584843D01*
X163141Y584844D01*
X163195Y584836D01*
X167005Y584836D01*
X167070Y584847D01*
G37*
G36*
X944310Y584847D02*
X944310Y584847D01*
X944376Y584849D01*
X944419Y584867D01*
X944466Y584875D01*
X944523Y584909D01*
X944583Y584934D01*
X944618Y584965D01*
X944659Y584990D01*
X944701Y585041D01*
X944749Y585085D01*
X944771Y585127D01*
X944800Y585164D01*
X944821Y585226D01*
X944852Y585285D01*
X944860Y585339D01*
X944872Y585376D01*
X944871Y585416D01*
X944879Y585470D01*
X944879Y588010D01*
X944868Y588075D01*
X944866Y588141D01*
X944848Y588184D01*
X944840Y588231D01*
X944806Y588288D01*
X944781Y588348D01*
X944750Y588383D01*
X944725Y588424D01*
X944674Y588466D01*
X944630Y588514D01*
X944588Y588536D01*
X944551Y588565D01*
X944489Y588586D01*
X944430Y588617D01*
X944376Y588625D01*
X944339Y588637D01*
X944299Y588636D01*
X944245Y588644D01*
X940435Y588644D01*
X940370Y588633D01*
X940304Y588631D01*
X940261Y588613D01*
X940214Y588605D01*
X940157Y588571D01*
X940097Y588546D01*
X940062Y588515D01*
X940021Y588490D01*
X939980Y588439D01*
X939931Y588395D01*
X939909Y588353D01*
X939880Y588316D01*
X939859Y588254D01*
X939828Y588195D01*
X939820Y588141D01*
X939808Y588104D01*
X939808Y588101D01*
X939809Y588064D01*
X939801Y588010D01*
X939801Y585470D01*
X939812Y585405D01*
X939814Y585339D01*
X939832Y585296D01*
X939840Y585249D01*
X939874Y585192D01*
X939899Y585132D01*
X939930Y585097D01*
X939955Y585056D01*
X940006Y585015D01*
X940050Y584966D01*
X940092Y584944D01*
X940129Y584915D01*
X940191Y584894D01*
X940250Y584863D01*
X940304Y584855D01*
X940341Y584843D01*
X940381Y584844D01*
X940435Y584836D01*
X944245Y584836D01*
X944310Y584847D01*
G37*
G36*
X685230Y584847D02*
X685230Y584847D01*
X685296Y584849D01*
X685339Y584867D01*
X685386Y584875D01*
X685443Y584909D01*
X685503Y584934D01*
X685538Y584965D01*
X685579Y584990D01*
X685621Y585041D01*
X685669Y585085D01*
X685691Y585127D01*
X685720Y585164D01*
X685741Y585226D01*
X685772Y585285D01*
X685780Y585339D01*
X685792Y585376D01*
X685791Y585416D01*
X685799Y585470D01*
X685799Y588010D01*
X685788Y588075D01*
X685786Y588141D01*
X685768Y588184D01*
X685760Y588231D01*
X685726Y588288D01*
X685701Y588348D01*
X685670Y588383D01*
X685645Y588424D01*
X685594Y588466D01*
X685550Y588514D01*
X685508Y588536D01*
X685471Y588565D01*
X685409Y588586D01*
X685350Y588617D01*
X685296Y588625D01*
X685259Y588637D01*
X685219Y588636D01*
X685165Y588644D01*
X681355Y588644D01*
X681290Y588633D01*
X681224Y588631D01*
X681181Y588613D01*
X681134Y588605D01*
X681077Y588571D01*
X681017Y588546D01*
X680982Y588515D01*
X680941Y588490D01*
X680900Y588439D01*
X680851Y588395D01*
X680829Y588353D01*
X680800Y588316D01*
X680779Y588254D01*
X680748Y588195D01*
X680740Y588141D01*
X680728Y588104D01*
X680728Y588101D01*
X680729Y588064D01*
X680721Y588010D01*
X680721Y585470D01*
X680732Y585405D01*
X680734Y585339D01*
X680752Y585296D01*
X680760Y585249D01*
X680794Y585192D01*
X680819Y585132D01*
X680850Y585097D01*
X680875Y585056D01*
X680926Y585015D01*
X680970Y584966D01*
X681012Y584944D01*
X681049Y584915D01*
X681111Y584894D01*
X681170Y584863D01*
X681224Y584855D01*
X681261Y584843D01*
X681301Y584844D01*
X681355Y584836D01*
X685165Y584836D01*
X685230Y584847D01*
G37*
G36*
X1203390Y325767D02*
X1203390Y325767D01*
X1203456Y325769D01*
X1203499Y325787D01*
X1203546Y325795D01*
X1203603Y325829D01*
X1203663Y325854D01*
X1203698Y325885D01*
X1203739Y325910D01*
X1203781Y325961D01*
X1203829Y326005D01*
X1203851Y326047D01*
X1203880Y326084D01*
X1203901Y326146D01*
X1203932Y326205D01*
X1203940Y326259D01*
X1203952Y326296D01*
X1203951Y326336D01*
X1203959Y326390D01*
X1203959Y328930D01*
X1203948Y328995D01*
X1203946Y329061D01*
X1203928Y329104D01*
X1203920Y329151D01*
X1203886Y329208D01*
X1203861Y329268D01*
X1203830Y329303D01*
X1203805Y329344D01*
X1203754Y329386D01*
X1203710Y329434D01*
X1203668Y329456D01*
X1203631Y329485D01*
X1203569Y329506D01*
X1203510Y329537D01*
X1203456Y329545D01*
X1203419Y329557D01*
X1203379Y329556D01*
X1203325Y329564D01*
X1199515Y329564D01*
X1199450Y329553D01*
X1199384Y329551D01*
X1199341Y329533D01*
X1199294Y329525D01*
X1199237Y329491D01*
X1199177Y329466D01*
X1199142Y329435D01*
X1199101Y329410D01*
X1199060Y329359D01*
X1199011Y329315D01*
X1198989Y329273D01*
X1198960Y329236D01*
X1198939Y329174D01*
X1198908Y329115D01*
X1198900Y329061D01*
X1198888Y329024D01*
X1198888Y329021D01*
X1198889Y328984D01*
X1198881Y328930D01*
X1198881Y326390D01*
X1198892Y326325D01*
X1198894Y326259D01*
X1198912Y326216D01*
X1198920Y326169D01*
X1198954Y326112D01*
X1198979Y326052D01*
X1199010Y326017D01*
X1199035Y325976D01*
X1199086Y325935D01*
X1199130Y325886D01*
X1199172Y325864D01*
X1199209Y325835D01*
X1199271Y325814D01*
X1199330Y325783D01*
X1199384Y325775D01*
X1199421Y325763D01*
X1199461Y325764D01*
X1199515Y325756D01*
X1203325Y325756D01*
X1203390Y325767D01*
G37*
G36*
X944310Y325767D02*
X944310Y325767D01*
X944376Y325769D01*
X944419Y325787D01*
X944466Y325795D01*
X944523Y325829D01*
X944583Y325854D01*
X944618Y325885D01*
X944659Y325910D01*
X944701Y325961D01*
X944749Y326005D01*
X944771Y326047D01*
X944800Y326084D01*
X944821Y326146D01*
X944852Y326205D01*
X944860Y326259D01*
X944872Y326296D01*
X944871Y326336D01*
X944879Y326390D01*
X944879Y328930D01*
X944868Y328995D01*
X944866Y329061D01*
X944848Y329104D01*
X944840Y329151D01*
X944806Y329208D01*
X944781Y329268D01*
X944750Y329303D01*
X944725Y329344D01*
X944674Y329386D01*
X944630Y329434D01*
X944588Y329456D01*
X944551Y329485D01*
X944489Y329506D01*
X944430Y329537D01*
X944376Y329545D01*
X944339Y329557D01*
X944299Y329556D01*
X944245Y329564D01*
X940435Y329564D01*
X940370Y329553D01*
X940304Y329551D01*
X940261Y329533D01*
X940214Y329525D01*
X940157Y329491D01*
X940097Y329466D01*
X940062Y329435D01*
X940021Y329410D01*
X939980Y329359D01*
X939931Y329315D01*
X939909Y329273D01*
X939880Y329236D01*
X939859Y329174D01*
X939828Y329115D01*
X939820Y329061D01*
X939808Y329024D01*
X939808Y329021D01*
X939809Y328984D01*
X939801Y328930D01*
X939801Y326390D01*
X939812Y326325D01*
X939814Y326259D01*
X939832Y326216D01*
X939840Y326169D01*
X939874Y326112D01*
X939899Y326052D01*
X939930Y326017D01*
X939955Y325976D01*
X940006Y325935D01*
X940050Y325886D01*
X940092Y325864D01*
X940129Y325835D01*
X940191Y325814D01*
X940250Y325783D01*
X940304Y325775D01*
X940341Y325763D01*
X940381Y325764D01*
X940435Y325756D01*
X944245Y325756D01*
X944310Y325767D01*
G37*
G36*
X1462470Y325767D02*
X1462470Y325767D01*
X1462536Y325769D01*
X1462579Y325787D01*
X1462626Y325795D01*
X1462683Y325829D01*
X1462743Y325854D01*
X1462778Y325885D01*
X1462819Y325910D01*
X1462861Y325961D01*
X1462909Y326005D01*
X1462931Y326047D01*
X1462960Y326084D01*
X1462981Y326146D01*
X1463012Y326205D01*
X1463020Y326259D01*
X1463032Y326296D01*
X1463031Y326336D01*
X1463039Y326390D01*
X1463039Y328930D01*
X1463028Y328995D01*
X1463026Y329061D01*
X1463008Y329104D01*
X1463000Y329151D01*
X1462966Y329208D01*
X1462941Y329268D01*
X1462910Y329303D01*
X1462885Y329344D01*
X1462834Y329386D01*
X1462790Y329434D01*
X1462748Y329456D01*
X1462711Y329485D01*
X1462649Y329506D01*
X1462590Y329537D01*
X1462536Y329545D01*
X1462499Y329557D01*
X1462459Y329556D01*
X1462405Y329564D01*
X1458595Y329564D01*
X1458530Y329553D01*
X1458464Y329551D01*
X1458421Y329533D01*
X1458374Y329525D01*
X1458317Y329491D01*
X1458257Y329466D01*
X1458222Y329435D01*
X1458181Y329410D01*
X1458140Y329359D01*
X1458091Y329315D01*
X1458069Y329273D01*
X1458040Y329236D01*
X1458019Y329174D01*
X1457988Y329115D01*
X1457980Y329061D01*
X1457968Y329024D01*
X1457968Y329021D01*
X1457969Y328984D01*
X1457961Y328930D01*
X1457961Y326390D01*
X1457972Y326325D01*
X1457974Y326259D01*
X1457992Y326216D01*
X1458000Y326169D01*
X1458034Y326112D01*
X1458059Y326052D01*
X1458090Y326017D01*
X1458115Y325976D01*
X1458166Y325935D01*
X1458210Y325886D01*
X1458252Y325864D01*
X1458289Y325835D01*
X1458351Y325814D01*
X1458410Y325783D01*
X1458464Y325775D01*
X1458501Y325763D01*
X1458541Y325764D01*
X1458595Y325756D01*
X1462405Y325756D01*
X1462470Y325767D01*
G37*
G36*
X426150Y325767D02*
X426150Y325767D01*
X426216Y325769D01*
X426259Y325787D01*
X426306Y325795D01*
X426363Y325829D01*
X426423Y325854D01*
X426458Y325885D01*
X426499Y325910D01*
X426541Y325961D01*
X426589Y326005D01*
X426611Y326047D01*
X426640Y326084D01*
X426661Y326146D01*
X426692Y326205D01*
X426700Y326259D01*
X426712Y326296D01*
X426711Y326336D01*
X426719Y326390D01*
X426719Y328930D01*
X426708Y328995D01*
X426706Y329061D01*
X426688Y329104D01*
X426680Y329151D01*
X426646Y329208D01*
X426621Y329268D01*
X426590Y329303D01*
X426565Y329344D01*
X426514Y329386D01*
X426470Y329434D01*
X426428Y329456D01*
X426391Y329485D01*
X426329Y329506D01*
X426270Y329537D01*
X426216Y329545D01*
X426179Y329557D01*
X426139Y329556D01*
X426085Y329564D01*
X422275Y329564D01*
X422210Y329553D01*
X422144Y329551D01*
X422101Y329533D01*
X422054Y329525D01*
X421997Y329491D01*
X421937Y329466D01*
X421902Y329435D01*
X421861Y329410D01*
X421820Y329359D01*
X421771Y329315D01*
X421749Y329273D01*
X421720Y329236D01*
X421699Y329174D01*
X421668Y329115D01*
X421660Y329061D01*
X421648Y329024D01*
X421648Y329021D01*
X421649Y328984D01*
X421641Y328930D01*
X421641Y326390D01*
X421652Y326325D01*
X421654Y326259D01*
X421672Y326216D01*
X421680Y326169D01*
X421714Y326112D01*
X421739Y326052D01*
X421770Y326017D01*
X421795Y325976D01*
X421846Y325935D01*
X421890Y325886D01*
X421932Y325864D01*
X421969Y325835D01*
X422031Y325814D01*
X422090Y325783D01*
X422144Y325775D01*
X422181Y325763D01*
X422221Y325764D01*
X422275Y325756D01*
X426085Y325756D01*
X426150Y325767D01*
G37*
G36*
X167070Y325767D02*
X167070Y325767D01*
X167136Y325769D01*
X167179Y325787D01*
X167226Y325795D01*
X167283Y325829D01*
X167343Y325854D01*
X167378Y325885D01*
X167419Y325910D01*
X167461Y325961D01*
X167509Y326005D01*
X167531Y326047D01*
X167560Y326084D01*
X167581Y326146D01*
X167612Y326205D01*
X167620Y326259D01*
X167632Y326296D01*
X167631Y326336D01*
X167639Y326390D01*
X167639Y328930D01*
X167628Y328995D01*
X167626Y329061D01*
X167608Y329104D01*
X167600Y329151D01*
X167566Y329208D01*
X167541Y329268D01*
X167510Y329303D01*
X167485Y329344D01*
X167434Y329386D01*
X167390Y329434D01*
X167348Y329456D01*
X167311Y329485D01*
X167249Y329506D01*
X167190Y329537D01*
X167136Y329545D01*
X167099Y329557D01*
X167059Y329556D01*
X167005Y329564D01*
X163195Y329564D01*
X163130Y329553D01*
X163064Y329551D01*
X163021Y329533D01*
X162974Y329525D01*
X162917Y329491D01*
X162857Y329466D01*
X162822Y329435D01*
X162781Y329410D01*
X162740Y329359D01*
X162691Y329315D01*
X162669Y329273D01*
X162640Y329236D01*
X162619Y329174D01*
X162588Y329115D01*
X162580Y329061D01*
X162568Y329024D01*
X162568Y329021D01*
X162569Y328984D01*
X162561Y328930D01*
X162561Y326390D01*
X162572Y326325D01*
X162574Y326259D01*
X162592Y326216D01*
X162600Y326169D01*
X162634Y326112D01*
X162659Y326052D01*
X162690Y326017D01*
X162715Y325976D01*
X162766Y325935D01*
X162810Y325886D01*
X162852Y325864D01*
X162889Y325835D01*
X162951Y325814D01*
X163010Y325783D01*
X163064Y325775D01*
X163101Y325763D01*
X163141Y325764D01*
X163195Y325756D01*
X167005Y325756D01*
X167070Y325767D01*
G37*
G36*
X685230Y325767D02*
X685230Y325767D01*
X685296Y325769D01*
X685339Y325787D01*
X685386Y325795D01*
X685443Y325829D01*
X685503Y325854D01*
X685538Y325885D01*
X685579Y325910D01*
X685621Y325961D01*
X685669Y326005D01*
X685691Y326047D01*
X685720Y326084D01*
X685741Y326146D01*
X685772Y326205D01*
X685780Y326259D01*
X685792Y326296D01*
X685791Y326336D01*
X685799Y326390D01*
X685799Y328930D01*
X685788Y328995D01*
X685786Y329061D01*
X685768Y329104D01*
X685760Y329151D01*
X685726Y329208D01*
X685701Y329268D01*
X685670Y329303D01*
X685645Y329344D01*
X685594Y329386D01*
X685550Y329434D01*
X685508Y329456D01*
X685471Y329485D01*
X685409Y329506D01*
X685350Y329537D01*
X685296Y329545D01*
X685259Y329557D01*
X685219Y329556D01*
X685165Y329564D01*
X681355Y329564D01*
X681290Y329553D01*
X681224Y329551D01*
X681181Y329533D01*
X681134Y329525D01*
X681077Y329491D01*
X681017Y329466D01*
X680982Y329435D01*
X680941Y329410D01*
X680900Y329359D01*
X680851Y329315D01*
X680829Y329273D01*
X680800Y329236D01*
X680779Y329174D01*
X680748Y329115D01*
X680740Y329061D01*
X680728Y329024D01*
X680728Y329021D01*
X680729Y328984D01*
X680721Y328930D01*
X680721Y326390D01*
X680732Y326325D01*
X680734Y326259D01*
X680752Y326216D01*
X680760Y326169D01*
X680794Y326112D01*
X680819Y326052D01*
X680850Y326017D01*
X680875Y325976D01*
X680926Y325935D01*
X680970Y325886D01*
X681012Y325864D01*
X681049Y325835D01*
X681111Y325814D01*
X681170Y325783D01*
X681224Y325775D01*
X681261Y325763D01*
X681301Y325764D01*
X681355Y325756D01*
X685165Y325756D01*
X685230Y325767D01*
G37*
G36*
X1462470Y66687D02*
X1462470Y66687D01*
X1462536Y66689D01*
X1462579Y66707D01*
X1462626Y66715D01*
X1462683Y66749D01*
X1462743Y66774D01*
X1462778Y66805D01*
X1462819Y66830D01*
X1462861Y66881D01*
X1462909Y66925D01*
X1462931Y66967D01*
X1462960Y67004D01*
X1462981Y67066D01*
X1463012Y67125D01*
X1463020Y67179D01*
X1463032Y67216D01*
X1463031Y67256D01*
X1463039Y67310D01*
X1463039Y69850D01*
X1463028Y69915D01*
X1463026Y69981D01*
X1463008Y70024D01*
X1463000Y70071D01*
X1462966Y70128D01*
X1462941Y70188D01*
X1462910Y70223D01*
X1462885Y70264D01*
X1462834Y70306D01*
X1462790Y70354D01*
X1462748Y70376D01*
X1462711Y70405D01*
X1462649Y70426D01*
X1462590Y70457D01*
X1462536Y70465D01*
X1462499Y70477D01*
X1462459Y70476D01*
X1462405Y70484D01*
X1458595Y70484D01*
X1458530Y70473D01*
X1458464Y70471D01*
X1458421Y70453D01*
X1458374Y70445D01*
X1458317Y70411D01*
X1458257Y70386D01*
X1458222Y70355D01*
X1458181Y70330D01*
X1458140Y70279D01*
X1458091Y70235D01*
X1458069Y70193D01*
X1458040Y70156D01*
X1458019Y70094D01*
X1457988Y70035D01*
X1457980Y69981D01*
X1457968Y69944D01*
X1457968Y69941D01*
X1457969Y69904D01*
X1457961Y69850D01*
X1457961Y67310D01*
X1457972Y67245D01*
X1457974Y67179D01*
X1457992Y67136D01*
X1458000Y67089D01*
X1458034Y67032D01*
X1458059Y66972D01*
X1458090Y66937D01*
X1458115Y66896D01*
X1458166Y66855D01*
X1458210Y66806D01*
X1458252Y66784D01*
X1458289Y66755D01*
X1458351Y66734D01*
X1458410Y66703D01*
X1458464Y66695D01*
X1458501Y66683D01*
X1458541Y66684D01*
X1458595Y66676D01*
X1462405Y66676D01*
X1462470Y66687D01*
G37*
G36*
X1203390Y66687D02*
X1203390Y66687D01*
X1203456Y66689D01*
X1203499Y66707D01*
X1203546Y66715D01*
X1203603Y66749D01*
X1203663Y66774D01*
X1203698Y66805D01*
X1203739Y66830D01*
X1203781Y66881D01*
X1203829Y66925D01*
X1203851Y66967D01*
X1203880Y67004D01*
X1203901Y67066D01*
X1203932Y67125D01*
X1203940Y67179D01*
X1203952Y67216D01*
X1203951Y67256D01*
X1203959Y67310D01*
X1203959Y69850D01*
X1203948Y69915D01*
X1203946Y69981D01*
X1203928Y70024D01*
X1203920Y70071D01*
X1203886Y70128D01*
X1203861Y70188D01*
X1203830Y70223D01*
X1203805Y70264D01*
X1203754Y70306D01*
X1203710Y70354D01*
X1203668Y70376D01*
X1203631Y70405D01*
X1203569Y70426D01*
X1203510Y70457D01*
X1203456Y70465D01*
X1203419Y70477D01*
X1203379Y70476D01*
X1203325Y70484D01*
X1199515Y70484D01*
X1199450Y70473D01*
X1199384Y70471D01*
X1199341Y70453D01*
X1199294Y70445D01*
X1199237Y70411D01*
X1199177Y70386D01*
X1199142Y70355D01*
X1199101Y70330D01*
X1199060Y70279D01*
X1199011Y70235D01*
X1198989Y70193D01*
X1198960Y70156D01*
X1198939Y70094D01*
X1198908Y70035D01*
X1198900Y69981D01*
X1198888Y69944D01*
X1198888Y69941D01*
X1198889Y69904D01*
X1198881Y69850D01*
X1198881Y67310D01*
X1198892Y67245D01*
X1198894Y67179D01*
X1198912Y67136D01*
X1198920Y67089D01*
X1198954Y67032D01*
X1198979Y66972D01*
X1199010Y66937D01*
X1199035Y66896D01*
X1199086Y66855D01*
X1199130Y66806D01*
X1199172Y66784D01*
X1199209Y66755D01*
X1199271Y66734D01*
X1199330Y66703D01*
X1199384Y66695D01*
X1199421Y66683D01*
X1199461Y66684D01*
X1199515Y66676D01*
X1203325Y66676D01*
X1203390Y66687D01*
G37*
G36*
X944310Y66687D02*
X944310Y66687D01*
X944376Y66689D01*
X944419Y66707D01*
X944466Y66715D01*
X944523Y66749D01*
X944583Y66774D01*
X944618Y66805D01*
X944659Y66830D01*
X944701Y66881D01*
X944749Y66925D01*
X944771Y66967D01*
X944800Y67004D01*
X944821Y67066D01*
X944852Y67125D01*
X944860Y67179D01*
X944872Y67216D01*
X944871Y67256D01*
X944879Y67310D01*
X944879Y69850D01*
X944868Y69915D01*
X944866Y69981D01*
X944848Y70024D01*
X944840Y70071D01*
X944806Y70128D01*
X944781Y70188D01*
X944750Y70223D01*
X944725Y70264D01*
X944674Y70306D01*
X944630Y70354D01*
X944588Y70376D01*
X944551Y70405D01*
X944489Y70426D01*
X944430Y70457D01*
X944376Y70465D01*
X944339Y70477D01*
X944299Y70476D01*
X944245Y70484D01*
X940435Y70484D01*
X940370Y70473D01*
X940304Y70471D01*
X940261Y70453D01*
X940214Y70445D01*
X940157Y70411D01*
X940097Y70386D01*
X940062Y70355D01*
X940021Y70330D01*
X939980Y70279D01*
X939931Y70235D01*
X939909Y70193D01*
X939880Y70156D01*
X939859Y70094D01*
X939828Y70035D01*
X939820Y69981D01*
X939808Y69944D01*
X939808Y69941D01*
X939809Y69904D01*
X939801Y69850D01*
X939801Y67310D01*
X939812Y67245D01*
X939814Y67179D01*
X939832Y67136D01*
X939840Y67089D01*
X939874Y67032D01*
X939899Y66972D01*
X939930Y66937D01*
X939955Y66896D01*
X940006Y66855D01*
X940050Y66806D01*
X940092Y66784D01*
X940129Y66755D01*
X940191Y66734D01*
X940250Y66703D01*
X940304Y66695D01*
X940341Y66683D01*
X940381Y66684D01*
X940435Y66676D01*
X944245Y66676D01*
X944310Y66687D01*
G37*
G36*
X685230Y66687D02*
X685230Y66687D01*
X685296Y66689D01*
X685339Y66707D01*
X685386Y66715D01*
X685443Y66749D01*
X685503Y66774D01*
X685538Y66805D01*
X685579Y66830D01*
X685621Y66881D01*
X685669Y66925D01*
X685691Y66967D01*
X685720Y67004D01*
X685741Y67066D01*
X685772Y67125D01*
X685780Y67179D01*
X685792Y67216D01*
X685791Y67256D01*
X685799Y67310D01*
X685799Y69850D01*
X685788Y69915D01*
X685786Y69981D01*
X685768Y70024D01*
X685760Y70071D01*
X685726Y70128D01*
X685701Y70188D01*
X685670Y70223D01*
X685645Y70264D01*
X685594Y70306D01*
X685550Y70354D01*
X685508Y70376D01*
X685471Y70405D01*
X685409Y70426D01*
X685350Y70457D01*
X685296Y70465D01*
X685259Y70477D01*
X685219Y70476D01*
X685165Y70484D01*
X681355Y70484D01*
X681290Y70473D01*
X681224Y70471D01*
X681181Y70453D01*
X681134Y70445D01*
X681077Y70411D01*
X681017Y70386D01*
X680982Y70355D01*
X680941Y70330D01*
X680900Y70279D01*
X680851Y70235D01*
X680829Y70193D01*
X680800Y70156D01*
X680779Y70094D01*
X680748Y70035D01*
X680740Y69981D01*
X680728Y69944D01*
X680728Y69941D01*
X680729Y69904D01*
X680721Y69850D01*
X680721Y67310D01*
X680732Y67245D01*
X680734Y67179D01*
X680752Y67136D01*
X680760Y67089D01*
X680794Y67032D01*
X680819Y66972D01*
X680850Y66937D01*
X680875Y66896D01*
X680926Y66855D01*
X680970Y66806D01*
X681012Y66784D01*
X681049Y66755D01*
X681111Y66734D01*
X681170Y66703D01*
X681224Y66695D01*
X681261Y66683D01*
X681301Y66684D01*
X681355Y66676D01*
X685165Y66676D01*
X685230Y66687D01*
G37*
G36*
X426150Y66687D02*
X426150Y66687D01*
X426216Y66689D01*
X426259Y66707D01*
X426306Y66715D01*
X426363Y66749D01*
X426423Y66774D01*
X426458Y66805D01*
X426499Y66830D01*
X426541Y66881D01*
X426589Y66925D01*
X426611Y66967D01*
X426640Y67004D01*
X426661Y67066D01*
X426692Y67125D01*
X426700Y67179D01*
X426712Y67216D01*
X426711Y67256D01*
X426719Y67310D01*
X426719Y69850D01*
X426708Y69915D01*
X426706Y69981D01*
X426688Y70024D01*
X426680Y70071D01*
X426646Y70128D01*
X426621Y70188D01*
X426590Y70223D01*
X426565Y70264D01*
X426514Y70306D01*
X426470Y70354D01*
X426428Y70376D01*
X426391Y70405D01*
X426329Y70426D01*
X426270Y70457D01*
X426216Y70465D01*
X426179Y70477D01*
X426139Y70476D01*
X426085Y70484D01*
X422275Y70484D01*
X422210Y70473D01*
X422144Y70471D01*
X422101Y70453D01*
X422054Y70445D01*
X421997Y70411D01*
X421937Y70386D01*
X421902Y70355D01*
X421861Y70330D01*
X421820Y70279D01*
X421771Y70235D01*
X421749Y70193D01*
X421720Y70156D01*
X421699Y70094D01*
X421668Y70035D01*
X421660Y69981D01*
X421648Y69944D01*
X421648Y69941D01*
X421649Y69904D01*
X421641Y69850D01*
X421641Y67310D01*
X421652Y67245D01*
X421654Y67179D01*
X421672Y67136D01*
X421680Y67089D01*
X421714Y67032D01*
X421739Y66972D01*
X421770Y66937D01*
X421795Y66896D01*
X421846Y66855D01*
X421890Y66806D01*
X421932Y66784D01*
X421969Y66755D01*
X422031Y66734D01*
X422090Y66703D01*
X422144Y66695D01*
X422181Y66683D01*
X422221Y66684D01*
X422275Y66676D01*
X426085Y66676D01*
X426150Y66687D01*
G37*
G36*
X167070Y66687D02*
X167070Y66687D01*
X167136Y66689D01*
X167179Y66707D01*
X167226Y66715D01*
X167283Y66749D01*
X167343Y66774D01*
X167378Y66805D01*
X167419Y66830D01*
X167461Y66881D01*
X167509Y66925D01*
X167531Y66967D01*
X167560Y67004D01*
X167581Y67066D01*
X167612Y67125D01*
X167620Y67179D01*
X167632Y67216D01*
X167631Y67256D01*
X167639Y67310D01*
X167639Y69850D01*
X167628Y69915D01*
X167626Y69981D01*
X167608Y70024D01*
X167600Y70071D01*
X167566Y70128D01*
X167541Y70188D01*
X167510Y70223D01*
X167485Y70264D01*
X167434Y70306D01*
X167390Y70354D01*
X167348Y70376D01*
X167311Y70405D01*
X167249Y70426D01*
X167190Y70457D01*
X167136Y70465D01*
X167099Y70477D01*
X167059Y70476D01*
X167005Y70484D01*
X163195Y70484D01*
X163130Y70473D01*
X163064Y70471D01*
X163021Y70453D01*
X162974Y70445D01*
X162917Y70411D01*
X162857Y70386D01*
X162822Y70355D01*
X162781Y70330D01*
X162740Y70279D01*
X162691Y70235D01*
X162669Y70193D01*
X162640Y70156D01*
X162619Y70094D01*
X162588Y70035D01*
X162580Y69981D01*
X162568Y69944D01*
X162568Y69941D01*
X162569Y69904D01*
X162561Y69850D01*
X162561Y67310D01*
X162572Y67245D01*
X162574Y67179D01*
X162592Y67136D01*
X162600Y67089D01*
X162634Y67032D01*
X162659Y66972D01*
X162690Y66937D01*
X162715Y66896D01*
X162766Y66855D01*
X162810Y66806D01*
X162852Y66784D01*
X162889Y66755D01*
X162951Y66734D01*
X163010Y66703D01*
X163064Y66695D01*
X163101Y66683D01*
X163141Y66684D01*
X163195Y66676D01*
X167005Y66676D01*
X167070Y66687D01*
G37*
D10*
X108540Y197730D02*
X94660Y197730D01*
X94660Y236610D01*
X108540Y236610D01*
X108540Y197730D01*
X108540Y200242D02*
X94660Y200242D01*
X94660Y202754D02*
X108540Y202754D01*
X108540Y205266D02*
X94660Y205266D01*
X94660Y207778D02*
X108540Y207778D01*
X108540Y210290D02*
X94660Y210290D01*
X94660Y212802D02*
X108540Y212802D01*
X108540Y215314D02*
X94660Y215314D01*
X94660Y217826D02*
X108540Y217826D01*
X108540Y220338D02*
X94660Y220338D01*
X94660Y222850D02*
X108540Y222850D01*
X108540Y225362D02*
X94660Y225362D01*
X94660Y227874D02*
X108540Y227874D01*
X108540Y230386D02*
X94660Y230386D01*
X94660Y232898D02*
X108540Y232898D01*
X108540Y235410D02*
X94660Y235410D01*
X145460Y197730D02*
X159340Y197730D01*
X145460Y197730D02*
X145460Y236610D01*
X159340Y236610D01*
X159340Y197730D01*
X159340Y200242D02*
X145460Y200242D01*
X145460Y202754D02*
X159340Y202754D01*
X159340Y205266D02*
X145460Y205266D01*
X145460Y207778D02*
X159340Y207778D01*
X159340Y210290D02*
X145460Y210290D01*
X145460Y212802D02*
X159340Y212802D01*
X159340Y215314D02*
X145460Y215314D01*
X145460Y217826D02*
X159340Y217826D01*
X159340Y220338D02*
X145460Y220338D01*
X145460Y222850D02*
X159340Y222850D01*
X159340Y225362D02*
X145460Y225362D01*
X145460Y227874D02*
X159340Y227874D01*
X159340Y230386D02*
X145460Y230386D01*
X145460Y232898D02*
X159340Y232898D01*
X159340Y235410D02*
X145460Y235410D01*
X74424Y48317D02*
X84239Y38502D01*
X56748Y11011D01*
X46933Y20826D01*
X74424Y48317D01*
X59260Y13523D02*
X54236Y13523D01*
X51724Y16035D02*
X61772Y16035D01*
X64284Y18547D02*
X49212Y18547D01*
X47166Y21059D02*
X66796Y21059D01*
X69308Y23571D02*
X49678Y23571D01*
X52190Y26083D02*
X71820Y26083D01*
X74332Y28595D02*
X54702Y28595D01*
X57214Y31107D02*
X76844Y31107D01*
X79356Y33619D02*
X59726Y33619D01*
X62238Y36131D02*
X81868Y36131D01*
X84098Y38643D02*
X64750Y38643D01*
X67262Y41155D02*
X81586Y41155D01*
X79074Y43667D02*
X69774Y43667D01*
X72286Y46179D02*
X76562Y46179D01*
X48317Y74424D02*
X38502Y84239D01*
X48317Y74424D02*
X20826Y46933D01*
X11011Y56748D01*
X38502Y84239D01*
X23338Y49445D02*
X18314Y49445D01*
X15802Y51957D02*
X25850Y51957D01*
X28362Y54469D02*
X13290Y54469D01*
X11244Y56981D02*
X30874Y56981D01*
X33386Y59493D02*
X13756Y59493D01*
X16268Y62005D02*
X35898Y62005D01*
X38410Y64517D02*
X18780Y64517D01*
X21292Y67029D02*
X40922Y67029D01*
X43434Y69541D02*
X23804Y69541D01*
X26316Y72053D02*
X45946Y72053D01*
X48176Y74565D02*
X28828Y74565D01*
X31340Y77077D02*
X45664Y77077D01*
X43152Y79589D02*
X33852Y79589D01*
X36364Y82101D02*
X40640Y82101D01*
X205683Y74424D02*
X215498Y84239D01*
X242989Y56748D01*
X233174Y46933D01*
X205683Y74424D01*
X230662Y49445D02*
X235686Y49445D01*
X238198Y51957D02*
X228150Y51957D01*
X225638Y54469D02*
X240710Y54469D01*
X242756Y56981D02*
X223126Y56981D01*
X220614Y59493D02*
X240244Y59493D01*
X237732Y62005D02*
X218102Y62005D01*
X215590Y64517D02*
X235220Y64517D01*
X232708Y67029D02*
X213078Y67029D01*
X210566Y69541D02*
X230196Y69541D01*
X227684Y72053D02*
X208054Y72053D01*
X205824Y74565D02*
X225172Y74565D01*
X222660Y77077D02*
X208336Y77077D01*
X210848Y79589D02*
X220148Y79589D01*
X217636Y82101D02*
X213360Y82101D01*
X179576Y48317D02*
X169761Y38502D01*
X179576Y48317D02*
X207067Y20826D01*
X197252Y11011D01*
X169761Y38502D01*
X194740Y13523D02*
X199764Y13523D01*
X202276Y16035D02*
X192228Y16035D01*
X189716Y18547D02*
X204788Y18547D01*
X206834Y21059D02*
X187204Y21059D01*
X184692Y23571D02*
X204322Y23571D01*
X201810Y26083D02*
X182180Y26083D01*
X179668Y28595D02*
X199298Y28595D01*
X196786Y31107D02*
X177156Y31107D01*
X174644Y33619D02*
X194274Y33619D01*
X191762Y36131D02*
X172132Y36131D01*
X169902Y38643D02*
X189250Y38643D01*
X186738Y41155D02*
X172414Y41155D01*
X174926Y43667D02*
X184226Y43667D01*
X181714Y46179D02*
X177438Y46179D01*
D11*
X162697Y62728D02*
X157089Y62728D01*
X157089Y74432D01*
X162697Y74432D01*
X162697Y62728D01*
X162697Y65122D02*
X157089Y65122D01*
X157089Y67516D02*
X162697Y67516D01*
X162697Y69910D02*
X157089Y69910D01*
X157089Y72304D02*
X162697Y72304D01*
X167503Y62728D02*
X173111Y62728D01*
X167503Y62728D02*
X167503Y74432D01*
X173111Y74432D01*
X173111Y62728D01*
X173111Y65122D02*
X167503Y65122D01*
X167503Y67516D02*
X173111Y67516D01*
X173111Y69910D02*
X167503Y69910D01*
X167503Y72304D02*
X173111Y72304D01*
X87513Y62728D02*
X82159Y62728D01*
X82159Y74432D01*
X87513Y74432D01*
X87513Y62728D01*
X87513Y65122D02*
X82159Y65122D01*
X82159Y67516D02*
X87513Y67516D01*
X87513Y69910D02*
X82159Y69910D01*
X82159Y72304D02*
X87513Y72304D01*
X90287Y62728D02*
X95641Y62728D01*
X90287Y62728D02*
X90287Y74432D01*
X95641Y74432D01*
X95641Y62728D01*
X95641Y65122D02*
X90287Y65122D01*
X90287Y67516D02*
X95641Y67516D01*
X95641Y69910D02*
X90287Y69910D01*
X90287Y72304D02*
X95641Y72304D01*
D12*
X241300Y114300D03*
X241300Y139700D03*
D13*
X12700Y203200D03*
X241300Y88900D03*
D14*
X228600Y228600D03*
X25400Y228600D03*
D11*
X64379Y155438D02*
X69733Y155438D01*
X64379Y155438D02*
X64379Y167142D01*
X69733Y167142D01*
X69733Y155438D01*
X69733Y157832D02*
X64379Y157832D01*
X64379Y160226D02*
X69733Y160226D01*
X69733Y162620D02*
X64379Y162620D01*
X64379Y165014D02*
X69733Y165014D01*
X72507Y155438D02*
X77861Y155438D01*
X72507Y155438D02*
X72507Y167142D01*
X77861Y167142D01*
X77861Y155438D01*
X77861Y157832D02*
X72507Y157832D01*
X72507Y160226D02*
X77861Y160226D01*
X77861Y162620D02*
X72507Y162620D01*
X72507Y165014D02*
X77861Y165014D01*
D10*
X353740Y197730D02*
X367620Y197730D01*
X353740Y197730D02*
X353740Y236610D01*
X367620Y236610D01*
X367620Y197730D01*
X367620Y200242D02*
X353740Y200242D01*
X353740Y202754D02*
X367620Y202754D01*
X367620Y205266D02*
X353740Y205266D01*
X353740Y207778D02*
X367620Y207778D01*
X367620Y210290D02*
X353740Y210290D01*
X353740Y212802D02*
X367620Y212802D01*
X367620Y215314D02*
X353740Y215314D01*
X353740Y217826D02*
X367620Y217826D01*
X367620Y220338D02*
X353740Y220338D01*
X353740Y222850D02*
X367620Y222850D01*
X367620Y225362D02*
X353740Y225362D01*
X353740Y227874D02*
X367620Y227874D01*
X367620Y230386D02*
X353740Y230386D01*
X353740Y232898D02*
X367620Y232898D01*
X367620Y235410D02*
X353740Y235410D01*
X404540Y197730D02*
X418420Y197730D01*
X404540Y197730D02*
X404540Y236610D01*
X418420Y236610D01*
X418420Y197730D01*
X418420Y200242D02*
X404540Y200242D01*
X404540Y202754D02*
X418420Y202754D01*
X418420Y205266D02*
X404540Y205266D01*
X404540Y207778D02*
X418420Y207778D01*
X418420Y210290D02*
X404540Y210290D01*
X404540Y212802D02*
X418420Y212802D01*
X418420Y215314D02*
X404540Y215314D01*
X404540Y217826D02*
X418420Y217826D01*
X418420Y220338D02*
X404540Y220338D01*
X404540Y222850D02*
X418420Y222850D01*
X418420Y225362D02*
X404540Y225362D01*
X404540Y227874D02*
X418420Y227874D01*
X418420Y230386D02*
X404540Y230386D01*
X404540Y232898D02*
X418420Y232898D01*
X418420Y235410D02*
X404540Y235410D01*
X333504Y48317D02*
X343319Y38502D01*
X315828Y11011D01*
X306013Y20826D01*
X333504Y48317D01*
X318340Y13523D02*
X313316Y13523D01*
X310804Y16035D02*
X320852Y16035D01*
X323364Y18547D02*
X308292Y18547D01*
X306246Y21059D02*
X325876Y21059D01*
X328388Y23571D02*
X308758Y23571D01*
X311270Y26083D02*
X330900Y26083D01*
X333412Y28595D02*
X313782Y28595D01*
X316294Y31107D02*
X335924Y31107D01*
X338436Y33619D02*
X318806Y33619D01*
X321318Y36131D02*
X340948Y36131D01*
X343178Y38643D02*
X323830Y38643D01*
X326342Y41155D02*
X340666Y41155D01*
X338154Y43667D02*
X328854Y43667D01*
X331366Y46179D02*
X335642Y46179D01*
X307397Y74424D02*
X297582Y84239D01*
X307397Y74424D02*
X279906Y46933D01*
X270091Y56748D01*
X297582Y84239D01*
X282418Y49445D02*
X277394Y49445D01*
X274882Y51957D02*
X284930Y51957D01*
X287442Y54469D02*
X272370Y54469D01*
X270324Y56981D02*
X289954Y56981D01*
X292466Y59493D02*
X272836Y59493D01*
X275348Y62005D02*
X294978Y62005D01*
X297490Y64517D02*
X277860Y64517D01*
X280372Y67029D02*
X300002Y67029D01*
X302514Y69541D02*
X282884Y69541D01*
X285396Y72053D02*
X305026Y72053D01*
X307256Y74565D02*
X287908Y74565D01*
X290420Y77077D02*
X304744Y77077D01*
X302232Y79589D02*
X292932Y79589D01*
X295444Y82101D02*
X299720Y82101D01*
X464763Y74424D02*
X474578Y84239D01*
X502069Y56748D01*
X492254Y46933D01*
X464763Y74424D01*
X489742Y49445D02*
X494766Y49445D01*
X497278Y51957D02*
X487230Y51957D01*
X484718Y54469D02*
X499790Y54469D01*
X501836Y56981D02*
X482206Y56981D01*
X479694Y59493D02*
X499324Y59493D01*
X496812Y62005D02*
X477182Y62005D01*
X474670Y64517D02*
X494300Y64517D01*
X491788Y67029D02*
X472158Y67029D01*
X469646Y69541D02*
X489276Y69541D01*
X486764Y72053D02*
X467134Y72053D01*
X464904Y74565D02*
X484252Y74565D01*
X481740Y77077D02*
X467416Y77077D01*
X469928Y79589D02*
X479228Y79589D01*
X476716Y82101D02*
X472440Y82101D01*
X438656Y48317D02*
X428841Y38502D01*
X438656Y48317D02*
X466147Y20826D01*
X456332Y11011D01*
X428841Y38502D01*
X453820Y13523D02*
X458844Y13523D01*
X461356Y16035D02*
X451308Y16035D01*
X448796Y18547D02*
X463868Y18547D01*
X465914Y21059D02*
X446284Y21059D01*
X443772Y23571D02*
X463402Y23571D01*
X460890Y26083D02*
X441260Y26083D01*
X438748Y28595D02*
X458378Y28595D01*
X455866Y31107D02*
X436236Y31107D01*
X433724Y33619D02*
X453354Y33619D01*
X450842Y36131D02*
X431212Y36131D01*
X428982Y38643D02*
X448330Y38643D01*
X445818Y41155D02*
X431494Y41155D01*
X434006Y43667D02*
X443306Y43667D01*
X440794Y46179D02*
X436518Y46179D01*
D11*
X421777Y62728D02*
X416169Y62728D01*
X416169Y74432D01*
X421777Y74432D01*
X421777Y62728D01*
X421777Y65122D02*
X416169Y65122D01*
X416169Y67516D02*
X421777Y67516D01*
X421777Y69910D02*
X416169Y69910D01*
X416169Y72304D02*
X421777Y72304D01*
X426583Y62728D02*
X432191Y62728D01*
X426583Y62728D02*
X426583Y74432D01*
X432191Y74432D01*
X432191Y62728D01*
X432191Y65122D02*
X426583Y65122D01*
X426583Y67516D02*
X432191Y67516D01*
X432191Y69910D02*
X426583Y69910D01*
X426583Y72304D02*
X432191Y72304D01*
X346593Y62728D02*
X341239Y62728D01*
X341239Y74432D01*
X346593Y74432D01*
X346593Y62728D01*
X346593Y65122D02*
X341239Y65122D01*
X341239Y67516D02*
X346593Y67516D01*
X346593Y69910D02*
X341239Y69910D01*
X341239Y72304D02*
X346593Y72304D01*
X349367Y62728D02*
X354721Y62728D01*
X349367Y62728D02*
X349367Y74432D01*
X354721Y74432D01*
X354721Y62728D01*
X354721Y65122D02*
X349367Y65122D01*
X349367Y67516D02*
X354721Y67516D01*
X354721Y69910D02*
X349367Y69910D01*
X349367Y72304D02*
X354721Y72304D01*
D12*
X500380Y114300D03*
X500380Y139700D03*
D13*
X271780Y203200D03*
X500380Y88900D03*
D14*
X487680Y228600D03*
X284480Y228600D03*
D11*
X323459Y155438D02*
X328813Y155438D01*
X323459Y155438D02*
X323459Y167142D01*
X328813Y167142D01*
X328813Y155438D01*
X328813Y157832D02*
X323459Y157832D01*
X323459Y160226D02*
X328813Y160226D01*
X328813Y162620D02*
X323459Y162620D01*
X323459Y165014D02*
X328813Y165014D01*
X331587Y155438D02*
X336941Y155438D01*
X331587Y155438D02*
X331587Y167142D01*
X336941Y167142D01*
X336941Y155438D01*
X336941Y157832D02*
X331587Y157832D01*
X331587Y160226D02*
X336941Y160226D01*
X336941Y162620D02*
X331587Y162620D01*
X331587Y165014D02*
X336941Y165014D01*
D10*
X612820Y197730D02*
X626700Y197730D01*
X612820Y197730D02*
X612820Y236610D01*
X626700Y236610D01*
X626700Y197730D01*
X626700Y200242D02*
X612820Y200242D01*
X612820Y202754D02*
X626700Y202754D01*
X626700Y205266D02*
X612820Y205266D01*
X612820Y207778D02*
X626700Y207778D01*
X626700Y210290D02*
X612820Y210290D01*
X612820Y212802D02*
X626700Y212802D01*
X626700Y215314D02*
X612820Y215314D01*
X612820Y217826D02*
X626700Y217826D01*
X626700Y220338D02*
X612820Y220338D01*
X612820Y222850D02*
X626700Y222850D01*
X626700Y225362D02*
X612820Y225362D01*
X612820Y227874D02*
X626700Y227874D01*
X626700Y230386D02*
X612820Y230386D01*
X612820Y232898D02*
X626700Y232898D01*
X626700Y235410D02*
X612820Y235410D01*
X663620Y197730D02*
X677500Y197730D01*
X663620Y197730D02*
X663620Y236610D01*
X677500Y236610D01*
X677500Y197730D01*
X677500Y200242D02*
X663620Y200242D01*
X663620Y202754D02*
X677500Y202754D01*
X677500Y205266D02*
X663620Y205266D01*
X663620Y207778D02*
X677500Y207778D01*
X677500Y210290D02*
X663620Y210290D01*
X663620Y212802D02*
X677500Y212802D01*
X677500Y215314D02*
X663620Y215314D01*
X663620Y217826D02*
X677500Y217826D01*
X677500Y220338D02*
X663620Y220338D01*
X663620Y222850D02*
X677500Y222850D01*
X677500Y225362D02*
X663620Y225362D01*
X663620Y227874D02*
X677500Y227874D01*
X677500Y230386D02*
X663620Y230386D01*
X663620Y232898D02*
X677500Y232898D01*
X677500Y235410D02*
X663620Y235410D01*
X592584Y48317D02*
X602399Y38502D01*
X574908Y11011D01*
X565093Y20826D01*
X592584Y48317D01*
X577420Y13523D02*
X572396Y13523D01*
X569884Y16035D02*
X579932Y16035D01*
X582444Y18547D02*
X567372Y18547D01*
X565326Y21059D02*
X584956Y21059D01*
X587468Y23571D02*
X567838Y23571D01*
X570350Y26083D02*
X589980Y26083D01*
X592492Y28595D02*
X572862Y28595D01*
X575374Y31107D02*
X595004Y31107D01*
X597516Y33619D02*
X577886Y33619D01*
X580398Y36131D02*
X600028Y36131D01*
X602258Y38643D02*
X582910Y38643D01*
X585422Y41155D02*
X599746Y41155D01*
X597234Y43667D02*
X587934Y43667D01*
X590446Y46179D02*
X594722Y46179D01*
X566477Y74424D02*
X556662Y84239D01*
X566477Y74424D02*
X538986Y46933D01*
X529171Y56748D01*
X556662Y84239D01*
X541498Y49445D02*
X536474Y49445D01*
X533962Y51957D02*
X544010Y51957D01*
X546522Y54469D02*
X531450Y54469D01*
X529404Y56981D02*
X549034Y56981D01*
X551546Y59493D02*
X531916Y59493D01*
X534428Y62005D02*
X554058Y62005D01*
X556570Y64517D02*
X536940Y64517D01*
X539452Y67029D02*
X559082Y67029D01*
X561594Y69541D02*
X541964Y69541D01*
X544476Y72053D02*
X564106Y72053D01*
X566336Y74565D02*
X546988Y74565D01*
X549500Y77077D02*
X563824Y77077D01*
X561312Y79589D02*
X552012Y79589D01*
X554524Y82101D02*
X558800Y82101D01*
X723843Y74424D02*
X733658Y84239D01*
X761149Y56748D01*
X751334Y46933D01*
X723843Y74424D01*
X748822Y49445D02*
X753846Y49445D01*
X756358Y51957D02*
X746310Y51957D01*
X743798Y54469D02*
X758870Y54469D01*
X760916Y56981D02*
X741286Y56981D01*
X738774Y59493D02*
X758404Y59493D01*
X755892Y62005D02*
X736262Y62005D01*
X733750Y64517D02*
X753380Y64517D01*
X750868Y67029D02*
X731238Y67029D01*
X728726Y69541D02*
X748356Y69541D01*
X745844Y72053D02*
X726214Y72053D01*
X723984Y74565D02*
X743332Y74565D01*
X740820Y77077D02*
X726496Y77077D01*
X729008Y79589D02*
X738308Y79589D01*
X735796Y82101D02*
X731520Y82101D01*
X697736Y48317D02*
X687921Y38502D01*
X697736Y48317D02*
X725227Y20826D01*
X715412Y11011D01*
X687921Y38502D01*
X712900Y13523D02*
X717924Y13523D01*
X720436Y16035D02*
X710388Y16035D01*
X707876Y18547D02*
X722948Y18547D01*
X724994Y21059D02*
X705364Y21059D01*
X702852Y23571D02*
X722482Y23571D01*
X719970Y26083D02*
X700340Y26083D01*
X697828Y28595D02*
X717458Y28595D01*
X714946Y31107D02*
X695316Y31107D01*
X692804Y33619D02*
X712434Y33619D01*
X709922Y36131D02*
X690292Y36131D01*
X688062Y38643D02*
X707410Y38643D01*
X704898Y41155D02*
X690574Y41155D01*
X693086Y43667D02*
X702386Y43667D01*
X699874Y46179D02*
X695598Y46179D01*
D11*
X680857Y62728D02*
X675249Y62728D01*
X675249Y74432D01*
X680857Y74432D01*
X680857Y62728D01*
X680857Y65122D02*
X675249Y65122D01*
X675249Y67516D02*
X680857Y67516D01*
X680857Y69910D02*
X675249Y69910D01*
X675249Y72304D02*
X680857Y72304D01*
X685663Y62728D02*
X691271Y62728D01*
X685663Y62728D02*
X685663Y74432D01*
X691271Y74432D01*
X691271Y62728D01*
X691271Y65122D02*
X685663Y65122D01*
X685663Y67516D02*
X691271Y67516D01*
X691271Y69910D02*
X685663Y69910D01*
X685663Y72304D02*
X691271Y72304D01*
X605673Y62728D02*
X600319Y62728D01*
X600319Y74432D01*
X605673Y74432D01*
X605673Y62728D01*
X605673Y65122D02*
X600319Y65122D01*
X600319Y67516D02*
X605673Y67516D01*
X605673Y69910D02*
X600319Y69910D01*
X600319Y72304D02*
X605673Y72304D01*
X608447Y62728D02*
X613801Y62728D01*
X608447Y62728D02*
X608447Y74432D01*
X613801Y74432D01*
X613801Y62728D01*
X613801Y65122D02*
X608447Y65122D01*
X608447Y67516D02*
X613801Y67516D01*
X613801Y69910D02*
X608447Y69910D01*
X608447Y72304D02*
X613801Y72304D01*
D12*
X759460Y114300D03*
X759460Y139700D03*
D13*
X530860Y203200D03*
X759460Y88900D03*
D14*
X746760Y228600D03*
X543560Y228600D03*
D11*
X582539Y155438D02*
X587893Y155438D01*
X582539Y155438D02*
X582539Y167142D01*
X587893Y167142D01*
X587893Y155438D01*
X587893Y157832D02*
X582539Y157832D01*
X582539Y160226D02*
X587893Y160226D01*
X587893Y162620D02*
X582539Y162620D01*
X582539Y165014D02*
X587893Y165014D01*
X590667Y155438D02*
X596021Y155438D01*
X590667Y155438D02*
X590667Y167142D01*
X596021Y167142D01*
X596021Y155438D01*
X596021Y157832D02*
X590667Y157832D01*
X590667Y160226D02*
X596021Y160226D01*
X596021Y162620D02*
X590667Y162620D01*
X590667Y165014D02*
X596021Y165014D01*
D10*
X871900Y197730D02*
X885780Y197730D01*
X871900Y197730D02*
X871900Y236610D01*
X885780Y236610D01*
X885780Y197730D01*
X885780Y200242D02*
X871900Y200242D01*
X871900Y202754D02*
X885780Y202754D01*
X885780Y205266D02*
X871900Y205266D01*
X871900Y207778D02*
X885780Y207778D01*
X885780Y210290D02*
X871900Y210290D01*
X871900Y212802D02*
X885780Y212802D01*
X885780Y215314D02*
X871900Y215314D01*
X871900Y217826D02*
X885780Y217826D01*
X885780Y220338D02*
X871900Y220338D01*
X871900Y222850D02*
X885780Y222850D01*
X885780Y225362D02*
X871900Y225362D01*
X871900Y227874D02*
X885780Y227874D01*
X885780Y230386D02*
X871900Y230386D01*
X871900Y232898D02*
X885780Y232898D01*
X885780Y235410D02*
X871900Y235410D01*
X922700Y197730D02*
X936580Y197730D01*
X922700Y197730D02*
X922700Y236610D01*
X936580Y236610D01*
X936580Y197730D01*
X936580Y200242D02*
X922700Y200242D01*
X922700Y202754D02*
X936580Y202754D01*
X936580Y205266D02*
X922700Y205266D01*
X922700Y207778D02*
X936580Y207778D01*
X936580Y210290D02*
X922700Y210290D01*
X922700Y212802D02*
X936580Y212802D01*
X936580Y215314D02*
X922700Y215314D01*
X922700Y217826D02*
X936580Y217826D01*
X936580Y220338D02*
X922700Y220338D01*
X922700Y222850D02*
X936580Y222850D01*
X936580Y225362D02*
X922700Y225362D01*
X922700Y227874D02*
X936580Y227874D01*
X936580Y230386D02*
X922700Y230386D01*
X922700Y232898D02*
X936580Y232898D01*
X936580Y235410D02*
X922700Y235410D01*
X851664Y48317D02*
X861479Y38502D01*
X833988Y11011D01*
X824173Y20826D01*
X851664Y48317D01*
X836500Y13523D02*
X831476Y13523D01*
X828964Y16035D02*
X839012Y16035D01*
X841524Y18547D02*
X826452Y18547D01*
X824406Y21059D02*
X844036Y21059D01*
X846548Y23571D02*
X826918Y23571D01*
X829430Y26083D02*
X849060Y26083D01*
X851572Y28595D02*
X831942Y28595D01*
X834454Y31107D02*
X854084Y31107D01*
X856596Y33619D02*
X836966Y33619D01*
X839478Y36131D02*
X859108Y36131D01*
X861338Y38643D02*
X841990Y38643D01*
X844502Y41155D02*
X858826Y41155D01*
X856314Y43667D02*
X847014Y43667D01*
X849526Y46179D02*
X853802Y46179D01*
X825557Y74424D02*
X815742Y84239D01*
X825557Y74424D02*
X798066Y46933D01*
X788251Y56748D01*
X815742Y84239D01*
X800578Y49445D02*
X795554Y49445D01*
X793042Y51957D02*
X803090Y51957D01*
X805602Y54469D02*
X790530Y54469D01*
X788484Y56981D02*
X808114Y56981D01*
X810626Y59493D02*
X790996Y59493D01*
X793508Y62005D02*
X813138Y62005D01*
X815650Y64517D02*
X796020Y64517D01*
X798532Y67029D02*
X818162Y67029D01*
X820674Y69541D02*
X801044Y69541D01*
X803556Y72053D02*
X823186Y72053D01*
X825416Y74565D02*
X806068Y74565D01*
X808580Y77077D02*
X822904Y77077D01*
X820392Y79589D02*
X811092Y79589D01*
X813604Y82101D02*
X817880Y82101D01*
X982923Y74424D02*
X992738Y84239D01*
X1020229Y56748D01*
X1010414Y46933D01*
X982923Y74424D01*
X1007902Y49445D02*
X1012926Y49445D01*
X1015438Y51957D02*
X1005390Y51957D01*
X1002878Y54469D02*
X1017950Y54469D01*
X1019996Y56981D02*
X1000366Y56981D01*
X997854Y59493D02*
X1017484Y59493D01*
X1014972Y62005D02*
X995342Y62005D01*
X992830Y64517D02*
X1012460Y64517D01*
X1009948Y67029D02*
X990318Y67029D01*
X987806Y69541D02*
X1007436Y69541D01*
X1004924Y72053D02*
X985294Y72053D01*
X983064Y74565D02*
X1002412Y74565D01*
X999900Y77077D02*
X985576Y77077D01*
X988088Y79589D02*
X997388Y79589D01*
X994876Y82101D02*
X990600Y82101D01*
X956816Y48317D02*
X947001Y38502D01*
X956816Y48317D02*
X984307Y20826D01*
X974492Y11011D01*
X947001Y38502D01*
X971980Y13523D02*
X977004Y13523D01*
X979516Y16035D02*
X969468Y16035D01*
X966956Y18547D02*
X982028Y18547D01*
X984074Y21059D02*
X964444Y21059D01*
X961932Y23571D02*
X981562Y23571D01*
X979050Y26083D02*
X959420Y26083D01*
X956908Y28595D02*
X976538Y28595D01*
X974026Y31107D02*
X954396Y31107D01*
X951884Y33619D02*
X971514Y33619D01*
X969002Y36131D02*
X949372Y36131D01*
X947142Y38643D02*
X966490Y38643D01*
X963978Y41155D02*
X949654Y41155D01*
X952166Y43667D02*
X961466Y43667D01*
X958954Y46179D02*
X954678Y46179D01*
D11*
X939937Y62728D02*
X934329Y62728D01*
X934329Y74432D01*
X939937Y74432D01*
X939937Y62728D01*
X939937Y65122D02*
X934329Y65122D01*
X934329Y67516D02*
X939937Y67516D01*
X939937Y69910D02*
X934329Y69910D01*
X934329Y72304D02*
X939937Y72304D01*
X944743Y62728D02*
X950351Y62728D01*
X944743Y62728D02*
X944743Y74432D01*
X950351Y74432D01*
X950351Y62728D01*
X950351Y65122D02*
X944743Y65122D01*
X944743Y67516D02*
X950351Y67516D01*
X950351Y69910D02*
X944743Y69910D01*
X944743Y72304D02*
X950351Y72304D01*
X864753Y62728D02*
X859399Y62728D01*
X859399Y74432D01*
X864753Y74432D01*
X864753Y62728D01*
X864753Y65122D02*
X859399Y65122D01*
X859399Y67516D02*
X864753Y67516D01*
X864753Y69910D02*
X859399Y69910D01*
X859399Y72304D02*
X864753Y72304D01*
X867527Y62728D02*
X872881Y62728D01*
X867527Y62728D02*
X867527Y74432D01*
X872881Y74432D01*
X872881Y62728D01*
X872881Y65122D02*
X867527Y65122D01*
X867527Y67516D02*
X872881Y67516D01*
X872881Y69910D02*
X867527Y69910D01*
X867527Y72304D02*
X872881Y72304D01*
D12*
X1018540Y114300D03*
X1018540Y139700D03*
D13*
X789940Y203200D03*
X1018540Y88900D03*
D14*
X1005840Y228600D03*
X802640Y228600D03*
D11*
X841619Y155438D02*
X846973Y155438D01*
X841619Y155438D02*
X841619Y167142D01*
X846973Y167142D01*
X846973Y155438D01*
X846973Y157832D02*
X841619Y157832D01*
X841619Y160226D02*
X846973Y160226D01*
X846973Y162620D02*
X841619Y162620D01*
X841619Y165014D02*
X846973Y165014D01*
X849747Y155438D02*
X855101Y155438D01*
X849747Y155438D02*
X849747Y167142D01*
X855101Y167142D01*
X855101Y155438D01*
X855101Y157832D02*
X849747Y157832D01*
X849747Y160226D02*
X855101Y160226D01*
X855101Y162620D02*
X849747Y162620D01*
X849747Y165014D02*
X855101Y165014D01*
D10*
X1130980Y197730D02*
X1144860Y197730D01*
X1130980Y197730D02*
X1130980Y236610D01*
X1144860Y236610D01*
X1144860Y197730D01*
X1144860Y200242D02*
X1130980Y200242D01*
X1130980Y202754D02*
X1144860Y202754D01*
X1144860Y205266D02*
X1130980Y205266D01*
X1130980Y207778D02*
X1144860Y207778D01*
X1144860Y210290D02*
X1130980Y210290D01*
X1130980Y212802D02*
X1144860Y212802D01*
X1144860Y215314D02*
X1130980Y215314D01*
X1130980Y217826D02*
X1144860Y217826D01*
X1144860Y220338D02*
X1130980Y220338D01*
X1130980Y222850D02*
X1144860Y222850D01*
X1144860Y225362D02*
X1130980Y225362D01*
X1130980Y227874D02*
X1144860Y227874D01*
X1144860Y230386D02*
X1130980Y230386D01*
X1130980Y232898D02*
X1144860Y232898D01*
X1144860Y235410D02*
X1130980Y235410D01*
X1181780Y197730D02*
X1195660Y197730D01*
X1181780Y197730D02*
X1181780Y236610D01*
X1195660Y236610D01*
X1195660Y197730D01*
X1195660Y200242D02*
X1181780Y200242D01*
X1181780Y202754D02*
X1195660Y202754D01*
X1195660Y205266D02*
X1181780Y205266D01*
X1181780Y207778D02*
X1195660Y207778D01*
X1195660Y210290D02*
X1181780Y210290D01*
X1181780Y212802D02*
X1195660Y212802D01*
X1195660Y215314D02*
X1181780Y215314D01*
X1181780Y217826D02*
X1195660Y217826D01*
X1195660Y220338D02*
X1181780Y220338D01*
X1181780Y222850D02*
X1195660Y222850D01*
X1195660Y225362D02*
X1181780Y225362D01*
X1181780Y227874D02*
X1195660Y227874D01*
X1195660Y230386D02*
X1181780Y230386D01*
X1181780Y232898D02*
X1195660Y232898D01*
X1195660Y235410D02*
X1181780Y235410D01*
X1110744Y48317D02*
X1120559Y38502D01*
X1093068Y11011D01*
X1083253Y20826D01*
X1110744Y48317D01*
X1095580Y13523D02*
X1090556Y13523D01*
X1088044Y16035D02*
X1098092Y16035D01*
X1100604Y18547D02*
X1085532Y18547D01*
X1083486Y21059D02*
X1103116Y21059D01*
X1105628Y23571D02*
X1085998Y23571D01*
X1088510Y26083D02*
X1108140Y26083D01*
X1110652Y28595D02*
X1091022Y28595D01*
X1093534Y31107D02*
X1113164Y31107D01*
X1115676Y33619D02*
X1096046Y33619D01*
X1098558Y36131D02*
X1118188Y36131D01*
X1120418Y38643D02*
X1101070Y38643D01*
X1103582Y41155D02*
X1117906Y41155D01*
X1115394Y43667D02*
X1106094Y43667D01*
X1108606Y46179D02*
X1112882Y46179D01*
X1084637Y74424D02*
X1074822Y84239D01*
X1084637Y74424D02*
X1057146Y46933D01*
X1047331Y56748D01*
X1074822Y84239D01*
X1059658Y49445D02*
X1054634Y49445D01*
X1052122Y51957D02*
X1062170Y51957D01*
X1064682Y54469D02*
X1049610Y54469D01*
X1047564Y56981D02*
X1067194Y56981D01*
X1069706Y59493D02*
X1050076Y59493D01*
X1052588Y62005D02*
X1072218Y62005D01*
X1074730Y64517D02*
X1055100Y64517D01*
X1057612Y67029D02*
X1077242Y67029D01*
X1079754Y69541D02*
X1060124Y69541D01*
X1062636Y72053D02*
X1082266Y72053D01*
X1084496Y74565D02*
X1065148Y74565D01*
X1067660Y77077D02*
X1081984Y77077D01*
X1079472Y79589D02*
X1070172Y79589D01*
X1072684Y82101D02*
X1076960Y82101D01*
X1242003Y74424D02*
X1251818Y84239D01*
X1279309Y56748D01*
X1269494Y46933D01*
X1242003Y74424D01*
X1266982Y49445D02*
X1272006Y49445D01*
X1274518Y51957D02*
X1264470Y51957D01*
X1261958Y54469D02*
X1277030Y54469D01*
X1279076Y56981D02*
X1259446Y56981D01*
X1256934Y59493D02*
X1276564Y59493D01*
X1274052Y62005D02*
X1254422Y62005D01*
X1251910Y64517D02*
X1271540Y64517D01*
X1269028Y67029D02*
X1249398Y67029D01*
X1246886Y69541D02*
X1266516Y69541D01*
X1264004Y72053D02*
X1244374Y72053D01*
X1242144Y74565D02*
X1261492Y74565D01*
X1258980Y77077D02*
X1244656Y77077D01*
X1247168Y79589D02*
X1256468Y79589D01*
X1253956Y82101D02*
X1249680Y82101D01*
X1215896Y48317D02*
X1206081Y38502D01*
X1215896Y48317D02*
X1243387Y20826D01*
X1233572Y11011D01*
X1206081Y38502D01*
X1231060Y13523D02*
X1236084Y13523D01*
X1238596Y16035D02*
X1228548Y16035D01*
X1226036Y18547D02*
X1241108Y18547D01*
X1243154Y21059D02*
X1223524Y21059D01*
X1221012Y23571D02*
X1240642Y23571D01*
X1238130Y26083D02*
X1218500Y26083D01*
X1215988Y28595D02*
X1235618Y28595D01*
X1233106Y31107D02*
X1213476Y31107D01*
X1210964Y33619D02*
X1230594Y33619D01*
X1228082Y36131D02*
X1208452Y36131D01*
X1206222Y38643D02*
X1225570Y38643D01*
X1223058Y41155D02*
X1208734Y41155D01*
X1211246Y43667D02*
X1220546Y43667D01*
X1218034Y46179D02*
X1213758Y46179D01*
D11*
X1199017Y62728D02*
X1193409Y62728D01*
X1193409Y74432D01*
X1199017Y74432D01*
X1199017Y62728D01*
X1199017Y65122D02*
X1193409Y65122D01*
X1193409Y67516D02*
X1199017Y67516D01*
X1199017Y69910D02*
X1193409Y69910D01*
X1193409Y72304D02*
X1199017Y72304D01*
X1203823Y62728D02*
X1209431Y62728D01*
X1203823Y62728D02*
X1203823Y74432D01*
X1209431Y74432D01*
X1209431Y62728D01*
X1209431Y65122D02*
X1203823Y65122D01*
X1203823Y67516D02*
X1209431Y67516D01*
X1209431Y69910D02*
X1203823Y69910D01*
X1203823Y72304D02*
X1209431Y72304D01*
X1123833Y62728D02*
X1118479Y62728D01*
X1118479Y74432D01*
X1123833Y74432D01*
X1123833Y62728D01*
X1123833Y65122D02*
X1118479Y65122D01*
X1118479Y67516D02*
X1123833Y67516D01*
X1123833Y69910D02*
X1118479Y69910D01*
X1118479Y72304D02*
X1123833Y72304D01*
X1126607Y62728D02*
X1131961Y62728D01*
X1126607Y62728D02*
X1126607Y74432D01*
X1131961Y74432D01*
X1131961Y62728D01*
X1131961Y65122D02*
X1126607Y65122D01*
X1126607Y67516D02*
X1131961Y67516D01*
X1131961Y69910D02*
X1126607Y69910D01*
X1126607Y72304D02*
X1131961Y72304D01*
D12*
X1277620Y114300D03*
X1277620Y139700D03*
D13*
X1049020Y203200D03*
X1277620Y88900D03*
D14*
X1264920Y228600D03*
X1061720Y228600D03*
D11*
X1100699Y155438D02*
X1106053Y155438D01*
X1100699Y155438D02*
X1100699Y167142D01*
X1106053Y167142D01*
X1106053Y155438D01*
X1106053Y157832D02*
X1100699Y157832D01*
X1100699Y160226D02*
X1106053Y160226D01*
X1106053Y162620D02*
X1100699Y162620D01*
X1100699Y165014D02*
X1106053Y165014D01*
X1108827Y155438D02*
X1114181Y155438D01*
X1108827Y155438D02*
X1108827Y167142D01*
X1114181Y167142D01*
X1114181Y155438D01*
X1114181Y157832D02*
X1108827Y157832D01*
X1108827Y160226D02*
X1114181Y160226D01*
X1114181Y162620D02*
X1108827Y162620D01*
X1108827Y165014D02*
X1114181Y165014D01*
D10*
X1390060Y197730D02*
X1403940Y197730D01*
X1390060Y197730D02*
X1390060Y236610D01*
X1403940Y236610D01*
X1403940Y197730D01*
X1403940Y200242D02*
X1390060Y200242D01*
X1390060Y202754D02*
X1403940Y202754D01*
X1403940Y205266D02*
X1390060Y205266D01*
X1390060Y207778D02*
X1403940Y207778D01*
X1403940Y210290D02*
X1390060Y210290D01*
X1390060Y212802D02*
X1403940Y212802D01*
X1403940Y215314D02*
X1390060Y215314D01*
X1390060Y217826D02*
X1403940Y217826D01*
X1403940Y220338D02*
X1390060Y220338D01*
X1390060Y222850D02*
X1403940Y222850D01*
X1403940Y225362D02*
X1390060Y225362D01*
X1390060Y227874D02*
X1403940Y227874D01*
X1403940Y230386D02*
X1390060Y230386D01*
X1390060Y232898D02*
X1403940Y232898D01*
X1403940Y235410D02*
X1390060Y235410D01*
X1440860Y197730D02*
X1454740Y197730D01*
X1440860Y197730D02*
X1440860Y236610D01*
X1454740Y236610D01*
X1454740Y197730D01*
X1454740Y200242D02*
X1440860Y200242D01*
X1440860Y202754D02*
X1454740Y202754D01*
X1454740Y205266D02*
X1440860Y205266D01*
X1440860Y207778D02*
X1454740Y207778D01*
X1454740Y210290D02*
X1440860Y210290D01*
X1440860Y212802D02*
X1454740Y212802D01*
X1454740Y215314D02*
X1440860Y215314D01*
X1440860Y217826D02*
X1454740Y217826D01*
X1454740Y220338D02*
X1440860Y220338D01*
X1440860Y222850D02*
X1454740Y222850D01*
X1454740Y225362D02*
X1440860Y225362D01*
X1440860Y227874D02*
X1454740Y227874D01*
X1454740Y230386D02*
X1440860Y230386D01*
X1440860Y232898D02*
X1454740Y232898D01*
X1454740Y235410D02*
X1440860Y235410D01*
X1369824Y48317D02*
X1379639Y38502D01*
X1352148Y11011D01*
X1342333Y20826D01*
X1369824Y48317D01*
X1354660Y13523D02*
X1349636Y13523D01*
X1347124Y16035D02*
X1357172Y16035D01*
X1359684Y18547D02*
X1344612Y18547D01*
X1342566Y21059D02*
X1362196Y21059D01*
X1364708Y23571D02*
X1345078Y23571D01*
X1347590Y26083D02*
X1367220Y26083D01*
X1369732Y28595D02*
X1350102Y28595D01*
X1352614Y31107D02*
X1372244Y31107D01*
X1374756Y33619D02*
X1355126Y33619D01*
X1357638Y36131D02*
X1377268Y36131D01*
X1379498Y38643D02*
X1360150Y38643D01*
X1362662Y41155D02*
X1376986Y41155D01*
X1374474Y43667D02*
X1365174Y43667D01*
X1367686Y46179D02*
X1371962Y46179D01*
X1343717Y74424D02*
X1333902Y84239D01*
X1343717Y74424D02*
X1316226Y46933D01*
X1306411Y56748D01*
X1333902Y84239D01*
X1318738Y49445D02*
X1313714Y49445D01*
X1311202Y51957D02*
X1321250Y51957D01*
X1323762Y54469D02*
X1308690Y54469D01*
X1306644Y56981D02*
X1326274Y56981D01*
X1328786Y59493D02*
X1309156Y59493D01*
X1311668Y62005D02*
X1331298Y62005D01*
X1333810Y64517D02*
X1314180Y64517D01*
X1316692Y67029D02*
X1336322Y67029D01*
X1338834Y69541D02*
X1319204Y69541D01*
X1321716Y72053D02*
X1341346Y72053D01*
X1343576Y74565D02*
X1324228Y74565D01*
X1326740Y77077D02*
X1341064Y77077D01*
X1338552Y79589D02*
X1329252Y79589D01*
X1331764Y82101D02*
X1336040Y82101D01*
X1501083Y74424D02*
X1510898Y84239D01*
X1538389Y56748D01*
X1528574Y46933D01*
X1501083Y74424D01*
X1526062Y49445D02*
X1531086Y49445D01*
X1533598Y51957D02*
X1523550Y51957D01*
X1521038Y54469D02*
X1536110Y54469D01*
X1538156Y56981D02*
X1518526Y56981D01*
X1516014Y59493D02*
X1535644Y59493D01*
X1533132Y62005D02*
X1513502Y62005D01*
X1510990Y64517D02*
X1530620Y64517D01*
X1528108Y67029D02*
X1508478Y67029D01*
X1505966Y69541D02*
X1525596Y69541D01*
X1523084Y72053D02*
X1503454Y72053D01*
X1501224Y74565D02*
X1520572Y74565D01*
X1518060Y77077D02*
X1503736Y77077D01*
X1506248Y79589D02*
X1515548Y79589D01*
X1513036Y82101D02*
X1508760Y82101D01*
X1474976Y48317D02*
X1465161Y38502D01*
X1474976Y48317D02*
X1502467Y20826D01*
X1492652Y11011D01*
X1465161Y38502D01*
X1490140Y13523D02*
X1495164Y13523D01*
X1497676Y16035D02*
X1487628Y16035D01*
X1485116Y18547D02*
X1500188Y18547D01*
X1502234Y21059D02*
X1482604Y21059D01*
X1480092Y23571D02*
X1499722Y23571D01*
X1497210Y26083D02*
X1477580Y26083D01*
X1475068Y28595D02*
X1494698Y28595D01*
X1492186Y31107D02*
X1472556Y31107D01*
X1470044Y33619D02*
X1489674Y33619D01*
X1487162Y36131D02*
X1467532Y36131D01*
X1465302Y38643D02*
X1484650Y38643D01*
X1482138Y41155D02*
X1467814Y41155D01*
X1470326Y43667D02*
X1479626Y43667D01*
X1477114Y46179D02*
X1472838Y46179D01*
D11*
X1458097Y62728D02*
X1452489Y62728D01*
X1452489Y74432D01*
X1458097Y74432D01*
X1458097Y62728D01*
X1458097Y65122D02*
X1452489Y65122D01*
X1452489Y67516D02*
X1458097Y67516D01*
X1458097Y69910D02*
X1452489Y69910D01*
X1452489Y72304D02*
X1458097Y72304D01*
X1462903Y62728D02*
X1468511Y62728D01*
X1462903Y62728D02*
X1462903Y74432D01*
X1468511Y74432D01*
X1468511Y62728D01*
X1468511Y65122D02*
X1462903Y65122D01*
X1462903Y67516D02*
X1468511Y67516D01*
X1468511Y69910D02*
X1462903Y69910D01*
X1462903Y72304D02*
X1468511Y72304D01*
X1382913Y62728D02*
X1377559Y62728D01*
X1377559Y74432D01*
X1382913Y74432D01*
X1382913Y62728D01*
X1382913Y65122D02*
X1377559Y65122D01*
X1377559Y67516D02*
X1382913Y67516D01*
X1382913Y69910D02*
X1377559Y69910D01*
X1377559Y72304D02*
X1382913Y72304D01*
X1385687Y62728D02*
X1391041Y62728D01*
X1385687Y62728D02*
X1385687Y74432D01*
X1391041Y74432D01*
X1391041Y62728D01*
X1391041Y65122D02*
X1385687Y65122D01*
X1385687Y67516D02*
X1391041Y67516D01*
X1391041Y69910D02*
X1385687Y69910D01*
X1385687Y72304D02*
X1391041Y72304D01*
D12*
X1536700Y114300D03*
X1536700Y139700D03*
D13*
X1308100Y203200D03*
X1536700Y88900D03*
D14*
X1524000Y228600D03*
X1320800Y228600D03*
D11*
X1359779Y155438D02*
X1365133Y155438D01*
X1359779Y155438D02*
X1359779Y167142D01*
X1365133Y167142D01*
X1365133Y155438D01*
X1365133Y157832D02*
X1359779Y157832D01*
X1359779Y160226D02*
X1365133Y160226D01*
X1365133Y162620D02*
X1359779Y162620D01*
X1359779Y165014D02*
X1365133Y165014D01*
X1367907Y155438D02*
X1373261Y155438D01*
X1367907Y155438D02*
X1367907Y167142D01*
X1373261Y167142D01*
X1373261Y155438D01*
X1373261Y157832D02*
X1367907Y157832D01*
X1367907Y160226D02*
X1373261Y160226D01*
X1373261Y162620D02*
X1367907Y162620D01*
X1367907Y165014D02*
X1373261Y165014D01*
D10*
X108540Y456810D02*
X94660Y456810D01*
X94660Y495690D01*
X108540Y495690D01*
X108540Y456810D01*
X108540Y459322D02*
X94660Y459322D01*
X94660Y461834D02*
X108540Y461834D01*
X108540Y464346D02*
X94660Y464346D01*
X94660Y466858D02*
X108540Y466858D01*
X108540Y469370D02*
X94660Y469370D01*
X94660Y471882D02*
X108540Y471882D01*
X108540Y474394D02*
X94660Y474394D01*
X94660Y476906D02*
X108540Y476906D01*
X108540Y479418D02*
X94660Y479418D01*
X94660Y481930D02*
X108540Y481930D01*
X108540Y484442D02*
X94660Y484442D01*
X94660Y486954D02*
X108540Y486954D01*
X108540Y489466D02*
X94660Y489466D01*
X94660Y491978D02*
X108540Y491978D01*
X108540Y494490D02*
X94660Y494490D01*
X145460Y456810D02*
X159340Y456810D01*
X145460Y456810D02*
X145460Y495690D01*
X159340Y495690D01*
X159340Y456810D01*
X159340Y459322D02*
X145460Y459322D01*
X145460Y461834D02*
X159340Y461834D01*
X159340Y464346D02*
X145460Y464346D01*
X145460Y466858D02*
X159340Y466858D01*
X159340Y469370D02*
X145460Y469370D01*
X145460Y471882D02*
X159340Y471882D01*
X159340Y474394D02*
X145460Y474394D01*
X145460Y476906D02*
X159340Y476906D01*
X159340Y479418D02*
X145460Y479418D01*
X145460Y481930D02*
X159340Y481930D01*
X159340Y484442D02*
X145460Y484442D01*
X145460Y486954D02*
X159340Y486954D01*
X159340Y489466D02*
X145460Y489466D01*
X145460Y491978D02*
X159340Y491978D01*
X159340Y494490D02*
X145460Y494490D01*
X74424Y307397D02*
X84239Y297582D01*
X56748Y270091D01*
X46933Y279906D01*
X74424Y307397D01*
X59260Y272603D02*
X54236Y272603D01*
X51724Y275115D02*
X61772Y275115D01*
X64284Y277627D02*
X49212Y277627D01*
X47166Y280139D02*
X66796Y280139D01*
X69308Y282651D02*
X49678Y282651D01*
X52190Y285163D02*
X71820Y285163D01*
X74332Y287675D02*
X54702Y287675D01*
X57214Y290187D02*
X76844Y290187D01*
X79356Y292699D02*
X59726Y292699D01*
X62238Y295211D02*
X81868Y295211D01*
X84098Y297723D02*
X64750Y297723D01*
X67262Y300235D02*
X81586Y300235D01*
X79074Y302747D02*
X69774Y302747D01*
X72286Y305259D02*
X76562Y305259D01*
X48317Y333504D02*
X38502Y343319D01*
X48317Y333504D02*
X20826Y306013D01*
X11011Y315828D01*
X38502Y343319D01*
X23338Y308525D02*
X18314Y308525D01*
X15802Y311037D02*
X25850Y311037D01*
X28362Y313549D02*
X13290Y313549D01*
X11244Y316061D02*
X30874Y316061D01*
X33386Y318573D02*
X13756Y318573D01*
X16268Y321085D02*
X35898Y321085D01*
X38410Y323597D02*
X18780Y323597D01*
X21292Y326109D02*
X40922Y326109D01*
X43434Y328621D02*
X23804Y328621D01*
X26316Y331133D02*
X45946Y331133D01*
X48176Y333645D02*
X28828Y333645D01*
X31340Y336157D02*
X45664Y336157D01*
X43152Y338669D02*
X33852Y338669D01*
X36364Y341181D02*
X40640Y341181D01*
X205683Y333504D02*
X215498Y343319D01*
X242989Y315828D01*
X233174Y306013D01*
X205683Y333504D01*
X230662Y308525D02*
X235686Y308525D01*
X238198Y311037D02*
X228150Y311037D01*
X225638Y313549D02*
X240710Y313549D01*
X242756Y316061D02*
X223126Y316061D01*
X220614Y318573D02*
X240244Y318573D01*
X237732Y321085D02*
X218102Y321085D01*
X215590Y323597D02*
X235220Y323597D01*
X232708Y326109D02*
X213078Y326109D01*
X210566Y328621D02*
X230196Y328621D01*
X227684Y331133D02*
X208054Y331133D01*
X205824Y333645D02*
X225172Y333645D01*
X222660Y336157D02*
X208336Y336157D01*
X210848Y338669D02*
X220148Y338669D01*
X217636Y341181D02*
X213360Y341181D01*
X179576Y307397D02*
X169761Y297582D01*
X179576Y307397D02*
X207067Y279906D01*
X197252Y270091D01*
X169761Y297582D01*
X194740Y272603D02*
X199764Y272603D01*
X202276Y275115D02*
X192228Y275115D01*
X189716Y277627D02*
X204788Y277627D01*
X206834Y280139D02*
X187204Y280139D01*
X184692Y282651D02*
X204322Y282651D01*
X201810Y285163D02*
X182180Y285163D01*
X179668Y287675D02*
X199298Y287675D01*
X196786Y290187D02*
X177156Y290187D01*
X174644Y292699D02*
X194274Y292699D01*
X191762Y295211D02*
X172132Y295211D01*
X169902Y297723D02*
X189250Y297723D01*
X186738Y300235D02*
X172414Y300235D01*
X174926Y302747D02*
X184226Y302747D01*
X181714Y305259D02*
X177438Y305259D01*
D11*
X162697Y321808D02*
X157089Y321808D01*
X157089Y333512D01*
X162697Y333512D01*
X162697Y321808D01*
X162697Y324202D02*
X157089Y324202D01*
X157089Y326596D02*
X162697Y326596D01*
X162697Y328990D02*
X157089Y328990D01*
X157089Y331384D02*
X162697Y331384D01*
X167503Y321808D02*
X173111Y321808D01*
X167503Y321808D02*
X167503Y333512D01*
X173111Y333512D01*
X173111Y321808D01*
X173111Y324202D02*
X167503Y324202D01*
X167503Y326596D02*
X173111Y326596D01*
X173111Y328990D02*
X167503Y328990D01*
X167503Y331384D02*
X173111Y331384D01*
X87513Y321808D02*
X82159Y321808D01*
X82159Y333512D01*
X87513Y333512D01*
X87513Y321808D01*
X87513Y324202D02*
X82159Y324202D01*
X82159Y326596D02*
X87513Y326596D01*
X87513Y328990D02*
X82159Y328990D01*
X82159Y331384D02*
X87513Y331384D01*
X90287Y321808D02*
X95641Y321808D01*
X90287Y321808D02*
X90287Y333512D01*
X95641Y333512D01*
X95641Y321808D01*
X95641Y324202D02*
X90287Y324202D01*
X90287Y326596D02*
X95641Y326596D01*
X95641Y328990D02*
X90287Y328990D01*
X90287Y331384D02*
X95641Y331384D01*
D12*
X241300Y373380D03*
X241300Y398780D03*
D13*
X12700Y462280D03*
X241300Y347980D03*
D14*
X228600Y487680D03*
X25400Y487680D03*
D11*
X64379Y414518D02*
X69733Y414518D01*
X64379Y414518D02*
X64379Y426222D01*
X69733Y426222D01*
X69733Y414518D01*
X69733Y416912D02*
X64379Y416912D01*
X64379Y419306D02*
X69733Y419306D01*
X69733Y421700D02*
X64379Y421700D01*
X64379Y424094D02*
X69733Y424094D01*
X72507Y414518D02*
X77861Y414518D01*
X72507Y414518D02*
X72507Y426222D01*
X77861Y426222D01*
X77861Y414518D01*
X77861Y416912D02*
X72507Y416912D01*
X72507Y419306D02*
X77861Y419306D01*
X77861Y421700D02*
X72507Y421700D01*
X72507Y424094D02*
X77861Y424094D01*
D10*
X353740Y456810D02*
X367620Y456810D01*
X353740Y456810D02*
X353740Y495690D01*
X367620Y495690D01*
X367620Y456810D01*
X367620Y459322D02*
X353740Y459322D01*
X353740Y461834D02*
X367620Y461834D01*
X367620Y464346D02*
X353740Y464346D01*
X353740Y466858D02*
X367620Y466858D01*
X367620Y469370D02*
X353740Y469370D01*
X353740Y471882D02*
X367620Y471882D01*
X367620Y474394D02*
X353740Y474394D01*
X353740Y476906D02*
X367620Y476906D01*
X367620Y479418D02*
X353740Y479418D01*
X353740Y481930D02*
X367620Y481930D01*
X367620Y484442D02*
X353740Y484442D01*
X353740Y486954D02*
X367620Y486954D01*
X367620Y489466D02*
X353740Y489466D01*
X353740Y491978D02*
X367620Y491978D01*
X367620Y494490D02*
X353740Y494490D01*
X404540Y456810D02*
X418420Y456810D01*
X404540Y456810D02*
X404540Y495690D01*
X418420Y495690D01*
X418420Y456810D01*
X418420Y459322D02*
X404540Y459322D01*
X404540Y461834D02*
X418420Y461834D01*
X418420Y464346D02*
X404540Y464346D01*
X404540Y466858D02*
X418420Y466858D01*
X418420Y469370D02*
X404540Y469370D01*
X404540Y471882D02*
X418420Y471882D01*
X418420Y474394D02*
X404540Y474394D01*
X404540Y476906D02*
X418420Y476906D01*
X418420Y479418D02*
X404540Y479418D01*
X404540Y481930D02*
X418420Y481930D01*
X418420Y484442D02*
X404540Y484442D01*
X404540Y486954D02*
X418420Y486954D01*
X418420Y489466D02*
X404540Y489466D01*
X404540Y491978D02*
X418420Y491978D01*
X418420Y494490D02*
X404540Y494490D01*
X333504Y307397D02*
X343319Y297582D01*
X315828Y270091D01*
X306013Y279906D01*
X333504Y307397D01*
X318340Y272603D02*
X313316Y272603D01*
X310804Y275115D02*
X320852Y275115D01*
X323364Y277627D02*
X308292Y277627D01*
X306246Y280139D02*
X325876Y280139D01*
X328388Y282651D02*
X308758Y282651D01*
X311270Y285163D02*
X330900Y285163D01*
X333412Y287675D02*
X313782Y287675D01*
X316294Y290187D02*
X335924Y290187D01*
X338436Y292699D02*
X318806Y292699D01*
X321318Y295211D02*
X340948Y295211D01*
X343178Y297723D02*
X323830Y297723D01*
X326342Y300235D02*
X340666Y300235D01*
X338154Y302747D02*
X328854Y302747D01*
X331366Y305259D02*
X335642Y305259D01*
X307397Y333504D02*
X297582Y343319D01*
X307397Y333504D02*
X279906Y306013D01*
X270091Y315828D01*
X297582Y343319D01*
X282418Y308525D02*
X277394Y308525D01*
X274882Y311037D02*
X284930Y311037D01*
X287442Y313549D02*
X272370Y313549D01*
X270324Y316061D02*
X289954Y316061D01*
X292466Y318573D02*
X272836Y318573D01*
X275348Y321085D02*
X294978Y321085D01*
X297490Y323597D02*
X277860Y323597D01*
X280372Y326109D02*
X300002Y326109D01*
X302514Y328621D02*
X282884Y328621D01*
X285396Y331133D02*
X305026Y331133D01*
X307256Y333645D02*
X287908Y333645D01*
X290420Y336157D02*
X304744Y336157D01*
X302232Y338669D02*
X292932Y338669D01*
X295444Y341181D02*
X299720Y341181D01*
X464763Y333504D02*
X474578Y343319D01*
X502069Y315828D01*
X492254Y306013D01*
X464763Y333504D01*
X489742Y308525D02*
X494766Y308525D01*
X497278Y311037D02*
X487230Y311037D01*
X484718Y313549D02*
X499790Y313549D01*
X501836Y316061D02*
X482206Y316061D01*
X479694Y318573D02*
X499324Y318573D01*
X496812Y321085D02*
X477182Y321085D01*
X474670Y323597D02*
X494300Y323597D01*
X491788Y326109D02*
X472158Y326109D01*
X469646Y328621D02*
X489276Y328621D01*
X486764Y331133D02*
X467134Y331133D01*
X464904Y333645D02*
X484252Y333645D01*
X481740Y336157D02*
X467416Y336157D01*
X469928Y338669D02*
X479228Y338669D01*
X476716Y341181D02*
X472440Y341181D01*
X438656Y307397D02*
X428841Y297582D01*
X438656Y307397D02*
X466147Y279906D01*
X456332Y270091D01*
X428841Y297582D01*
X453820Y272603D02*
X458844Y272603D01*
X461356Y275115D02*
X451308Y275115D01*
X448796Y277627D02*
X463868Y277627D01*
X465914Y280139D02*
X446284Y280139D01*
X443772Y282651D02*
X463402Y282651D01*
X460890Y285163D02*
X441260Y285163D01*
X438748Y287675D02*
X458378Y287675D01*
X455866Y290187D02*
X436236Y290187D01*
X433724Y292699D02*
X453354Y292699D01*
X450842Y295211D02*
X431212Y295211D01*
X428982Y297723D02*
X448330Y297723D01*
X445818Y300235D02*
X431494Y300235D01*
X434006Y302747D02*
X443306Y302747D01*
X440794Y305259D02*
X436518Y305259D01*
D11*
X421777Y321808D02*
X416169Y321808D01*
X416169Y333512D01*
X421777Y333512D01*
X421777Y321808D01*
X421777Y324202D02*
X416169Y324202D01*
X416169Y326596D02*
X421777Y326596D01*
X421777Y328990D02*
X416169Y328990D01*
X416169Y331384D02*
X421777Y331384D01*
X426583Y321808D02*
X432191Y321808D01*
X426583Y321808D02*
X426583Y333512D01*
X432191Y333512D01*
X432191Y321808D01*
X432191Y324202D02*
X426583Y324202D01*
X426583Y326596D02*
X432191Y326596D01*
X432191Y328990D02*
X426583Y328990D01*
X426583Y331384D02*
X432191Y331384D01*
X346593Y321808D02*
X341239Y321808D01*
X341239Y333512D01*
X346593Y333512D01*
X346593Y321808D01*
X346593Y324202D02*
X341239Y324202D01*
X341239Y326596D02*
X346593Y326596D01*
X346593Y328990D02*
X341239Y328990D01*
X341239Y331384D02*
X346593Y331384D01*
X349367Y321808D02*
X354721Y321808D01*
X349367Y321808D02*
X349367Y333512D01*
X354721Y333512D01*
X354721Y321808D01*
X354721Y324202D02*
X349367Y324202D01*
X349367Y326596D02*
X354721Y326596D01*
X354721Y328990D02*
X349367Y328990D01*
X349367Y331384D02*
X354721Y331384D01*
D12*
X500380Y373380D03*
X500380Y398780D03*
D13*
X271780Y462280D03*
X500380Y347980D03*
D14*
X487680Y487680D03*
X284480Y487680D03*
D11*
X323459Y414518D02*
X328813Y414518D01*
X323459Y414518D02*
X323459Y426222D01*
X328813Y426222D01*
X328813Y414518D01*
X328813Y416912D02*
X323459Y416912D01*
X323459Y419306D02*
X328813Y419306D01*
X328813Y421700D02*
X323459Y421700D01*
X323459Y424094D02*
X328813Y424094D01*
X331587Y414518D02*
X336941Y414518D01*
X331587Y414518D02*
X331587Y426222D01*
X336941Y426222D01*
X336941Y414518D01*
X336941Y416912D02*
X331587Y416912D01*
X331587Y419306D02*
X336941Y419306D01*
X336941Y421700D02*
X331587Y421700D01*
X331587Y424094D02*
X336941Y424094D01*
D10*
X612820Y456810D02*
X626700Y456810D01*
X612820Y456810D02*
X612820Y495690D01*
X626700Y495690D01*
X626700Y456810D01*
X626700Y459322D02*
X612820Y459322D01*
X612820Y461834D02*
X626700Y461834D01*
X626700Y464346D02*
X612820Y464346D01*
X612820Y466858D02*
X626700Y466858D01*
X626700Y469370D02*
X612820Y469370D01*
X612820Y471882D02*
X626700Y471882D01*
X626700Y474394D02*
X612820Y474394D01*
X612820Y476906D02*
X626700Y476906D01*
X626700Y479418D02*
X612820Y479418D01*
X612820Y481930D02*
X626700Y481930D01*
X626700Y484442D02*
X612820Y484442D01*
X612820Y486954D02*
X626700Y486954D01*
X626700Y489466D02*
X612820Y489466D01*
X612820Y491978D02*
X626700Y491978D01*
X626700Y494490D02*
X612820Y494490D01*
X663620Y456810D02*
X677500Y456810D01*
X663620Y456810D02*
X663620Y495690D01*
X677500Y495690D01*
X677500Y456810D01*
X677500Y459322D02*
X663620Y459322D01*
X663620Y461834D02*
X677500Y461834D01*
X677500Y464346D02*
X663620Y464346D01*
X663620Y466858D02*
X677500Y466858D01*
X677500Y469370D02*
X663620Y469370D01*
X663620Y471882D02*
X677500Y471882D01*
X677500Y474394D02*
X663620Y474394D01*
X663620Y476906D02*
X677500Y476906D01*
X677500Y479418D02*
X663620Y479418D01*
X663620Y481930D02*
X677500Y481930D01*
X677500Y484442D02*
X663620Y484442D01*
X663620Y486954D02*
X677500Y486954D01*
X677500Y489466D02*
X663620Y489466D01*
X663620Y491978D02*
X677500Y491978D01*
X677500Y494490D02*
X663620Y494490D01*
X592584Y307397D02*
X602399Y297582D01*
X574908Y270091D01*
X565093Y279906D01*
X592584Y307397D01*
X577420Y272603D02*
X572396Y272603D01*
X569884Y275115D02*
X579932Y275115D01*
X582444Y277627D02*
X567372Y277627D01*
X565326Y280139D02*
X584956Y280139D01*
X587468Y282651D02*
X567838Y282651D01*
X570350Y285163D02*
X589980Y285163D01*
X592492Y287675D02*
X572862Y287675D01*
X575374Y290187D02*
X595004Y290187D01*
X597516Y292699D02*
X577886Y292699D01*
X580398Y295211D02*
X600028Y295211D01*
X602258Y297723D02*
X582910Y297723D01*
X585422Y300235D02*
X599746Y300235D01*
X597234Y302747D02*
X587934Y302747D01*
X590446Y305259D02*
X594722Y305259D01*
X566477Y333504D02*
X556662Y343319D01*
X566477Y333504D02*
X538986Y306013D01*
X529171Y315828D01*
X556662Y343319D01*
X541498Y308525D02*
X536474Y308525D01*
X533962Y311037D02*
X544010Y311037D01*
X546522Y313549D02*
X531450Y313549D01*
X529404Y316061D02*
X549034Y316061D01*
X551546Y318573D02*
X531916Y318573D01*
X534428Y321085D02*
X554058Y321085D01*
X556570Y323597D02*
X536940Y323597D01*
X539452Y326109D02*
X559082Y326109D01*
X561594Y328621D02*
X541964Y328621D01*
X544476Y331133D02*
X564106Y331133D01*
X566336Y333645D02*
X546988Y333645D01*
X549500Y336157D02*
X563824Y336157D01*
X561312Y338669D02*
X552012Y338669D01*
X554524Y341181D02*
X558800Y341181D01*
X723843Y333504D02*
X733658Y343319D01*
X761149Y315828D01*
X751334Y306013D01*
X723843Y333504D01*
X748822Y308525D02*
X753846Y308525D01*
X756358Y311037D02*
X746310Y311037D01*
X743798Y313549D02*
X758870Y313549D01*
X760916Y316061D02*
X741286Y316061D01*
X738774Y318573D02*
X758404Y318573D01*
X755892Y321085D02*
X736262Y321085D01*
X733750Y323597D02*
X753380Y323597D01*
X750868Y326109D02*
X731238Y326109D01*
X728726Y328621D02*
X748356Y328621D01*
X745844Y331133D02*
X726214Y331133D01*
X723984Y333645D02*
X743332Y333645D01*
X740820Y336157D02*
X726496Y336157D01*
X729008Y338669D02*
X738308Y338669D01*
X735796Y341181D02*
X731520Y341181D01*
X697736Y307397D02*
X687921Y297582D01*
X697736Y307397D02*
X725227Y279906D01*
X715412Y270091D01*
X687921Y297582D01*
X712900Y272603D02*
X717924Y272603D01*
X720436Y275115D02*
X710388Y275115D01*
X707876Y277627D02*
X722948Y277627D01*
X724994Y280139D02*
X705364Y280139D01*
X702852Y282651D02*
X722482Y282651D01*
X719970Y285163D02*
X700340Y285163D01*
X697828Y287675D02*
X717458Y287675D01*
X714946Y290187D02*
X695316Y290187D01*
X692804Y292699D02*
X712434Y292699D01*
X709922Y295211D02*
X690292Y295211D01*
X688062Y297723D02*
X707410Y297723D01*
X704898Y300235D02*
X690574Y300235D01*
X693086Y302747D02*
X702386Y302747D01*
X699874Y305259D02*
X695598Y305259D01*
D11*
X680857Y321808D02*
X675249Y321808D01*
X675249Y333512D01*
X680857Y333512D01*
X680857Y321808D01*
X680857Y324202D02*
X675249Y324202D01*
X675249Y326596D02*
X680857Y326596D01*
X680857Y328990D02*
X675249Y328990D01*
X675249Y331384D02*
X680857Y331384D01*
X685663Y321808D02*
X691271Y321808D01*
X685663Y321808D02*
X685663Y333512D01*
X691271Y333512D01*
X691271Y321808D01*
X691271Y324202D02*
X685663Y324202D01*
X685663Y326596D02*
X691271Y326596D01*
X691271Y328990D02*
X685663Y328990D01*
X685663Y331384D02*
X691271Y331384D01*
X605673Y321808D02*
X600319Y321808D01*
X600319Y333512D01*
X605673Y333512D01*
X605673Y321808D01*
X605673Y324202D02*
X600319Y324202D01*
X600319Y326596D02*
X605673Y326596D01*
X605673Y328990D02*
X600319Y328990D01*
X600319Y331384D02*
X605673Y331384D01*
X608447Y321808D02*
X613801Y321808D01*
X608447Y321808D02*
X608447Y333512D01*
X613801Y333512D01*
X613801Y321808D01*
X613801Y324202D02*
X608447Y324202D01*
X608447Y326596D02*
X613801Y326596D01*
X613801Y328990D02*
X608447Y328990D01*
X608447Y331384D02*
X613801Y331384D01*
D12*
X759460Y373380D03*
X759460Y398780D03*
D13*
X530860Y462280D03*
X759460Y347980D03*
D14*
X746760Y487680D03*
X543560Y487680D03*
D11*
X582539Y414518D02*
X587893Y414518D01*
X582539Y414518D02*
X582539Y426222D01*
X587893Y426222D01*
X587893Y414518D01*
X587893Y416912D02*
X582539Y416912D01*
X582539Y419306D02*
X587893Y419306D01*
X587893Y421700D02*
X582539Y421700D01*
X582539Y424094D02*
X587893Y424094D01*
X590667Y414518D02*
X596021Y414518D01*
X590667Y414518D02*
X590667Y426222D01*
X596021Y426222D01*
X596021Y414518D01*
X596021Y416912D02*
X590667Y416912D01*
X590667Y419306D02*
X596021Y419306D01*
X596021Y421700D02*
X590667Y421700D01*
X590667Y424094D02*
X596021Y424094D01*
D10*
X871900Y456810D02*
X885780Y456810D01*
X871900Y456810D02*
X871900Y495690D01*
X885780Y495690D01*
X885780Y456810D01*
X885780Y459322D02*
X871900Y459322D01*
X871900Y461834D02*
X885780Y461834D01*
X885780Y464346D02*
X871900Y464346D01*
X871900Y466858D02*
X885780Y466858D01*
X885780Y469370D02*
X871900Y469370D01*
X871900Y471882D02*
X885780Y471882D01*
X885780Y474394D02*
X871900Y474394D01*
X871900Y476906D02*
X885780Y476906D01*
X885780Y479418D02*
X871900Y479418D01*
X871900Y481930D02*
X885780Y481930D01*
X885780Y484442D02*
X871900Y484442D01*
X871900Y486954D02*
X885780Y486954D01*
X885780Y489466D02*
X871900Y489466D01*
X871900Y491978D02*
X885780Y491978D01*
X885780Y494490D02*
X871900Y494490D01*
X922700Y456810D02*
X936580Y456810D01*
X922700Y456810D02*
X922700Y495690D01*
X936580Y495690D01*
X936580Y456810D01*
X936580Y459322D02*
X922700Y459322D01*
X922700Y461834D02*
X936580Y461834D01*
X936580Y464346D02*
X922700Y464346D01*
X922700Y466858D02*
X936580Y466858D01*
X936580Y469370D02*
X922700Y469370D01*
X922700Y471882D02*
X936580Y471882D01*
X936580Y474394D02*
X922700Y474394D01*
X922700Y476906D02*
X936580Y476906D01*
X936580Y479418D02*
X922700Y479418D01*
X922700Y481930D02*
X936580Y481930D01*
X936580Y484442D02*
X922700Y484442D01*
X922700Y486954D02*
X936580Y486954D01*
X936580Y489466D02*
X922700Y489466D01*
X922700Y491978D02*
X936580Y491978D01*
X936580Y494490D02*
X922700Y494490D01*
X851664Y307397D02*
X861479Y297582D01*
X833988Y270091D01*
X824173Y279906D01*
X851664Y307397D01*
X836500Y272603D02*
X831476Y272603D01*
X828964Y275115D02*
X839012Y275115D01*
X841524Y277627D02*
X826452Y277627D01*
X824406Y280139D02*
X844036Y280139D01*
X846548Y282651D02*
X826918Y282651D01*
X829430Y285163D02*
X849060Y285163D01*
X851572Y287675D02*
X831942Y287675D01*
X834454Y290187D02*
X854084Y290187D01*
X856596Y292699D02*
X836966Y292699D01*
X839478Y295211D02*
X859108Y295211D01*
X861338Y297723D02*
X841990Y297723D01*
X844502Y300235D02*
X858826Y300235D01*
X856314Y302747D02*
X847014Y302747D01*
X849526Y305259D02*
X853802Y305259D01*
X825557Y333504D02*
X815742Y343319D01*
X825557Y333504D02*
X798066Y306013D01*
X788251Y315828D01*
X815742Y343319D01*
X800578Y308525D02*
X795554Y308525D01*
X793042Y311037D02*
X803090Y311037D01*
X805602Y313549D02*
X790530Y313549D01*
X788484Y316061D02*
X808114Y316061D01*
X810626Y318573D02*
X790996Y318573D01*
X793508Y321085D02*
X813138Y321085D01*
X815650Y323597D02*
X796020Y323597D01*
X798532Y326109D02*
X818162Y326109D01*
X820674Y328621D02*
X801044Y328621D01*
X803556Y331133D02*
X823186Y331133D01*
X825416Y333645D02*
X806068Y333645D01*
X808580Y336157D02*
X822904Y336157D01*
X820392Y338669D02*
X811092Y338669D01*
X813604Y341181D02*
X817880Y341181D01*
X982923Y333504D02*
X992738Y343319D01*
X1020229Y315828D01*
X1010414Y306013D01*
X982923Y333504D01*
X1007902Y308525D02*
X1012926Y308525D01*
X1015438Y311037D02*
X1005390Y311037D01*
X1002878Y313549D02*
X1017950Y313549D01*
X1019996Y316061D02*
X1000366Y316061D01*
X997854Y318573D02*
X1017484Y318573D01*
X1014972Y321085D02*
X995342Y321085D01*
X992830Y323597D02*
X1012460Y323597D01*
X1009948Y326109D02*
X990318Y326109D01*
X987806Y328621D02*
X1007436Y328621D01*
X1004924Y331133D02*
X985294Y331133D01*
X983064Y333645D02*
X1002412Y333645D01*
X999900Y336157D02*
X985576Y336157D01*
X988088Y338669D02*
X997388Y338669D01*
X994876Y341181D02*
X990600Y341181D01*
X956816Y307397D02*
X947001Y297582D01*
X956816Y307397D02*
X984307Y279906D01*
X974492Y270091D01*
X947001Y297582D01*
X971980Y272603D02*
X977004Y272603D01*
X979516Y275115D02*
X969468Y275115D01*
X966956Y277627D02*
X982028Y277627D01*
X984074Y280139D02*
X964444Y280139D01*
X961932Y282651D02*
X981562Y282651D01*
X979050Y285163D02*
X959420Y285163D01*
X956908Y287675D02*
X976538Y287675D01*
X974026Y290187D02*
X954396Y290187D01*
X951884Y292699D02*
X971514Y292699D01*
X969002Y295211D02*
X949372Y295211D01*
X947142Y297723D02*
X966490Y297723D01*
X963978Y300235D02*
X949654Y300235D01*
X952166Y302747D02*
X961466Y302747D01*
X958954Y305259D02*
X954678Y305259D01*
D11*
X939937Y321808D02*
X934329Y321808D01*
X934329Y333512D01*
X939937Y333512D01*
X939937Y321808D01*
X939937Y324202D02*
X934329Y324202D01*
X934329Y326596D02*
X939937Y326596D01*
X939937Y328990D02*
X934329Y328990D01*
X934329Y331384D02*
X939937Y331384D01*
X944743Y321808D02*
X950351Y321808D01*
X944743Y321808D02*
X944743Y333512D01*
X950351Y333512D01*
X950351Y321808D01*
X950351Y324202D02*
X944743Y324202D01*
X944743Y326596D02*
X950351Y326596D01*
X950351Y328990D02*
X944743Y328990D01*
X944743Y331384D02*
X950351Y331384D01*
X864753Y321808D02*
X859399Y321808D01*
X859399Y333512D01*
X864753Y333512D01*
X864753Y321808D01*
X864753Y324202D02*
X859399Y324202D01*
X859399Y326596D02*
X864753Y326596D01*
X864753Y328990D02*
X859399Y328990D01*
X859399Y331384D02*
X864753Y331384D01*
X867527Y321808D02*
X872881Y321808D01*
X867527Y321808D02*
X867527Y333512D01*
X872881Y333512D01*
X872881Y321808D01*
X872881Y324202D02*
X867527Y324202D01*
X867527Y326596D02*
X872881Y326596D01*
X872881Y328990D02*
X867527Y328990D01*
X867527Y331384D02*
X872881Y331384D01*
D12*
X1018540Y373380D03*
X1018540Y398780D03*
D13*
X789940Y462280D03*
X1018540Y347980D03*
D14*
X1005840Y487680D03*
X802640Y487680D03*
D11*
X841619Y414518D02*
X846973Y414518D01*
X841619Y414518D02*
X841619Y426222D01*
X846973Y426222D01*
X846973Y414518D01*
X846973Y416912D02*
X841619Y416912D01*
X841619Y419306D02*
X846973Y419306D01*
X846973Y421700D02*
X841619Y421700D01*
X841619Y424094D02*
X846973Y424094D01*
X849747Y414518D02*
X855101Y414518D01*
X849747Y414518D02*
X849747Y426222D01*
X855101Y426222D01*
X855101Y414518D01*
X855101Y416912D02*
X849747Y416912D01*
X849747Y419306D02*
X855101Y419306D01*
X855101Y421700D02*
X849747Y421700D01*
X849747Y424094D02*
X855101Y424094D01*
D10*
X1130980Y456810D02*
X1144860Y456810D01*
X1130980Y456810D02*
X1130980Y495690D01*
X1144860Y495690D01*
X1144860Y456810D01*
X1144860Y459322D02*
X1130980Y459322D01*
X1130980Y461834D02*
X1144860Y461834D01*
X1144860Y464346D02*
X1130980Y464346D01*
X1130980Y466858D02*
X1144860Y466858D01*
X1144860Y469370D02*
X1130980Y469370D01*
X1130980Y471882D02*
X1144860Y471882D01*
X1144860Y474394D02*
X1130980Y474394D01*
X1130980Y476906D02*
X1144860Y476906D01*
X1144860Y479418D02*
X1130980Y479418D01*
X1130980Y481930D02*
X1144860Y481930D01*
X1144860Y484442D02*
X1130980Y484442D01*
X1130980Y486954D02*
X1144860Y486954D01*
X1144860Y489466D02*
X1130980Y489466D01*
X1130980Y491978D02*
X1144860Y491978D01*
X1144860Y494490D02*
X1130980Y494490D01*
X1181780Y456810D02*
X1195660Y456810D01*
X1181780Y456810D02*
X1181780Y495690D01*
X1195660Y495690D01*
X1195660Y456810D01*
X1195660Y459322D02*
X1181780Y459322D01*
X1181780Y461834D02*
X1195660Y461834D01*
X1195660Y464346D02*
X1181780Y464346D01*
X1181780Y466858D02*
X1195660Y466858D01*
X1195660Y469370D02*
X1181780Y469370D01*
X1181780Y471882D02*
X1195660Y471882D01*
X1195660Y474394D02*
X1181780Y474394D01*
X1181780Y476906D02*
X1195660Y476906D01*
X1195660Y479418D02*
X1181780Y479418D01*
X1181780Y481930D02*
X1195660Y481930D01*
X1195660Y484442D02*
X1181780Y484442D01*
X1181780Y486954D02*
X1195660Y486954D01*
X1195660Y489466D02*
X1181780Y489466D01*
X1181780Y491978D02*
X1195660Y491978D01*
X1195660Y494490D02*
X1181780Y494490D01*
X1110744Y307397D02*
X1120559Y297582D01*
X1093068Y270091D01*
X1083253Y279906D01*
X1110744Y307397D01*
X1095580Y272603D02*
X1090556Y272603D01*
X1088044Y275115D02*
X1098092Y275115D01*
X1100604Y277627D02*
X1085532Y277627D01*
X1083486Y280139D02*
X1103116Y280139D01*
X1105628Y282651D02*
X1085998Y282651D01*
X1088510Y285163D02*
X1108140Y285163D01*
X1110652Y287675D02*
X1091022Y287675D01*
X1093534Y290187D02*
X1113164Y290187D01*
X1115676Y292699D02*
X1096046Y292699D01*
X1098558Y295211D02*
X1118188Y295211D01*
X1120418Y297723D02*
X1101070Y297723D01*
X1103582Y300235D02*
X1117906Y300235D01*
X1115394Y302747D02*
X1106094Y302747D01*
X1108606Y305259D02*
X1112882Y305259D01*
X1084637Y333504D02*
X1074822Y343319D01*
X1084637Y333504D02*
X1057146Y306013D01*
X1047331Y315828D01*
X1074822Y343319D01*
X1059658Y308525D02*
X1054634Y308525D01*
X1052122Y311037D02*
X1062170Y311037D01*
X1064682Y313549D02*
X1049610Y313549D01*
X1047564Y316061D02*
X1067194Y316061D01*
X1069706Y318573D02*
X1050076Y318573D01*
X1052588Y321085D02*
X1072218Y321085D01*
X1074730Y323597D02*
X1055100Y323597D01*
X1057612Y326109D02*
X1077242Y326109D01*
X1079754Y328621D02*
X1060124Y328621D01*
X1062636Y331133D02*
X1082266Y331133D01*
X1084496Y333645D02*
X1065148Y333645D01*
X1067660Y336157D02*
X1081984Y336157D01*
X1079472Y338669D02*
X1070172Y338669D01*
X1072684Y341181D02*
X1076960Y341181D01*
X1242003Y333504D02*
X1251818Y343319D01*
X1279309Y315828D01*
X1269494Y306013D01*
X1242003Y333504D01*
X1266982Y308525D02*
X1272006Y308525D01*
X1274518Y311037D02*
X1264470Y311037D01*
X1261958Y313549D02*
X1277030Y313549D01*
X1279076Y316061D02*
X1259446Y316061D01*
X1256934Y318573D02*
X1276564Y318573D01*
X1274052Y321085D02*
X1254422Y321085D01*
X1251910Y323597D02*
X1271540Y323597D01*
X1269028Y326109D02*
X1249398Y326109D01*
X1246886Y328621D02*
X1266516Y328621D01*
X1264004Y331133D02*
X1244374Y331133D01*
X1242144Y333645D02*
X1261492Y333645D01*
X1258980Y336157D02*
X1244656Y336157D01*
X1247168Y338669D02*
X1256468Y338669D01*
X1253956Y341181D02*
X1249680Y341181D01*
X1215896Y307397D02*
X1206081Y297582D01*
X1215896Y307397D02*
X1243387Y279906D01*
X1233572Y270091D01*
X1206081Y297582D01*
X1231060Y272603D02*
X1236084Y272603D01*
X1238596Y275115D02*
X1228548Y275115D01*
X1226036Y277627D02*
X1241108Y277627D01*
X1243154Y280139D02*
X1223524Y280139D01*
X1221012Y282651D02*
X1240642Y282651D01*
X1238130Y285163D02*
X1218500Y285163D01*
X1215988Y287675D02*
X1235618Y287675D01*
X1233106Y290187D02*
X1213476Y290187D01*
X1210964Y292699D02*
X1230594Y292699D01*
X1228082Y295211D02*
X1208452Y295211D01*
X1206222Y297723D02*
X1225570Y297723D01*
X1223058Y300235D02*
X1208734Y300235D01*
X1211246Y302747D02*
X1220546Y302747D01*
X1218034Y305259D02*
X1213758Y305259D01*
D11*
X1199017Y321808D02*
X1193409Y321808D01*
X1193409Y333512D01*
X1199017Y333512D01*
X1199017Y321808D01*
X1199017Y324202D02*
X1193409Y324202D01*
X1193409Y326596D02*
X1199017Y326596D01*
X1199017Y328990D02*
X1193409Y328990D01*
X1193409Y331384D02*
X1199017Y331384D01*
X1203823Y321808D02*
X1209431Y321808D01*
X1203823Y321808D02*
X1203823Y333512D01*
X1209431Y333512D01*
X1209431Y321808D01*
X1209431Y324202D02*
X1203823Y324202D01*
X1203823Y326596D02*
X1209431Y326596D01*
X1209431Y328990D02*
X1203823Y328990D01*
X1203823Y331384D02*
X1209431Y331384D01*
X1123833Y321808D02*
X1118479Y321808D01*
X1118479Y333512D01*
X1123833Y333512D01*
X1123833Y321808D01*
X1123833Y324202D02*
X1118479Y324202D01*
X1118479Y326596D02*
X1123833Y326596D01*
X1123833Y328990D02*
X1118479Y328990D01*
X1118479Y331384D02*
X1123833Y331384D01*
X1126607Y321808D02*
X1131961Y321808D01*
X1126607Y321808D02*
X1126607Y333512D01*
X1131961Y333512D01*
X1131961Y321808D01*
X1131961Y324202D02*
X1126607Y324202D01*
X1126607Y326596D02*
X1131961Y326596D01*
X1131961Y328990D02*
X1126607Y328990D01*
X1126607Y331384D02*
X1131961Y331384D01*
D12*
X1277620Y373380D03*
X1277620Y398780D03*
D13*
X1049020Y462280D03*
X1277620Y347980D03*
D14*
X1264920Y487680D03*
X1061720Y487680D03*
D11*
X1100699Y414518D02*
X1106053Y414518D01*
X1100699Y414518D02*
X1100699Y426222D01*
X1106053Y426222D01*
X1106053Y414518D01*
X1106053Y416912D02*
X1100699Y416912D01*
X1100699Y419306D02*
X1106053Y419306D01*
X1106053Y421700D02*
X1100699Y421700D01*
X1100699Y424094D02*
X1106053Y424094D01*
X1108827Y414518D02*
X1114181Y414518D01*
X1108827Y414518D02*
X1108827Y426222D01*
X1114181Y426222D01*
X1114181Y414518D01*
X1114181Y416912D02*
X1108827Y416912D01*
X1108827Y419306D02*
X1114181Y419306D01*
X1114181Y421700D02*
X1108827Y421700D01*
X1108827Y424094D02*
X1114181Y424094D01*
D10*
X1390060Y456810D02*
X1403940Y456810D01*
X1390060Y456810D02*
X1390060Y495690D01*
X1403940Y495690D01*
X1403940Y456810D01*
X1403940Y459322D02*
X1390060Y459322D01*
X1390060Y461834D02*
X1403940Y461834D01*
X1403940Y464346D02*
X1390060Y464346D01*
X1390060Y466858D02*
X1403940Y466858D01*
X1403940Y469370D02*
X1390060Y469370D01*
X1390060Y471882D02*
X1403940Y471882D01*
X1403940Y474394D02*
X1390060Y474394D01*
X1390060Y476906D02*
X1403940Y476906D01*
X1403940Y479418D02*
X1390060Y479418D01*
X1390060Y481930D02*
X1403940Y481930D01*
X1403940Y484442D02*
X1390060Y484442D01*
X1390060Y486954D02*
X1403940Y486954D01*
X1403940Y489466D02*
X1390060Y489466D01*
X1390060Y491978D02*
X1403940Y491978D01*
X1403940Y494490D02*
X1390060Y494490D01*
X1440860Y456810D02*
X1454740Y456810D01*
X1440860Y456810D02*
X1440860Y495690D01*
X1454740Y495690D01*
X1454740Y456810D01*
X1454740Y459322D02*
X1440860Y459322D01*
X1440860Y461834D02*
X1454740Y461834D01*
X1454740Y464346D02*
X1440860Y464346D01*
X1440860Y466858D02*
X1454740Y466858D01*
X1454740Y469370D02*
X1440860Y469370D01*
X1440860Y471882D02*
X1454740Y471882D01*
X1454740Y474394D02*
X1440860Y474394D01*
X1440860Y476906D02*
X1454740Y476906D01*
X1454740Y479418D02*
X1440860Y479418D01*
X1440860Y481930D02*
X1454740Y481930D01*
X1454740Y484442D02*
X1440860Y484442D01*
X1440860Y486954D02*
X1454740Y486954D01*
X1454740Y489466D02*
X1440860Y489466D01*
X1440860Y491978D02*
X1454740Y491978D01*
X1454740Y494490D02*
X1440860Y494490D01*
X1369824Y307397D02*
X1379639Y297582D01*
X1352148Y270091D01*
X1342333Y279906D01*
X1369824Y307397D01*
X1354660Y272603D02*
X1349636Y272603D01*
X1347124Y275115D02*
X1357172Y275115D01*
X1359684Y277627D02*
X1344612Y277627D01*
X1342566Y280139D02*
X1362196Y280139D01*
X1364708Y282651D02*
X1345078Y282651D01*
X1347590Y285163D02*
X1367220Y285163D01*
X1369732Y287675D02*
X1350102Y287675D01*
X1352614Y290187D02*
X1372244Y290187D01*
X1374756Y292699D02*
X1355126Y292699D01*
X1357638Y295211D02*
X1377268Y295211D01*
X1379498Y297723D02*
X1360150Y297723D01*
X1362662Y300235D02*
X1376986Y300235D01*
X1374474Y302747D02*
X1365174Y302747D01*
X1367686Y305259D02*
X1371962Y305259D01*
X1343717Y333504D02*
X1333902Y343319D01*
X1343717Y333504D02*
X1316226Y306013D01*
X1306411Y315828D01*
X1333902Y343319D01*
X1318738Y308525D02*
X1313714Y308525D01*
X1311202Y311037D02*
X1321250Y311037D01*
X1323762Y313549D02*
X1308690Y313549D01*
X1306644Y316061D02*
X1326274Y316061D01*
X1328786Y318573D02*
X1309156Y318573D01*
X1311668Y321085D02*
X1331298Y321085D01*
X1333810Y323597D02*
X1314180Y323597D01*
X1316692Y326109D02*
X1336322Y326109D01*
X1338834Y328621D02*
X1319204Y328621D01*
X1321716Y331133D02*
X1341346Y331133D01*
X1343576Y333645D02*
X1324228Y333645D01*
X1326740Y336157D02*
X1341064Y336157D01*
X1338552Y338669D02*
X1329252Y338669D01*
X1331764Y341181D02*
X1336040Y341181D01*
X1501083Y333504D02*
X1510898Y343319D01*
X1538389Y315828D01*
X1528574Y306013D01*
X1501083Y333504D01*
X1526062Y308525D02*
X1531086Y308525D01*
X1533598Y311037D02*
X1523550Y311037D01*
X1521038Y313549D02*
X1536110Y313549D01*
X1538156Y316061D02*
X1518526Y316061D01*
X1516014Y318573D02*
X1535644Y318573D01*
X1533132Y321085D02*
X1513502Y321085D01*
X1510990Y323597D02*
X1530620Y323597D01*
X1528108Y326109D02*
X1508478Y326109D01*
X1505966Y328621D02*
X1525596Y328621D01*
X1523084Y331133D02*
X1503454Y331133D01*
X1501224Y333645D02*
X1520572Y333645D01*
X1518060Y336157D02*
X1503736Y336157D01*
X1506248Y338669D02*
X1515548Y338669D01*
X1513036Y341181D02*
X1508760Y341181D01*
X1474976Y307397D02*
X1465161Y297582D01*
X1474976Y307397D02*
X1502467Y279906D01*
X1492652Y270091D01*
X1465161Y297582D01*
X1490140Y272603D02*
X1495164Y272603D01*
X1497676Y275115D02*
X1487628Y275115D01*
X1485116Y277627D02*
X1500188Y277627D01*
X1502234Y280139D02*
X1482604Y280139D01*
X1480092Y282651D02*
X1499722Y282651D01*
X1497210Y285163D02*
X1477580Y285163D01*
X1475068Y287675D02*
X1494698Y287675D01*
X1492186Y290187D02*
X1472556Y290187D01*
X1470044Y292699D02*
X1489674Y292699D01*
X1487162Y295211D02*
X1467532Y295211D01*
X1465302Y297723D02*
X1484650Y297723D01*
X1482138Y300235D02*
X1467814Y300235D01*
X1470326Y302747D02*
X1479626Y302747D01*
X1477114Y305259D02*
X1472838Y305259D01*
D11*
X1458097Y321808D02*
X1452489Y321808D01*
X1452489Y333512D01*
X1458097Y333512D01*
X1458097Y321808D01*
X1458097Y324202D02*
X1452489Y324202D01*
X1452489Y326596D02*
X1458097Y326596D01*
X1458097Y328990D02*
X1452489Y328990D01*
X1452489Y331384D02*
X1458097Y331384D01*
X1462903Y321808D02*
X1468511Y321808D01*
X1462903Y321808D02*
X1462903Y333512D01*
X1468511Y333512D01*
X1468511Y321808D01*
X1468511Y324202D02*
X1462903Y324202D01*
X1462903Y326596D02*
X1468511Y326596D01*
X1468511Y328990D02*
X1462903Y328990D01*
X1462903Y331384D02*
X1468511Y331384D01*
X1382913Y321808D02*
X1377559Y321808D01*
X1377559Y333512D01*
X1382913Y333512D01*
X1382913Y321808D01*
X1382913Y324202D02*
X1377559Y324202D01*
X1377559Y326596D02*
X1382913Y326596D01*
X1382913Y328990D02*
X1377559Y328990D01*
X1377559Y331384D02*
X1382913Y331384D01*
X1385687Y321808D02*
X1391041Y321808D01*
X1385687Y321808D02*
X1385687Y333512D01*
X1391041Y333512D01*
X1391041Y321808D01*
X1391041Y324202D02*
X1385687Y324202D01*
X1385687Y326596D02*
X1391041Y326596D01*
X1391041Y328990D02*
X1385687Y328990D01*
X1385687Y331384D02*
X1391041Y331384D01*
D12*
X1536700Y373380D03*
X1536700Y398780D03*
D13*
X1308100Y462280D03*
X1536700Y347980D03*
D14*
X1524000Y487680D03*
X1320800Y487680D03*
D11*
X1359779Y414518D02*
X1365133Y414518D01*
X1359779Y414518D02*
X1359779Y426222D01*
X1365133Y426222D01*
X1365133Y414518D01*
X1365133Y416912D02*
X1359779Y416912D01*
X1359779Y419306D02*
X1365133Y419306D01*
X1365133Y421700D02*
X1359779Y421700D01*
X1359779Y424094D02*
X1365133Y424094D01*
X1367907Y414518D02*
X1373261Y414518D01*
X1367907Y414518D02*
X1367907Y426222D01*
X1373261Y426222D01*
X1373261Y414518D01*
X1373261Y416912D02*
X1367907Y416912D01*
X1367907Y419306D02*
X1373261Y419306D01*
X1373261Y421700D02*
X1367907Y421700D01*
X1367907Y424094D02*
X1373261Y424094D01*
D10*
X108540Y715890D02*
X94660Y715890D01*
X94660Y754770D01*
X108540Y754770D01*
X108540Y715890D01*
X108540Y718402D02*
X94660Y718402D01*
X94660Y720914D02*
X108540Y720914D01*
X108540Y723426D02*
X94660Y723426D01*
X94660Y725938D02*
X108540Y725938D01*
X108540Y728450D02*
X94660Y728450D01*
X94660Y730962D02*
X108540Y730962D01*
X108540Y733474D02*
X94660Y733474D01*
X94660Y735986D02*
X108540Y735986D01*
X108540Y738498D02*
X94660Y738498D01*
X94660Y741010D02*
X108540Y741010D01*
X108540Y743522D02*
X94660Y743522D01*
X94660Y746034D02*
X108540Y746034D01*
X108540Y748546D02*
X94660Y748546D01*
X94660Y751058D02*
X108540Y751058D01*
X108540Y753570D02*
X94660Y753570D01*
X145460Y715890D02*
X159340Y715890D01*
X145460Y715890D02*
X145460Y754770D01*
X159340Y754770D01*
X159340Y715890D01*
X159340Y718402D02*
X145460Y718402D01*
X145460Y720914D02*
X159340Y720914D01*
X159340Y723426D02*
X145460Y723426D01*
X145460Y725938D02*
X159340Y725938D01*
X159340Y728450D02*
X145460Y728450D01*
X145460Y730962D02*
X159340Y730962D01*
X159340Y733474D02*
X145460Y733474D01*
X145460Y735986D02*
X159340Y735986D01*
X159340Y738498D02*
X145460Y738498D01*
X145460Y741010D02*
X159340Y741010D01*
X159340Y743522D02*
X145460Y743522D01*
X145460Y746034D02*
X159340Y746034D01*
X159340Y748546D02*
X145460Y748546D01*
X145460Y751058D02*
X159340Y751058D01*
X159340Y753570D02*
X145460Y753570D01*
X74424Y566477D02*
X84239Y556662D01*
X56748Y529171D01*
X46933Y538986D01*
X74424Y566477D01*
X59260Y531683D02*
X54236Y531683D01*
X51724Y534195D02*
X61772Y534195D01*
X64284Y536707D02*
X49212Y536707D01*
X47166Y539219D02*
X66796Y539219D01*
X69308Y541731D02*
X49678Y541731D01*
X52190Y544243D02*
X71820Y544243D01*
X74332Y546755D02*
X54702Y546755D01*
X57214Y549267D02*
X76844Y549267D01*
X79356Y551779D02*
X59726Y551779D01*
X62238Y554291D02*
X81868Y554291D01*
X84098Y556803D02*
X64750Y556803D01*
X67262Y559315D02*
X81586Y559315D01*
X79074Y561827D02*
X69774Y561827D01*
X72286Y564339D02*
X76562Y564339D01*
X48317Y592584D02*
X38502Y602399D01*
X48317Y592584D02*
X20826Y565093D01*
X11011Y574908D01*
X38502Y602399D01*
X23338Y567605D02*
X18314Y567605D01*
X15802Y570117D02*
X25850Y570117D01*
X28362Y572629D02*
X13290Y572629D01*
X11244Y575141D02*
X30874Y575141D01*
X33386Y577653D02*
X13756Y577653D01*
X16268Y580165D02*
X35898Y580165D01*
X38410Y582677D02*
X18780Y582677D01*
X21292Y585189D02*
X40922Y585189D01*
X43434Y587701D02*
X23804Y587701D01*
X26316Y590213D02*
X45946Y590213D01*
X48176Y592725D02*
X28828Y592725D01*
X31340Y595237D02*
X45664Y595237D01*
X43152Y597749D02*
X33852Y597749D01*
X36364Y600261D02*
X40640Y600261D01*
X205683Y592584D02*
X215498Y602399D01*
X242989Y574908D01*
X233174Y565093D01*
X205683Y592584D01*
X230662Y567605D02*
X235686Y567605D01*
X238198Y570117D02*
X228150Y570117D01*
X225638Y572629D02*
X240710Y572629D01*
X242756Y575141D02*
X223126Y575141D01*
X220614Y577653D02*
X240244Y577653D01*
X237732Y580165D02*
X218102Y580165D01*
X215590Y582677D02*
X235220Y582677D01*
X232708Y585189D02*
X213078Y585189D01*
X210566Y587701D02*
X230196Y587701D01*
X227684Y590213D02*
X208054Y590213D01*
X205824Y592725D02*
X225172Y592725D01*
X222660Y595237D02*
X208336Y595237D01*
X210848Y597749D02*
X220148Y597749D01*
X217636Y600261D02*
X213360Y600261D01*
X179576Y566477D02*
X169761Y556662D01*
X179576Y566477D02*
X207067Y538986D01*
X197252Y529171D01*
X169761Y556662D01*
X194740Y531683D02*
X199764Y531683D01*
X202276Y534195D02*
X192228Y534195D01*
X189716Y536707D02*
X204788Y536707D01*
X206834Y539219D02*
X187204Y539219D01*
X184692Y541731D02*
X204322Y541731D01*
X201810Y544243D02*
X182180Y544243D01*
X179668Y546755D02*
X199298Y546755D01*
X196786Y549267D02*
X177156Y549267D01*
X174644Y551779D02*
X194274Y551779D01*
X191762Y554291D02*
X172132Y554291D01*
X169902Y556803D02*
X189250Y556803D01*
X186738Y559315D02*
X172414Y559315D01*
X174926Y561827D02*
X184226Y561827D01*
X181714Y564339D02*
X177438Y564339D01*
D11*
X162697Y580888D02*
X157089Y580888D01*
X157089Y592592D01*
X162697Y592592D01*
X162697Y580888D01*
X162697Y583282D02*
X157089Y583282D01*
X157089Y585676D02*
X162697Y585676D01*
X162697Y588070D02*
X157089Y588070D01*
X157089Y590464D02*
X162697Y590464D01*
X167503Y580888D02*
X173111Y580888D01*
X167503Y580888D02*
X167503Y592592D01*
X173111Y592592D01*
X173111Y580888D01*
X173111Y583282D02*
X167503Y583282D01*
X167503Y585676D02*
X173111Y585676D01*
X173111Y588070D02*
X167503Y588070D01*
X167503Y590464D02*
X173111Y590464D01*
X87513Y580888D02*
X82159Y580888D01*
X82159Y592592D01*
X87513Y592592D01*
X87513Y580888D01*
X87513Y583282D02*
X82159Y583282D01*
X82159Y585676D02*
X87513Y585676D01*
X87513Y588070D02*
X82159Y588070D01*
X82159Y590464D02*
X87513Y590464D01*
X90287Y580888D02*
X95641Y580888D01*
X90287Y580888D02*
X90287Y592592D01*
X95641Y592592D01*
X95641Y580888D01*
X95641Y583282D02*
X90287Y583282D01*
X90287Y585676D02*
X95641Y585676D01*
X95641Y588070D02*
X90287Y588070D01*
X90287Y590464D02*
X95641Y590464D01*
D12*
X241300Y632460D03*
X241300Y657860D03*
D13*
X12700Y721360D03*
X241300Y607060D03*
D14*
X228600Y746760D03*
X25400Y746760D03*
D11*
X64379Y673598D02*
X69733Y673598D01*
X64379Y673598D02*
X64379Y685302D01*
X69733Y685302D01*
X69733Y673598D01*
X69733Y675992D02*
X64379Y675992D01*
X64379Y678386D02*
X69733Y678386D01*
X69733Y680780D02*
X64379Y680780D01*
X64379Y683174D02*
X69733Y683174D01*
X72507Y673598D02*
X77861Y673598D01*
X72507Y673598D02*
X72507Y685302D01*
X77861Y685302D01*
X77861Y673598D01*
X77861Y675992D02*
X72507Y675992D01*
X72507Y678386D02*
X77861Y678386D01*
X77861Y680780D02*
X72507Y680780D01*
X72507Y683174D02*
X77861Y683174D01*
D10*
X353740Y715890D02*
X367620Y715890D01*
X353740Y715890D02*
X353740Y754770D01*
X367620Y754770D01*
X367620Y715890D01*
X367620Y718402D02*
X353740Y718402D01*
X353740Y720914D02*
X367620Y720914D01*
X367620Y723426D02*
X353740Y723426D01*
X353740Y725938D02*
X367620Y725938D01*
X367620Y728450D02*
X353740Y728450D01*
X353740Y730962D02*
X367620Y730962D01*
X367620Y733474D02*
X353740Y733474D01*
X353740Y735986D02*
X367620Y735986D01*
X367620Y738498D02*
X353740Y738498D01*
X353740Y741010D02*
X367620Y741010D01*
X367620Y743522D02*
X353740Y743522D01*
X353740Y746034D02*
X367620Y746034D01*
X367620Y748546D02*
X353740Y748546D01*
X353740Y751058D02*
X367620Y751058D01*
X367620Y753570D02*
X353740Y753570D01*
X404540Y715890D02*
X418420Y715890D01*
X404540Y715890D02*
X404540Y754770D01*
X418420Y754770D01*
X418420Y715890D01*
X418420Y718402D02*
X404540Y718402D01*
X404540Y720914D02*
X418420Y720914D01*
X418420Y723426D02*
X404540Y723426D01*
X404540Y725938D02*
X418420Y725938D01*
X418420Y728450D02*
X404540Y728450D01*
X404540Y730962D02*
X418420Y730962D01*
X418420Y733474D02*
X404540Y733474D01*
X404540Y735986D02*
X418420Y735986D01*
X418420Y738498D02*
X404540Y738498D01*
X404540Y741010D02*
X418420Y741010D01*
X418420Y743522D02*
X404540Y743522D01*
X404540Y746034D02*
X418420Y746034D01*
X418420Y748546D02*
X404540Y748546D01*
X404540Y751058D02*
X418420Y751058D01*
X418420Y753570D02*
X404540Y753570D01*
X333504Y566477D02*
X343319Y556662D01*
X315828Y529171D01*
X306013Y538986D01*
X333504Y566477D01*
X318340Y531683D02*
X313316Y531683D01*
X310804Y534195D02*
X320852Y534195D01*
X323364Y536707D02*
X308292Y536707D01*
X306246Y539219D02*
X325876Y539219D01*
X328388Y541731D02*
X308758Y541731D01*
X311270Y544243D02*
X330900Y544243D01*
X333412Y546755D02*
X313782Y546755D01*
X316294Y549267D02*
X335924Y549267D01*
X338436Y551779D02*
X318806Y551779D01*
X321318Y554291D02*
X340948Y554291D01*
X343178Y556803D02*
X323830Y556803D01*
X326342Y559315D02*
X340666Y559315D01*
X338154Y561827D02*
X328854Y561827D01*
X331366Y564339D02*
X335642Y564339D01*
X307397Y592584D02*
X297582Y602399D01*
X307397Y592584D02*
X279906Y565093D01*
X270091Y574908D01*
X297582Y602399D01*
X282418Y567605D02*
X277394Y567605D01*
X274882Y570117D02*
X284930Y570117D01*
X287442Y572629D02*
X272370Y572629D01*
X270324Y575141D02*
X289954Y575141D01*
X292466Y577653D02*
X272836Y577653D01*
X275348Y580165D02*
X294978Y580165D01*
X297490Y582677D02*
X277860Y582677D01*
X280372Y585189D02*
X300002Y585189D01*
X302514Y587701D02*
X282884Y587701D01*
X285396Y590213D02*
X305026Y590213D01*
X307256Y592725D02*
X287908Y592725D01*
X290420Y595237D02*
X304744Y595237D01*
X302232Y597749D02*
X292932Y597749D01*
X295444Y600261D02*
X299720Y600261D01*
X464763Y592584D02*
X474578Y602399D01*
X502069Y574908D01*
X492254Y565093D01*
X464763Y592584D01*
X489742Y567605D02*
X494766Y567605D01*
X497278Y570117D02*
X487230Y570117D01*
X484718Y572629D02*
X499790Y572629D01*
X501836Y575141D02*
X482206Y575141D01*
X479694Y577653D02*
X499324Y577653D01*
X496812Y580165D02*
X477182Y580165D01*
X474670Y582677D02*
X494300Y582677D01*
X491788Y585189D02*
X472158Y585189D01*
X469646Y587701D02*
X489276Y587701D01*
X486764Y590213D02*
X467134Y590213D01*
X464904Y592725D02*
X484252Y592725D01*
X481740Y595237D02*
X467416Y595237D01*
X469928Y597749D02*
X479228Y597749D01*
X476716Y600261D02*
X472440Y600261D01*
X438656Y566477D02*
X428841Y556662D01*
X438656Y566477D02*
X466147Y538986D01*
X456332Y529171D01*
X428841Y556662D01*
X453820Y531683D02*
X458844Y531683D01*
X461356Y534195D02*
X451308Y534195D01*
X448796Y536707D02*
X463868Y536707D01*
X465914Y539219D02*
X446284Y539219D01*
X443772Y541731D02*
X463402Y541731D01*
X460890Y544243D02*
X441260Y544243D01*
X438748Y546755D02*
X458378Y546755D01*
X455866Y549267D02*
X436236Y549267D01*
X433724Y551779D02*
X453354Y551779D01*
X450842Y554291D02*
X431212Y554291D01*
X428982Y556803D02*
X448330Y556803D01*
X445818Y559315D02*
X431494Y559315D01*
X434006Y561827D02*
X443306Y561827D01*
X440794Y564339D02*
X436518Y564339D01*
D11*
X421777Y580888D02*
X416169Y580888D01*
X416169Y592592D01*
X421777Y592592D01*
X421777Y580888D01*
X421777Y583282D02*
X416169Y583282D01*
X416169Y585676D02*
X421777Y585676D01*
X421777Y588070D02*
X416169Y588070D01*
X416169Y590464D02*
X421777Y590464D01*
X426583Y580888D02*
X432191Y580888D01*
X426583Y580888D02*
X426583Y592592D01*
X432191Y592592D01*
X432191Y580888D01*
X432191Y583282D02*
X426583Y583282D01*
X426583Y585676D02*
X432191Y585676D01*
X432191Y588070D02*
X426583Y588070D01*
X426583Y590464D02*
X432191Y590464D01*
X346593Y580888D02*
X341239Y580888D01*
X341239Y592592D01*
X346593Y592592D01*
X346593Y580888D01*
X346593Y583282D02*
X341239Y583282D01*
X341239Y585676D02*
X346593Y585676D01*
X346593Y588070D02*
X341239Y588070D01*
X341239Y590464D02*
X346593Y590464D01*
X349367Y580888D02*
X354721Y580888D01*
X349367Y580888D02*
X349367Y592592D01*
X354721Y592592D01*
X354721Y580888D01*
X354721Y583282D02*
X349367Y583282D01*
X349367Y585676D02*
X354721Y585676D01*
X354721Y588070D02*
X349367Y588070D01*
X349367Y590464D02*
X354721Y590464D01*
D12*
X500380Y632460D03*
X500380Y657860D03*
D13*
X271780Y721360D03*
X500380Y607060D03*
D14*
X487680Y746760D03*
X284480Y746760D03*
D11*
X323459Y673598D02*
X328813Y673598D01*
X323459Y673598D02*
X323459Y685302D01*
X328813Y685302D01*
X328813Y673598D01*
X328813Y675992D02*
X323459Y675992D01*
X323459Y678386D02*
X328813Y678386D01*
X328813Y680780D02*
X323459Y680780D01*
X323459Y683174D02*
X328813Y683174D01*
X331587Y673598D02*
X336941Y673598D01*
X331587Y673598D02*
X331587Y685302D01*
X336941Y685302D01*
X336941Y673598D01*
X336941Y675992D02*
X331587Y675992D01*
X331587Y678386D02*
X336941Y678386D01*
X336941Y680780D02*
X331587Y680780D01*
X331587Y683174D02*
X336941Y683174D01*
D10*
X612820Y715890D02*
X626700Y715890D01*
X612820Y715890D02*
X612820Y754770D01*
X626700Y754770D01*
X626700Y715890D01*
X626700Y718402D02*
X612820Y718402D01*
X612820Y720914D02*
X626700Y720914D01*
X626700Y723426D02*
X612820Y723426D01*
X612820Y725938D02*
X626700Y725938D01*
X626700Y728450D02*
X612820Y728450D01*
X612820Y730962D02*
X626700Y730962D01*
X626700Y733474D02*
X612820Y733474D01*
X612820Y735986D02*
X626700Y735986D01*
X626700Y738498D02*
X612820Y738498D01*
X612820Y741010D02*
X626700Y741010D01*
X626700Y743522D02*
X612820Y743522D01*
X612820Y746034D02*
X626700Y746034D01*
X626700Y748546D02*
X612820Y748546D01*
X612820Y751058D02*
X626700Y751058D01*
X626700Y753570D02*
X612820Y753570D01*
X663620Y715890D02*
X677500Y715890D01*
X663620Y715890D02*
X663620Y754770D01*
X677500Y754770D01*
X677500Y715890D01*
X677500Y718402D02*
X663620Y718402D01*
X663620Y720914D02*
X677500Y720914D01*
X677500Y723426D02*
X663620Y723426D01*
X663620Y725938D02*
X677500Y725938D01*
X677500Y728450D02*
X663620Y728450D01*
X663620Y730962D02*
X677500Y730962D01*
X677500Y733474D02*
X663620Y733474D01*
X663620Y735986D02*
X677500Y735986D01*
X677500Y738498D02*
X663620Y738498D01*
X663620Y741010D02*
X677500Y741010D01*
X677500Y743522D02*
X663620Y743522D01*
X663620Y746034D02*
X677500Y746034D01*
X677500Y748546D02*
X663620Y748546D01*
X663620Y751058D02*
X677500Y751058D01*
X677500Y753570D02*
X663620Y753570D01*
X592584Y566477D02*
X602399Y556662D01*
X574908Y529171D01*
X565093Y538986D01*
X592584Y566477D01*
X577420Y531683D02*
X572396Y531683D01*
X569884Y534195D02*
X579932Y534195D01*
X582444Y536707D02*
X567372Y536707D01*
X565326Y539219D02*
X584956Y539219D01*
X587468Y541731D02*
X567838Y541731D01*
X570350Y544243D02*
X589980Y544243D01*
X592492Y546755D02*
X572862Y546755D01*
X575374Y549267D02*
X595004Y549267D01*
X597516Y551779D02*
X577886Y551779D01*
X580398Y554291D02*
X600028Y554291D01*
X602258Y556803D02*
X582910Y556803D01*
X585422Y559315D02*
X599746Y559315D01*
X597234Y561827D02*
X587934Y561827D01*
X590446Y564339D02*
X594722Y564339D01*
X566477Y592584D02*
X556662Y602399D01*
X566477Y592584D02*
X538986Y565093D01*
X529171Y574908D01*
X556662Y602399D01*
X541498Y567605D02*
X536474Y567605D01*
X533962Y570117D02*
X544010Y570117D01*
X546522Y572629D02*
X531450Y572629D01*
X529404Y575141D02*
X549034Y575141D01*
X551546Y577653D02*
X531916Y577653D01*
X534428Y580165D02*
X554058Y580165D01*
X556570Y582677D02*
X536940Y582677D01*
X539452Y585189D02*
X559082Y585189D01*
X561594Y587701D02*
X541964Y587701D01*
X544476Y590213D02*
X564106Y590213D01*
X566336Y592725D02*
X546988Y592725D01*
X549500Y595237D02*
X563824Y595237D01*
X561312Y597749D02*
X552012Y597749D01*
X554524Y600261D02*
X558800Y600261D01*
X723843Y592584D02*
X733658Y602399D01*
X761149Y574908D01*
X751334Y565093D01*
X723843Y592584D01*
X748822Y567605D02*
X753846Y567605D01*
X756358Y570117D02*
X746310Y570117D01*
X743798Y572629D02*
X758870Y572629D01*
X760916Y575141D02*
X741286Y575141D01*
X738774Y577653D02*
X758404Y577653D01*
X755892Y580165D02*
X736262Y580165D01*
X733750Y582677D02*
X753380Y582677D01*
X750868Y585189D02*
X731238Y585189D01*
X728726Y587701D02*
X748356Y587701D01*
X745844Y590213D02*
X726214Y590213D01*
X723984Y592725D02*
X743332Y592725D01*
X740820Y595237D02*
X726496Y595237D01*
X729008Y597749D02*
X738308Y597749D01*
X735796Y600261D02*
X731520Y600261D01*
X697736Y566477D02*
X687921Y556662D01*
X697736Y566477D02*
X725227Y538986D01*
X715412Y529171D01*
X687921Y556662D01*
X712900Y531683D02*
X717924Y531683D01*
X720436Y534195D02*
X710388Y534195D01*
X707876Y536707D02*
X722948Y536707D01*
X724994Y539219D02*
X705364Y539219D01*
X702852Y541731D02*
X722482Y541731D01*
X719970Y544243D02*
X700340Y544243D01*
X697828Y546755D02*
X717458Y546755D01*
X714946Y549267D02*
X695316Y549267D01*
X692804Y551779D02*
X712434Y551779D01*
X709922Y554291D02*
X690292Y554291D01*
X688062Y556803D02*
X707410Y556803D01*
X704898Y559315D02*
X690574Y559315D01*
X693086Y561827D02*
X702386Y561827D01*
X699874Y564339D02*
X695598Y564339D01*
D11*
X680857Y580888D02*
X675249Y580888D01*
X675249Y592592D01*
X680857Y592592D01*
X680857Y580888D01*
X680857Y583282D02*
X675249Y583282D01*
X675249Y585676D02*
X680857Y585676D01*
X680857Y588070D02*
X675249Y588070D01*
X675249Y590464D02*
X680857Y590464D01*
X685663Y580888D02*
X691271Y580888D01*
X685663Y580888D02*
X685663Y592592D01*
X691271Y592592D01*
X691271Y580888D01*
X691271Y583282D02*
X685663Y583282D01*
X685663Y585676D02*
X691271Y585676D01*
X691271Y588070D02*
X685663Y588070D01*
X685663Y590464D02*
X691271Y590464D01*
X605673Y580888D02*
X600319Y580888D01*
X600319Y592592D01*
X605673Y592592D01*
X605673Y580888D01*
X605673Y583282D02*
X600319Y583282D01*
X600319Y585676D02*
X605673Y585676D01*
X605673Y588070D02*
X600319Y588070D01*
X600319Y590464D02*
X605673Y590464D01*
X608447Y580888D02*
X613801Y580888D01*
X608447Y580888D02*
X608447Y592592D01*
X613801Y592592D01*
X613801Y580888D01*
X613801Y583282D02*
X608447Y583282D01*
X608447Y585676D02*
X613801Y585676D01*
X613801Y588070D02*
X608447Y588070D01*
X608447Y590464D02*
X613801Y590464D01*
D12*
X759460Y632460D03*
X759460Y657860D03*
D13*
X530860Y721360D03*
X759460Y607060D03*
D14*
X746760Y746760D03*
X543560Y746760D03*
D11*
X582539Y673598D02*
X587893Y673598D01*
X582539Y673598D02*
X582539Y685302D01*
X587893Y685302D01*
X587893Y673598D01*
X587893Y675992D02*
X582539Y675992D01*
X582539Y678386D02*
X587893Y678386D01*
X587893Y680780D02*
X582539Y680780D01*
X582539Y683174D02*
X587893Y683174D01*
X590667Y673598D02*
X596021Y673598D01*
X590667Y673598D02*
X590667Y685302D01*
X596021Y685302D01*
X596021Y673598D01*
X596021Y675992D02*
X590667Y675992D01*
X590667Y678386D02*
X596021Y678386D01*
X596021Y680780D02*
X590667Y680780D01*
X590667Y683174D02*
X596021Y683174D01*
D10*
X871900Y715890D02*
X885780Y715890D01*
X871900Y715890D02*
X871900Y754770D01*
X885780Y754770D01*
X885780Y715890D01*
X885780Y718402D02*
X871900Y718402D01*
X871900Y720914D02*
X885780Y720914D01*
X885780Y723426D02*
X871900Y723426D01*
X871900Y725938D02*
X885780Y725938D01*
X885780Y728450D02*
X871900Y728450D01*
X871900Y730962D02*
X885780Y730962D01*
X885780Y733474D02*
X871900Y733474D01*
X871900Y735986D02*
X885780Y735986D01*
X885780Y738498D02*
X871900Y738498D01*
X871900Y741010D02*
X885780Y741010D01*
X885780Y743522D02*
X871900Y743522D01*
X871900Y746034D02*
X885780Y746034D01*
X885780Y748546D02*
X871900Y748546D01*
X871900Y751058D02*
X885780Y751058D01*
X885780Y753570D02*
X871900Y753570D01*
X922700Y715890D02*
X936580Y715890D01*
X922700Y715890D02*
X922700Y754770D01*
X936580Y754770D01*
X936580Y715890D01*
X936580Y718402D02*
X922700Y718402D01*
X922700Y720914D02*
X936580Y720914D01*
X936580Y723426D02*
X922700Y723426D01*
X922700Y725938D02*
X936580Y725938D01*
X936580Y728450D02*
X922700Y728450D01*
X922700Y730962D02*
X936580Y730962D01*
X936580Y733474D02*
X922700Y733474D01*
X922700Y735986D02*
X936580Y735986D01*
X936580Y738498D02*
X922700Y738498D01*
X922700Y741010D02*
X936580Y741010D01*
X936580Y743522D02*
X922700Y743522D01*
X922700Y746034D02*
X936580Y746034D01*
X936580Y748546D02*
X922700Y748546D01*
X922700Y751058D02*
X936580Y751058D01*
X936580Y753570D02*
X922700Y753570D01*
X851664Y566477D02*
X861479Y556662D01*
X833988Y529171D01*
X824173Y538986D01*
X851664Y566477D01*
X836500Y531683D02*
X831476Y531683D01*
X828964Y534195D02*
X839012Y534195D01*
X841524Y536707D02*
X826452Y536707D01*
X824406Y539219D02*
X844036Y539219D01*
X846548Y541731D02*
X826918Y541731D01*
X829430Y544243D02*
X849060Y544243D01*
X851572Y546755D02*
X831942Y546755D01*
X834454Y549267D02*
X854084Y549267D01*
X856596Y551779D02*
X836966Y551779D01*
X839478Y554291D02*
X859108Y554291D01*
X861338Y556803D02*
X841990Y556803D01*
X844502Y559315D02*
X858826Y559315D01*
X856314Y561827D02*
X847014Y561827D01*
X849526Y564339D02*
X853802Y564339D01*
X825557Y592584D02*
X815742Y602399D01*
X825557Y592584D02*
X798066Y565093D01*
X788251Y574908D01*
X815742Y602399D01*
X800578Y567605D02*
X795554Y567605D01*
X793042Y570117D02*
X803090Y570117D01*
X805602Y572629D02*
X790530Y572629D01*
X788484Y575141D02*
X808114Y575141D01*
X810626Y577653D02*
X790996Y577653D01*
X793508Y580165D02*
X813138Y580165D01*
X815650Y582677D02*
X796020Y582677D01*
X798532Y585189D02*
X818162Y585189D01*
X820674Y587701D02*
X801044Y587701D01*
X803556Y590213D02*
X823186Y590213D01*
X825416Y592725D02*
X806068Y592725D01*
X808580Y595237D02*
X822904Y595237D01*
X820392Y597749D02*
X811092Y597749D01*
X813604Y600261D02*
X817880Y600261D01*
X982923Y592584D02*
X992738Y602399D01*
X1020229Y574908D01*
X1010414Y565093D01*
X982923Y592584D01*
X1007902Y567605D02*
X1012926Y567605D01*
X1015438Y570117D02*
X1005390Y570117D01*
X1002878Y572629D02*
X1017950Y572629D01*
X1019996Y575141D02*
X1000366Y575141D01*
X997854Y577653D02*
X1017484Y577653D01*
X1014972Y580165D02*
X995342Y580165D01*
X992830Y582677D02*
X1012460Y582677D01*
X1009948Y585189D02*
X990318Y585189D01*
X987806Y587701D02*
X1007436Y587701D01*
X1004924Y590213D02*
X985294Y590213D01*
X983064Y592725D02*
X1002412Y592725D01*
X999900Y595237D02*
X985576Y595237D01*
X988088Y597749D02*
X997388Y597749D01*
X994876Y600261D02*
X990600Y600261D01*
X956816Y566477D02*
X947001Y556662D01*
X956816Y566477D02*
X984307Y538986D01*
X974492Y529171D01*
X947001Y556662D01*
X971980Y531683D02*
X977004Y531683D01*
X979516Y534195D02*
X969468Y534195D01*
X966956Y536707D02*
X982028Y536707D01*
X984074Y539219D02*
X964444Y539219D01*
X961932Y541731D02*
X981562Y541731D01*
X979050Y544243D02*
X959420Y544243D01*
X956908Y546755D02*
X976538Y546755D01*
X974026Y549267D02*
X954396Y549267D01*
X951884Y551779D02*
X971514Y551779D01*
X969002Y554291D02*
X949372Y554291D01*
X947142Y556803D02*
X966490Y556803D01*
X963978Y559315D02*
X949654Y559315D01*
X952166Y561827D02*
X961466Y561827D01*
X958954Y564339D02*
X954678Y564339D01*
D11*
X939937Y580888D02*
X934329Y580888D01*
X934329Y592592D01*
X939937Y592592D01*
X939937Y580888D01*
X939937Y583282D02*
X934329Y583282D01*
X934329Y585676D02*
X939937Y585676D01*
X939937Y588070D02*
X934329Y588070D01*
X934329Y590464D02*
X939937Y590464D01*
X944743Y580888D02*
X950351Y580888D01*
X944743Y580888D02*
X944743Y592592D01*
X950351Y592592D01*
X950351Y580888D01*
X950351Y583282D02*
X944743Y583282D01*
X944743Y585676D02*
X950351Y585676D01*
X950351Y588070D02*
X944743Y588070D01*
X944743Y590464D02*
X950351Y590464D01*
X864753Y580888D02*
X859399Y580888D01*
X859399Y592592D01*
X864753Y592592D01*
X864753Y580888D01*
X864753Y583282D02*
X859399Y583282D01*
X859399Y585676D02*
X864753Y585676D01*
X864753Y588070D02*
X859399Y588070D01*
X859399Y590464D02*
X864753Y590464D01*
X867527Y580888D02*
X872881Y580888D01*
X867527Y580888D02*
X867527Y592592D01*
X872881Y592592D01*
X872881Y580888D01*
X872881Y583282D02*
X867527Y583282D01*
X867527Y585676D02*
X872881Y585676D01*
X872881Y588070D02*
X867527Y588070D01*
X867527Y590464D02*
X872881Y590464D01*
D12*
X1018540Y632460D03*
X1018540Y657860D03*
D13*
X789940Y721360D03*
X1018540Y607060D03*
D14*
X1005840Y746760D03*
X802640Y746760D03*
D11*
X841619Y673598D02*
X846973Y673598D01*
X841619Y673598D02*
X841619Y685302D01*
X846973Y685302D01*
X846973Y673598D01*
X846973Y675992D02*
X841619Y675992D01*
X841619Y678386D02*
X846973Y678386D01*
X846973Y680780D02*
X841619Y680780D01*
X841619Y683174D02*
X846973Y683174D01*
X849747Y673598D02*
X855101Y673598D01*
X849747Y673598D02*
X849747Y685302D01*
X855101Y685302D01*
X855101Y673598D01*
X855101Y675992D02*
X849747Y675992D01*
X849747Y678386D02*
X855101Y678386D01*
X855101Y680780D02*
X849747Y680780D01*
X849747Y683174D02*
X855101Y683174D01*
D10*
X1130980Y715890D02*
X1144860Y715890D01*
X1130980Y715890D02*
X1130980Y754770D01*
X1144860Y754770D01*
X1144860Y715890D01*
X1144860Y718402D02*
X1130980Y718402D01*
X1130980Y720914D02*
X1144860Y720914D01*
X1144860Y723426D02*
X1130980Y723426D01*
X1130980Y725938D02*
X1144860Y725938D01*
X1144860Y728450D02*
X1130980Y728450D01*
X1130980Y730962D02*
X1144860Y730962D01*
X1144860Y733474D02*
X1130980Y733474D01*
X1130980Y735986D02*
X1144860Y735986D01*
X1144860Y738498D02*
X1130980Y738498D01*
X1130980Y741010D02*
X1144860Y741010D01*
X1144860Y743522D02*
X1130980Y743522D01*
X1130980Y746034D02*
X1144860Y746034D01*
X1144860Y748546D02*
X1130980Y748546D01*
X1130980Y751058D02*
X1144860Y751058D01*
X1144860Y753570D02*
X1130980Y753570D01*
X1181780Y715890D02*
X1195660Y715890D01*
X1181780Y715890D02*
X1181780Y754770D01*
X1195660Y754770D01*
X1195660Y715890D01*
X1195660Y718402D02*
X1181780Y718402D01*
X1181780Y720914D02*
X1195660Y720914D01*
X1195660Y723426D02*
X1181780Y723426D01*
X1181780Y725938D02*
X1195660Y725938D01*
X1195660Y728450D02*
X1181780Y728450D01*
X1181780Y730962D02*
X1195660Y730962D01*
X1195660Y733474D02*
X1181780Y733474D01*
X1181780Y735986D02*
X1195660Y735986D01*
X1195660Y738498D02*
X1181780Y738498D01*
X1181780Y741010D02*
X1195660Y741010D01*
X1195660Y743522D02*
X1181780Y743522D01*
X1181780Y746034D02*
X1195660Y746034D01*
X1195660Y748546D02*
X1181780Y748546D01*
X1181780Y751058D02*
X1195660Y751058D01*
X1195660Y753570D02*
X1181780Y753570D01*
X1110744Y566477D02*
X1120559Y556662D01*
X1093068Y529171D01*
X1083253Y538986D01*
X1110744Y566477D01*
X1095580Y531683D02*
X1090556Y531683D01*
X1088044Y534195D02*
X1098092Y534195D01*
X1100604Y536707D02*
X1085532Y536707D01*
X1083486Y539219D02*
X1103116Y539219D01*
X1105628Y541731D02*
X1085998Y541731D01*
X1088510Y544243D02*
X1108140Y544243D01*
X1110652Y546755D02*
X1091022Y546755D01*
X1093534Y549267D02*
X1113164Y549267D01*
X1115676Y551779D02*
X1096046Y551779D01*
X1098558Y554291D02*
X1118188Y554291D01*
X1120418Y556803D02*
X1101070Y556803D01*
X1103582Y559315D02*
X1117906Y559315D01*
X1115394Y561827D02*
X1106094Y561827D01*
X1108606Y564339D02*
X1112882Y564339D01*
X1084637Y592584D02*
X1074822Y602399D01*
X1084637Y592584D02*
X1057146Y565093D01*
X1047331Y574908D01*
X1074822Y602399D01*
X1059658Y567605D02*
X1054634Y567605D01*
X1052122Y570117D02*
X1062170Y570117D01*
X1064682Y572629D02*
X1049610Y572629D01*
X1047564Y575141D02*
X1067194Y575141D01*
X1069706Y577653D02*
X1050076Y577653D01*
X1052588Y580165D02*
X1072218Y580165D01*
X1074730Y582677D02*
X1055100Y582677D01*
X1057612Y585189D02*
X1077242Y585189D01*
X1079754Y587701D02*
X1060124Y587701D01*
X1062636Y590213D02*
X1082266Y590213D01*
X1084496Y592725D02*
X1065148Y592725D01*
X1067660Y595237D02*
X1081984Y595237D01*
X1079472Y597749D02*
X1070172Y597749D01*
X1072684Y600261D02*
X1076960Y600261D01*
X1242003Y592584D02*
X1251818Y602399D01*
X1279309Y574908D01*
X1269494Y565093D01*
X1242003Y592584D01*
X1266982Y567605D02*
X1272006Y567605D01*
X1274518Y570117D02*
X1264470Y570117D01*
X1261958Y572629D02*
X1277030Y572629D01*
X1279076Y575141D02*
X1259446Y575141D01*
X1256934Y577653D02*
X1276564Y577653D01*
X1274052Y580165D02*
X1254422Y580165D01*
X1251910Y582677D02*
X1271540Y582677D01*
X1269028Y585189D02*
X1249398Y585189D01*
X1246886Y587701D02*
X1266516Y587701D01*
X1264004Y590213D02*
X1244374Y590213D01*
X1242144Y592725D02*
X1261492Y592725D01*
X1258980Y595237D02*
X1244656Y595237D01*
X1247168Y597749D02*
X1256468Y597749D01*
X1253956Y600261D02*
X1249680Y600261D01*
X1215896Y566477D02*
X1206081Y556662D01*
X1215896Y566477D02*
X1243387Y538986D01*
X1233572Y529171D01*
X1206081Y556662D01*
X1231060Y531683D02*
X1236084Y531683D01*
X1238596Y534195D02*
X1228548Y534195D01*
X1226036Y536707D02*
X1241108Y536707D01*
X1243154Y539219D02*
X1223524Y539219D01*
X1221012Y541731D02*
X1240642Y541731D01*
X1238130Y544243D02*
X1218500Y544243D01*
X1215988Y546755D02*
X1235618Y546755D01*
X1233106Y549267D02*
X1213476Y549267D01*
X1210964Y551779D02*
X1230594Y551779D01*
X1228082Y554291D02*
X1208452Y554291D01*
X1206222Y556803D02*
X1225570Y556803D01*
X1223058Y559315D02*
X1208734Y559315D01*
X1211246Y561827D02*
X1220546Y561827D01*
X1218034Y564339D02*
X1213758Y564339D01*
D11*
X1199017Y580888D02*
X1193409Y580888D01*
X1193409Y592592D01*
X1199017Y592592D01*
X1199017Y580888D01*
X1199017Y583282D02*
X1193409Y583282D01*
X1193409Y585676D02*
X1199017Y585676D01*
X1199017Y588070D02*
X1193409Y588070D01*
X1193409Y590464D02*
X1199017Y590464D01*
X1203823Y580888D02*
X1209431Y580888D01*
X1203823Y580888D02*
X1203823Y592592D01*
X1209431Y592592D01*
X1209431Y580888D01*
X1209431Y583282D02*
X1203823Y583282D01*
X1203823Y585676D02*
X1209431Y585676D01*
X1209431Y588070D02*
X1203823Y588070D01*
X1203823Y590464D02*
X1209431Y590464D01*
X1123833Y580888D02*
X1118479Y580888D01*
X1118479Y592592D01*
X1123833Y592592D01*
X1123833Y580888D01*
X1123833Y583282D02*
X1118479Y583282D01*
X1118479Y585676D02*
X1123833Y585676D01*
X1123833Y588070D02*
X1118479Y588070D01*
X1118479Y590464D02*
X1123833Y590464D01*
X1126607Y580888D02*
X1131961Y580888D01*
X1126607Y580888D02*
X1126607Y592592D01*
X1131961Y592592D01*
X1131961Y580888D01*
X1131961Y583282D02*
X1126607Y583282D01*
X1126607Y585676D02*
X1131961Y585676D01*
X1131961Y588070D02*
X1126607Y588070D01*
X1126607Y590464D02*
X1131961Y590464D01*
D12*
X1277620Y632460D03*
X1277620Y657860D03*
D13*
X1049020Y721360D03*
X1277620Y607060D03*
D14*
X1264920Y746760D03*
X1061720Y746760D03*
D11*
X1100699Y673598D02*
X1106053Y673598D01*
X1100699Y673598D02*
X1100699Y685302D01*
X1106053Y685302D01*
X1106053Y673598D01*
X1106053Y675992D02*
X1100699Y675992D01*
X1100699Y678386D02*
X1106053Y678386D01*
X1106053Y680780D02*
X1100699Y680780D01*
X1100699Y683174D02*
X1106053Y683174D01*
X1108827Y673598D02*
X1114181Y673598D01*
X1108827Y673598D02*
X1108827Y685302D01*
X1114181Y685302D01*
X1114181Y673598D01*
X1114181Y675992D02*
X1108827Y675992D01*
X1108827Y678386D02*
X1114181Y678386D01*
X1114181Y680780D02*
X1108827Y680780D01*
X1108827Y683174D02*
X1114181Y683174D01*
D10*
X1390060Y715890D02*
X1403940Y715890D01*
X1390060Y715890D02*
X1390060Y754770D01*
X1403940Y754770D01*
X1403940Y715890D01*
X1403940Y718402D02*
X1390060Y718402D01*
X1390060Y720914D02*
X1403940Y720914D01*
X1403940Y723426D02*
X1390060Y723426D01*
X1390060Y725938D02*
X1403940Y725938D01*
X1403940Y728450D02*
X1390060Y728450D01*
X1390060Y730962D02*
X1403940Y730962D01*
X1403940Y733474D02*
X1390060Y733474D01*
X1390060Y735986D02*
X1403940Y735986D01*
X1403940Y738498D02*
X1390060Y738498D01*
X1390060Y741010D02*
X1403940Y741010D01*
X1403940Y743522D02*
X1390060Y743522D01*
X1390060Y746034D02*
X1403940Y746034D01*
X1403940Y748546D02*
X1390060Y748546D01*
X1390060Y751058D02*
X1403940Y751058D01*
X1403940Y753570D02*
X1390060Y753570D01*
X1440860Y715890D02*
X1454740Y715890D01*
X1440860Y715890D02*
X1440860Y754770D01*
X1454740Y754770D01*
X1454740Y715890D01*
X1454740Y718402D02*
X1440860Y718402D01*
X1440860Y720914D02*
X1454740Y720914D01*
X1454740Y723426D02*
X1440860Y723426D01*
X1440860Y725938D02*
X1454740Y725938D01*
X1454740Y728450D02*
X1440860Y728450D01*
X1440860Y730962D02*
X1454740Y730962D01*
X1454740Y733474D02*
X1440860Y733474D01*
X1440860Y735986D02*
X1454740Y735986D01*
X1454740Y738498D02*
X1440860Y738498D01*
X1440860Y741010D02*
X1454740Y741010D01*
X1454740Y743522D02*
X1440860Y743522D01*
X1440860Y746034D02*
X1454740Y746034D01*
X1454740Y748546D02*
X1440860Y748546D01*
X1440860Y751058D02*
X1454740Y751058D01*
X1454740Y753570D02*
X1440860Y753570D01*
X1369824Y566477D02*
X1379639Y556662D01*
X1352148Y529171D01*
X1342333Y538986D01*
X1369824Y566477D01*
X1354660Y531683D02*
X1349636Y531683D01*
X1347124Y534195D02*
X1357172Y534195D01*
X1359684Y536707D02*
X1344612Y536707D01*
X1342566Y539219D02*
X1362196Y539219D01*
X1364708Y541731D02*
X1345078Y541731D01*
X1347590Y544243D02*
X1367220Y544243D01*
X1369732Y546755D02*
X1350102Y546755D01*
X1352614Y549267D02*
X1372244Y549267D01*
X1374756Y551779D02*
X1355126Y551779D01*
X1357638Y554291D02*
X1377268Y554291D01*
X1379498Y556803D02*
X1360150Y556803D01*
X1362662Y559315D02*
X1376986Y559315D01*
X1374474Y561827D02*
X1365174Y561827D01*
X1367686Y564339D02*
X1371962Y564339D01*
X1343717Y592584D02*
X1333902Y602399D01*
X1343717Y592584D02*
X1316226Y565093D01*
X1306411Y574908D01*
X1333902Y602399D01*
X1318738Y567605D02*
X1313714Y567605D01*
X1311202Y570117D02*
X1321250Y570117D01*
X1323762Y572629D02*
X1308690Y572629D01*
X1306644Y575141D02*
X1326274Y575141D01*
X1328786Y577653D02*
X1309156Y577653D01*
X1311668Y580165D02*
X1331298Y580165D01*
X1333810Y582677D02*
X1314180Y582677D01*
X1316692Y585189D02*
X1336322Y585189D01*
X1338834Y587701D02*
X1319204Y587701D01*
X1321716Y590213D02*
X1341346Y590213D01*
X1343576Y592725D02*
X1324228Y592725D01*
X1326740Y595237D02*
X1341064Y595237D01*
X1338552Y597749D02*
X1329252Y597749D01*
X1331764Y600261D02*
X1336040Y600261D01*
X1501083Y592584D02*
X1510898Y602399D01*
X1538389Y574908D01*
X1528574Y565093D01*
X1501083Y592584D01*
X1526062Y567605D02*
X1531086Y567605D01*
X1533598Y570117D02*
X1523550Y570117D01*
X1521038Y572629D02*
X1536110Y572629D01*
X1538156Y575141D02*
X1518526Y575141D01*
X1516014Y577653D02*
X1535644Y577653D01*
X1533132Y580165D02*
X1513502Y580165D01*
X1510990Y582677D02*
X1530620Y582677D01*
X1528108Y585189D02*
X1508478Y585189D01*
X1505966Y587701D02*
X1525596Y587701D01*
X1523084Y590213D02*
X1503454Y590213D01*
X1501224Y592725D02*
X1520572Y592725D01*
X1518060Y595237D02*
X1503736Y595237D01*
X1506248Y597749D02*
X1515548Y597749D01*
X1513036Y600261D02*
X1508760Y600261D01*
X1474976Y566477D02*
X1465161Y556662D01*
X1474976Y566477D02*
X1502467Y538986D01*
X1492652Y529171D01*
X1465161Y556662D01*
X1490140Y531683D02*
X1495164Y531683D01*
X1497676Y534195D02*
X1487628Y534195D01*
X1485116Y536707D02*
X1500188Y536707D01*
X1502234Y539219D02*
X1482604Y539219D01*
X1480092Y541731D02*
X1499722Y541731D01*
X1497210Y544243D02*
X1477580Y544243D01*
X1475068Y546755D02*
X1494698Y546755D01*
X1492186Y549267D02*
X1472556Y549267D01*
X1470044Y551779D02*
X1489674Y551779D01*
X1487162Y554291D02*
X1467532Y554291D01*
X1465302Y556803D02*
X1484650Y556803D01*
X1482138Y559315D02*
X1467814Y559315D01*
X1470326Y561827D02*
X1479626Y561827D01*
X1477114Y564339D02*
X1472838Y564339D01*
D11*
X1458097Y580888D02*
X1452489Y580888D01*
X1452489Y592592D01*
X1458097Y592592D01*
X1458097Y580888D01*
X1458097Y583282D02*
X1452489Y583282D01*
X1452489Y585676D02*
X1458097Y585676D01*
X1458097Y588070D02*
X1452489Y588070D01*
X1452489Y590464D02*
X1458097Y590464D01*
X1462903Y580888D02*
X1468511Y580888D01*
X1462903Y580888D02*
X1462903Y592592D01*
X1468511Y592592D01*
X1468511Y580888D01*
X1468511Y583282D02*
X1462903Y583282D01*
X1462903Y585676D02*
X1468511Y585676D01*
X1468511Y588070D02*
X1462903Y588070D01*
X1462903Y590464D02*
X1468511Y590464D01*
X1382913Y580888D02*
X1377559Y580888D01*
X1377559Y592592D01*
X1382913Y592592D01*
X1382913Y580888D01*
X1382913Y583282D02*
X1377559Y583282D01*
X1377559Y585676D02*
X1382913Y585676D01*
X1382913Y588070D02*
X1377559Y588070D01*
X1377559Y590464D02*
X1382913Y590464D01*
X1385687Y580888D02*
X1391041Y580888D01*
X1385687Y580888D02*
X1385687Y592592D01*
X1391041Y592592D01*
X1391041Y580888D01*
X1391041Y583282D02*
X1385687Y583282D01*
X1385687Y585676D02*
X1391041Y585676D01*
X1391041Y588070D02*
X1385687Y588070D01*
X1385687Y590464D02*
X1391041Y590464D01*
D12*
X1536700Y632460D03*
X1536700Y657860D03*
D13*
X1308100Y721360D03*
X1536700Y607060D03*
D14*
X1524000Y746760D03*
X1320800Y746760D03*
D11*
X1359779Y673598D02*
X1365133Y673598D01*
X1359779Y673598D02*
X1359779Y685302D01*
X1365133Y685302D01*
X1365133Y673598D01*
X1365133Y675992D02*
X1359779Y675992D01*
X1359779Y678386D02*
X1365133Y678386D01*
X1365133Y680780D02*
X1359779Y680780D01*
X1359779Y683174D02*
X1365133Y683174D01*
X1367907Y673598D02*
X1373261Y673598D01*
X1367907Y673598D02*
X1367907Y685302D01*
X1373261Y685302D01*
X1373261Y673598D01*
X1373261Y675992D02*
X1367907Y675992D01*
X1367907Y678386D02*
X1373261Y678386D01*
X1373261Y680780D02*
X1367907Y680780D01*
X1367907Y683174D02*
X1373261Y683174D01*
D10*
X108540Y974970D02*
X94660Y974970D01*
X94660Y1013850D01*
X108540Y1013850D01*
X108540Y974970D01*
X108540Y977482D02*
X94660Y977482D01*
X94660Y979994D02*
X108540Y979994D01*
X108540Y982506D02*
X94660Y982506D01*
X94660Y985018D02*
X108540Y985018D01*
X108540Y987530D02*
X94660Y987530D01*
X94660Y990042D02*
X108540Y990042D01*
X108540Y992554D02*
X94660Y992554D01*
X94660Y995066D02*
X108540Y995066D01*
X108540Y997578D02*
X94660Y997578D01*
X94660Y1000090D02*
X108540Y1000090D01*
X108540Y1002602D02*
X94660Y1002602D01*
X94660Y1005114D02*
X108540Y1005114D01*
X108540Y1007626D02*
X94660Y1007626D01*
X94660Y1010138D02*
X108540Y1010138D01*
X108540Y1012650D02*
X94660Y1012650D01*
X145460Y974970D02*
X159340Y974970D01*
X145460Y974970D02*
X145460Y1013850D01*
X159340Y1013850D01*
X159340Y974970D01*
X159340Y977482D02*
X145460Y977482D01*
X145460Y979994D02*
X159340Y979994D01*
X159340Y982506D02*
X145460Y982506D01*
X145460Y985018D02*
X159340Y985018D01*
X159340Y987530D02*
X145460Y987530D01*
X145460Y990042D02*
X159340Y990042D01*
X159340Y992554D02*
X145460Y992554D01*
X145460Y995066D02*
X159340Y995066D01*
X159340Y997578D02*
X145460Y997578D01*
X145460Y1000090D02*
X159340Y1000090D01*
X159340Y1002602D02*
X145460Y1002602D01*
X145460Y1005114D02*
X159340Y1005114D01*
X159340Y1007626D02*
X145460Y1007626D01*
X145460Y1010138D02*
X159340Y1010138D01*
X159340Y1012650D02*
X145460Y1012650D01*
X74424Y825557D02*
X84239Y815742D01*
X56748Y788251D01*
X46933Y798066D01*
X74424Y825557D01*
X59260Y790763D02*
X54236Y790763D01*
X51724Y793275D02*
X61772Y793275D01*
X64284Y795787D02*
X49212Y795787D01*
X47166Y798299D02*
X66796Y798299D01*
X69308Y800811D02*
X49678Y800811D01*
X52190Y803323D02*
X71820Y803323D01*
X74332Y805835D02*
X54702Y805835D01*
X57214Y808347D02*
X76844Y808347D01*
X79356Y810859D02*
X59726Y810859D01*
X62238Y813371D02*
X81868Y813371D01*
X84098Y815883D02*
X64750Y815883D01*
X67262Y818395D02*
X81586Y818395D01*
X79074Y820907D02*
X69774Y820907D01*
X72286Y823419D02*
X76562Y823419D01*
X48317Y851664D02*
X38502Y861479D01*
X48317Y851664D02*
X20826Y824173D01*
X11011Y833988D01*
X38502Y861479D01*
X23338Y826685D02*
X18314Y826685D01*
X15802Y829197D02*
X25850Y829197D01*
X28362Y831709D02*
X13290Y831709D01*
X11244Y834221D02*
X30874Y834221D01*
X33386Y836733D02*
X13756Y836733D01*
X16268Y839245D02*
X35898Y839245D01*
X38410Y841757D02*
X18780Y841757D01*
X21292Y844269D02*
X40922Y844269D01*
X43434Y846781D02*
X23804Y846781D01*
X26316Y849293D02*
X45946Y849293D01*
X48176Y851805D02*
X28828Y851805D01*
X31340Y854317D02*
X45664Y854317D01*
X43152Y856829D02*
X33852Y856829D01*
X36364Y859341D02*
X40640Y859341D01*
X205683Y851664D02*
X215498Y861479D01*
X242989Y833988D01*
X233174Y824173D01*
X205683Y851664D01*
X230662Y826685D02*
X235686Y826685D01*
X238198Y829197D02*
X228150Y829197D01*
X225638Y831709D02*
X240710Y831709D01*
X242756Y834221D02*
X223126Y834221D01*
X220614Y836733D02*
X240244Y836733D01*
X237732Y839245D02*
X218102Y839245D01*
X215590Y841757D02*
X235220Y841757D01*
X232708Y844269D02*
X213078Y844269D01*
X210566Y846781D02*
X230196Y846781D01*
X227684Y849293D02*
X208054Y849293D01*
X205824Y851805D02*
X225172Y851805D01*
X222660Y854317D02*
X208336Y854317D01*
X210848Y856829D02*
X220148Y856829D01*
X217636Y859341D02*
X213360Y859341D01*
X179576Y825557D02*
X169761Y815742D01*
X179576Y825557D02*
X207067Y798066D01*
X197252Y788251D01*
X169761Y815742D01*
X194740Y790763D02*
X199764Y790763D01*
X202276Y793275D02*
X192228Y793275D01*
X189716Y795787D02*
X204788Y795787D01*
X206834Y798299D02*
X187204Y798299D01*
X184692Y800811D02*
X204322Y800811D01*
X201810Y803323D02*
X182180Y803323D01*
X179668Y805835D02*
X199298Y805835D01*
X196786Y808347D02*
X177156Y808347D01*
X174644Y810859D02*
X194274Y810859D01*
X191762Y813371D02*
X172132Y813371D01*
X169902Y815883D02*
X189250Y815883D01*
X186738Y818395D02*
X172414Y818395D01*
X174926Y820907D02*
X184226Y820907D01*
X181714Y823419D02*
X177438Y823419D01*
D11*
X162697Y839968D02*
X157089Y839968D01*
X157089Y851672D01*
X162697Y851672D01*
X162697Y839968D01*
X162697Y842362D02*
X157089Y842362D01*
X157089Y844756D02*
X162697Y844756D01*
X162697Y847150D02*
X157089Y847150D01*
X157089Y849544D02*
X162697Y849544D01*
X167503Y839968D02*
X173111Y839968D01*
X167503Y839968D02*
X167503Y851672D01*
X173111Y851672D01*
X173111Y839968D01*
X173111Y842362D02*
X167503Y842362D01*
X167503Y844756D02*
X173111Y844756D01*
X173111Y847150D02*
X167503Y847150D01*
X167503Y849544D02*
X173111Y849544D01*
X87513Y839968D02*
X82159Y839968D01*
X82159Y851672D01*
X87513Y851672D01*
X87513Y839968D01*
X87513Y842362D02*
X82159Y842362D01*
X82159Y844756D02*
X87513Y844756D01*
X87513Y847150D02*
X82159Y847150D01*
X82159Y849544D02*
X87513Y849544D01*
X90287Y839968D02*
X95641Y839968D01*
X90287Y839968D02*
X90287Y851672D01*
X95641Y851672D01*
X95641Y839968D01*
X95641Y842362D02*
X90287Y842362D01*
X90287Y844756D02*
X95641Y844756D01*
X95641Y847150D02*
X90287Y847150D01*
X90287Y849544D02*
X95641Y849544D01*
D12*
X241300Y891540D03*
X241300Y916940D03*
D13*
X12700Y980440D03*
X241300Y866140D03*
D14*
X228600Y1005840D03*
X25400Y1005840D03*
D11*
X64379Y932678D02*
X69733Y932678D01*
X64379Y932678D02*
X64379Y944382D01*
X69733Y944382D01*
X69733Y932678D01*
X69733Y935072D02*
X64379Y935072D01*
X64379Y937466D02*
X69733Y937466D01*
X69733Y939860D02*
X64379Y939860D01*
X64379Y942254D02*
X69733Y942254D01*
X72507Y932678D02*
X77861Y932678D01*
X72507Y932678D02*
X72507Y944382D01*
X77861Y944382D01*
X77861Y932678D01*
X77861Y935072D02*
X72507Y935072D01*
X72507Y937466D02*
X77861Y937466D01*
X77861Y939860D02*
X72507Y939860D01*
X72507Y942254D02*
X77861Y942254D01*
D10*
X353740Y974970D02*
X367620Y974970D01*
X353740Y974970D02*
X353740Y1013850D01*
X367620Y1013850D01*
X367620Y974970D01*
X367620Y977482D02*
X353740Y977482D01*
X353740Y979994D02*
X367620Y979994D01*
X367620Y982506D02*
X353740Y982506D01*
X353740Y985018D02*
X367620Y985018D01*
X367620Y987530D02*
X353740Y987530D01*
X353740Y990042D02*
X367620Y990042D01*
X367620Y992554D02*
X353740Y992554D01*
X353740Y995066D02*
X367620Y995066D01*
X367620Y997578D02*
X353740Y997578D01*
X353740Y1000090D02*
X367620Y1000090D01*
X367620Y1002602D02*
X353740Y1002602D01*
X353740Y1005114D02*
X367620Y1005114D01*
X367620Y1007626D02*
X353740Y1007626D01*
X353740Y1010138D02*
X367620Y1010138D01*
X367620Y1012650D02*
X353740Y1012650D01*
X404540Y974970D02*
X418420Y974970D01*
X404540Y974970D02*
X404540Y1013850D01*
X418420Y1013850D01*
X418420Y974970D01*
X418420Y977482D02*
X404540Y977482D01*
X404540Y979994D02*
X418420Y979994D01*
X418420Y982506D02*
X404540Y982506D01*
X404540Y985018D02*
X418420Y985018D01*
X418420Y987530D02*
X404540Y987530D01*
X404540Y990042D02*
X418420Y990042D01*
X418420Y992554D02*
X404540Y992554D01*
X404540Y995066D02*
X418420Y995066D01*
X418420Y997578D02*
X404540Y997578D01*
X404540Y1000090D02*
X418420Y1000090D01*
X418420Y1002602D02*
X404540Y1002602D01*
X404540Y1005114D02*
X418420Y1005114D01*
X418420Y1007626D02*
X404540Y1007626D01*
X404540Y1010138D02*
X418420Y1010138D01*
X418420Y1012650D02*
X404540Y1012650D01*
X333504Y825557D02*
X343319Y815742D01*
X315828Y788251D01*
X306013Y798066D01*
X333504Y825557D01*
X318340Y790763D02*
X313316Y790763D01*
X310804Y793275D02*
X320852Y793275D01*
X323364Y795787D02*
X308292Y795787D01*
X306246Y798299D02*
X325876Y798299D01*
X328388Y800811D02*
X308758Y800811D01*
X311270Y803323D02*
X330900Y803323D01*
X333412Y805835D02*
X313782Y805835D01*
X316294Y808347D02*
X335924Y808347D01*
X338436Y810859D02*
X318806Y810859D01*
X321318Y813371D02*
X340948Y813371D01*
X343178Y815883D02*
X323830Y815883D01*
X326342Y818395D02*
X340666Y818395D01*
X338154Y820907D02*
X328854Y820907D01*
X331366Y823419D02*
X335642Y823419D01*
X307397Y851664D02*
X297582Y861479D01*
X307397Y851664D02*
X279906Y824173D01*
X270091Y833988D01*
X297582Y861479D01*
X282418Y826685D02*
X277394Y826685D01*
X274882Y829197D02*
X284930Y829197D01*
X287442Y831709D02*
X272370Y831709D01*
X270324Y834221D02*
X289954Y834221D01*
X292466Y836733D02*
X272836Y836733D01*
X275348Y839245D02*
X294978Y839245D01*
X297490Y841757D02*
X277860Y841757D01*
X280372Y844269D02*
X300002Y844269D01*
X302514Y846781D02*
X282884Y846781D01*
X285396Y849293D02*
X305026Y849293D01*
X307256Y851805D02*
X287908Y851805D01*
X290420Y854317D02*
X304744Y854317D01*
X302232Y856829D02*
X292932Y856829D01*
X295444Y859341D02*
X299720Y859341D01*
X464763Y851664D02*
X474578Y861479D01*
X502069Y833988D01*
X492254Y824173D01*
X464763Y851664D01*
X489742Y826685D02*
X494766Y826685D01*
X497278Y829197D02*
X487230Y829197D01*
X484718Y831709D02*
X499790Y831709D01*
X501836Y834221D02*
X482206Y834221D01*
X479694Y836733D02*
X499324Y836733D01*
X496812Y839245D02*
X477182Y839245D01*
X474670Y841757D02*
X494300Y841757D01*
X491788Y844269D02*
X472158Y844269D01*
X469646Y846781D02*
X489276Y846781D01*
X486764Y849293D02*
X467134Y849293D01*
X464904Y851805D02*
X484252Y851805D01*
X481740Y854317D02*
X467416Y854317D01*
X469928Y856829D02*
X479228Y856829D01*
X476716Y859341D02*
X472440Y859341D01*
X438656Y825557D02*
X428841Y815742D01*
X438656Y825557D02*
X466147Y798066D01*
X456332Y788251D01*
X428841Y815742D01*
X453820Y790763D02*
X458844Y790763D01*
X461356Y793275D02*
X451308Y793275D01*
X448796Y795787D02*
X463868Y795787D01*
X465914Y798299D02*
X446284Y798299D01*
X443772Y800811D02*
X463402Y800811D01*
X460890Y803323D02*
X441260Y803323D01*
X438748Y805835D02*
X458378Y805835D01*
X455866Y808347D02*
X436236Y808347D01*
X433724Y810859D02*
X453354Y810859D01*
X450842Y813371D02*
X431212Y813371D01*
X428982Y815883D02*
X448330Y815883D01*
X445818Y818395D02*
X431494Y818395D01*
X434006Y820907D02*
X443306Y820907D01*
X440794Y823419D02*
X436518Y823419D01*
D11*
X421777Y839968D02*
X416169Y839968D01*
X416169Y851672D01*
X421777Y851672D01*
X421777Y839968D01*
X421777Y842362D02*
X416169Y842362D01*
X416169Y844756D02*
X421777Y844756D01*
X421777Y847150D02*
X416169Y847150D01*
X416169Y849544D02*
X421777Y849544D01*
X426583Y839968D02*
X432191Y839968D01*
X426583Y839968D02*
X426583Y851672D01*
X432191Y851672D01*
X432191Y839968D01*
X432191Y842362D02*
X426583Y842362D01*
X426583Y844756D02*
X432191Y844756D01*
X432191Y847150D02*
X426583Y847150D01*
X426583Y849544D02*
X432191Y849544D01*
X346593Y839968D02*
X341239Y839968D01*
X341239Y851672D01*
X346593Y851672D01*
X346593Y839968D01*
X346593Y842362D02*
X341239Y842362D01*
X341239Y844756D02*
X346593Y844756D01*
X346593Y847150D02*
X341239Y847150D01*
X341239Y849544D02*
X346593Y849544D01*
X349367Y839968D02*
X354721Y839968D01*
X349367Y839968D02*
X349367Y851672D01*
X354721Y851672D01*
X354721Y839968D01*
X354721Y842362D02*
X349367Y842362D01*
X349367Y844756D02*
X354721Y844756D01*
X354721Y847150D02*
X349367Y847150D01*
X349367Y849544D02*
X354721Y849544D01*
D12*
X500380Y891540D03*
X500380Y916940D03*
D13*
X271780Y980440D03*
X500380Y866140D03*
D14*
X487680Y1005840D03*
X284480Y1005840D03*
D11*
X323459Y932678D02*
X328813Y932678D01*
X323459Y932678D02*
X323459Y944382D01*
X328813Y944382D01*
X328813Y932678D01*
X328813Y935072D02*
X323459Y935072D01*
X323459Y937466D02*
X328813Y937466D01*
X328813Y939860D02*
X323459Y939860D01*
X323459Y942254D02*
X328813Y942254D01*
X331587Y932678D02*
X336941Y932678D01*
X331587Y932678D02*
X331587Y944382D01*
X336941Y944382D01*
X336941Y932678D01*
X336941Y935072D02*
X331587Y935072D01*
X331587Y937466D02*
X336941Y937466D01*
X336941Y939860D02*
X331587Y939860D01*
X331587Y942254D02*
X336941Y942254D01*
D10*
X612820Y974970D02*
X626700Y974970D01*
X612820Y974970D02*
X612820Y1013850D01*
X626700Y1013850D01*
X626700Y974970D01*
X626700Y977482D02*
X612820Y977482D01*
X612820Y979994D02*
X626700Y979994D01*
X626700Y982506D02*
X612820Y982506D01*
X612820Y985018D02*
X626700Y985018D01*
X626700Y987530D02*
X612820Y987530D01*
X612820Y990042D02*
X626700Y990042D01*
X626700Y992554D02*
X612820Y992554D01*
X612820Y995066D02*
X626700Y995066D01*
X626700Y997578D02*
X612820Y997578D01*
X612820Y1000090D02*
X626700Y1000090D01*
X626700Y1002602D02*
X612820Y1002602D01*
X612820Y1005114D02*
X626700Y1005114D01*
X626700Y1007626D02*
X612820Y1007626D01*
X612820Y1010138D02*
X626700Y1010138D01*
X626700Y1012650D02*
X612820Y1012650D01*
X663620Y974970D02*
X677500Y974970D01*
X663620Y974970D02*
X663620Y1013850D01*
X677500Y1013850D01*
X677500Y974970D01*
X677500Y977482D02*
X663620Y977482D01*
X663620Y979994D02*
X677500Y979994D01*
X677500Y982506D02*
X663620Y982506D01*
X663620Y985018D02*
X677500Y985018D01*
X677500Y987530D02*
X663620Y987530D01*
X663620Y990042D02*
X677500Y990042D01*
X677500Y992554D02*
X663620Y992554D01*
X663620Y995066D02*
X677500Y995066D01*
X677500Y997578D02*
X663620Y997578D01*
X663620Y1000090D02*
X677500Y1000090D01*
X677500Y1002602D02*
X663620Y1002602D01*
X663620Y1005114D02*
X677500Y1005114D01*
X677500Y1007626D02*
X663620Y1007626D01*
X663620Y1010138D02*
X677500Y1010138D01*
X677500Y1012650D02*
X663620Y1012650D01*
X592584Y825557D02*
X602399Y815742D01*
X574908Y788251D01*
X565093Y798066D01*
X592584Y825557D01*
X577420Y790763D02*
X572396Y790763D01*
X569884Y793275D02*
X579932Y793275D01*
X582444Y795787D02*
X567372Y795787D01*
X565326Y798299D02*
X584956Y798299D01*
X587468Y800811D02*
X567838Y800811D01*
X570350Y803323D02*
X589980Y803323D01*
X592492Y805835D02*
X572862Y805835D01*
X575374Y808347D02*
X595004Y808347D01*
X597516Y810859D02*
X577886Y810859D01*
X580398Y813371D02*
X600028Y813371D01*
X602258Y815883D02*
X582910Y815883D01*
X585422Y818395D02*
X599746Y818395D01*
X597234Y820907D02*
X587934Y820907D01*
X590446Y823419D02*
X594722Y823419D01*
X566477Y851664D02*
X556662Y861479D01*
X566477Y851664D02*
X538986Y824173D01*
X529171Y833988D01*
X556662Y861479D01*
X541498Y826685D02*
X536474Y826685D01*
X533962Y829197D02*
X544010Y829197D01*
X546522Y831709D02*
X531450Y831709D01*
X529404Y834221D02*
X549034Y834221D01*
X551546Y836733D02*
X531916Y836733D01*
X534428Y839245D02*
X554058Y839245D01*
X556570Y841757D02*
X536940Y841757D01*
X539452Y844269D02*
X559082Y844269D01*
X561594Y846781D02*
X541964Y846781D01*
X544476Y849293D02*
X564106Y849293D01*
X566336Y851805D02*
X546988Y851805D01*
X549500Y854317D02*
X563824Y854317D01*
X561312Y856829D02*
X552012Y856829D01*
X554524Y859341D02*
X558800Y859341D01*
X723843Y851664D02*
X733658Y861479D01*
X761149Y833988D01*
X751334Y824173D01*
X723843Y851664D01*
X748822Y826685D02*
X753846Y826685D01*
X756358Y829197D02*
X746310Y829197D01*
X743798Y831709D02*
X758870Y831709D01*
X760916Y834221D02*
X741286Y834221D01*
X738774Y836733D02*
X758404Y836733D01*
X755892Y839245D02*
X736262Y839245D01*
X733750Y841757D02*
X753380Y841757D01*
X750868Y844269D02*
X731238Y844269D01*
X728726Y846781D02*
X748356Y846781D01*
X745844Y849293D02*
X726214Y849293D01*
X723984Y851805D02*
X743332Y851805D01*
X740820Y854317D02*
X726496Y854317D01*
X729008Y856829D02*
X738308Y856829D01*
X735796Y859341D02*
X731520Y859341D01*
X697736Y825557D02*
X687921Y815742D01*
X697736Y825557D02*
X725227Y798066D01*
X715412Y788251D01*
X687921Y815742D01*
X712900Y790763D02*
X717924Y790763D01*
X720436Y793275D02*
X710388Y793275D01*
X707876Y795787D02*
X722948Y795787D01*
X724994Y798299D02*
X705364Y798299D01*
X702852Y800811D02*
X722482Y800811D01*
X719970Y803323D02*
X700340Y803323D01*
X697828Y805835D02*
X717458Y805835D01*
X714946Y808347D02*
X695316Y808347D01*
X692804Y810859D02*
X712434Y810859D01*
X709922Y813371D02*
X690292Y813371D01*
X688062Y815883D02*
X707410Y815883D01*
X704898Y818395D02*
X690574Y818395D01*
X693086Y820907D02*
X702386Y820907D01*
X699874Y823419D02*
X695598Y823419D01*
D11*
X680857Y839968D02*
X675249Y839968D01*
X675249Y851672D01*
X680857Y851672D01*
X680857Y839968D01*
X680857Y842362D02*
X675249Y842362D01*
X675249Y844756D02*
X680857Y844756D01*
X680857Y847150D02*
X675249Y847150D01*
X675249Y849544D02*
X680857Y849544D01*
X685663Y839968D02*
X691271Y839968D01*
X685663Y839968D02*
X685663Y851672D01*
X691271Y851672D01*
X691271Y839968D01*
X691271Y842362D02*
X685663Y842362D01*
X685663Y844756D02*
X691271Y844756D01*
X691271Y847150D02*
X685663Y847150D01*
X685663Y849544D02*
X691271Y849544D01*
X605673Y839968D02*
X600319Y839968D01*
X600319Y851672D01*
X605673Y851672D01*
X605673Y839968D01*
X605673Y842362D02*
X600319Y842362D01*
X600319Y844756D02*
X605673Y844756D01*
X605673Y847150D02*
X600319Y847150D01*
X600319Y849544D02*
X605673Y849544D01*
X608447Y839968D02*
X613801Y839968D01*
X608447Y839968D02*
X608447Y851672D01*
X613801Y851672D01*
X613801Y839968D01*
X613801Y842362D02*
X608447Y842362D01*
X608447Y844756D02*
X613801Y844756D01*
X613801Y847150D02*
X608447Y847150D01*
X608447Y849544D02*
X613801Y849544D01*
D12*
X759460Y891540D03*
X759460Y916940D03*
D13*
X530860Y980440D03*
X759460Y866140D03*
D14*
X746760Y1005840D03*
X543560Y1005840D03*
D11*
X582539Y932678D02*
X587893Y932678D01*
X582539Y932678D02*
X582539Y944382D01*
X587893Y944382D01*
X587893Y932678D01*
X587893Y935072D02*
X582539Y935072D01*
X582539Y937466D02*
X587893Y937466D01*
X587893Y939860D02*
X582539Y939860D01*
X582539Y942254D02*
X587893Y942254D01*
X590667Y932678D02*
X596021Y932678D01*
X590667Y932678D02*
X590667Y944382D01*
X596021Y944382D01*
X596021Y932678D01*
X596021Y935072D02*
X590667Y935072D01*
X590667Y937466D02*
X596021Y937466D01*
X596021Y939860D02*
X590667Y939860D01*
X590667Y942254D02*
X596021Y942254D01*
D10*
X871900Y974970D02*
X885780Y974970D01*
X871900Y974970D02*
X871900Y1013850D01*
X885780Y1013850D01*
X885780Y974970D01*
X885780Y977482D02*
X871900Y977482D01*
X871900Y979994D02*
X885780Y979994D01*
X885780Y982506D02*
X871900Y982506D01*
X871900Y985018D02*
X885780Y985018D01*
X885780Y987530D02*
X871900Y987530D01*
X871900Y990042D02*
X885780Y990042D01*
X885780Y992554D02*
X871900Y992554D01*
X871900Y995066D02*
X885780Y995066D01*
X885780Y997578D02*
X871900Y997578D01*
X871900Y1000090D02*
X885780Y1000090D01*
X885780Y1002602D02*
X871900Y1002602D01*
X871900Y1005114D02*
X885780Y1005114D01*
X885780Y1007626D02*
X871900Y1007626D01*
X871900Y1010138D02*
X885780Y1010138D01*
X885780Y1012650D02*
X871900Y1012650D01*
X922700Y974970D02*
X936580Y974970D01*
X922700Y974970D02*
X922700Y1013850D01*
X936580Y1013850D01*
X936580Y974970D01*
X936580Y977482D02*
X922700Y977482D01*
X922700Y979994D02*
X936580Y979994D01*
X936580Y982506D02*
X922700Y982506D01*
X922700Y985018D02*
X936580Y985018D01*
X936580Y987530D02*
X922700Y987530D01*
X922700Y990042D02*
X936580Y990042D01*
X936580Y992554D02*
X922700Y992554D01*
X922700Y995066D02*
X936580Y995066D01*
X936580Y997578D02*
X922700Y997578D01*
X922700Y1000090D02*
X936580Y1000090D01*
X936580Y1002602D02*
X922700Y1002602D01*
X922700Y1005114D02*
X936580Y1005114D01*
X936580Y1007626D02*
X922700Y1007626D01*
X922700Y1010138D02*
X936580Y1010138D01*
X936580Y1012650D02*
X922700Y1012650D01*
X851664Y825557D02*
X861479Y815742D01*
X833988Y788251D01*
X824173Y798066D01*
X851664Y825557D01*
X836500Y790763D02*
X831476Y790763D01*
X828964Y793275D02*
X839012Y793275D01*
X841524Y795787D02*
X826452Y795787D01*
X824406Y798299D02*
X844036Y798299D01*
X846548Y800811D02*
X826918Y800811D01*
X829430Y803323D02*
X849060Y803323D01*
X851572Y805835D02*
X831942Y805835D01*
X834454Y808347D02*
X854084Y808347D01*
X856596Y810859D02*
X836966Y810859D01*
X839478Y813371D02*
X859108Y813371D01*
X861338Y815883D02*
X841990Y815883D01*
X844502Y818395D02*
X858826Y818395D01*
X856314Y820907D02*
X847014Y820907D01*
X849526Y823419D02*
X853802Y823419D01*
X825557Y851664D02*
X815742Y861479D01*
X825557Y851664D02*
X798066Y824173D01*
X788251Y833988D01*
X815742Y861479D01*
X800578Y826685D02*
X795554Y826685D01*
X793042Y829197D02*
X803090Y829197D01*
X805602Y831709D02*
X790530Y831709D01*
X788484Y834221D02*
X808114Y834221D01*
X810626Y836733D02*
X790996Y836733D01*
X793508Y839245D02*
X813138Y839245D01*
X815650Y841757D02*
X796020Y841757D01*
X798532Y844269D02*
X818162Y844269D01*
X820674Y846781D02*
X801044Y846781D01*
X803556Y849293D02*
X823186Y849293D01*
X825416Y851805D02*
X806068Y851805D01*
X808580Y854317D02*
X822904Y854317D01*
X820392Y856829D02*
X811092Y856829D01*
X813604Y859341D02*
X817880Y859341D01*
X982923Y851664D02*
X992738Y861479D01*
X1020229Y833988D01*
X1010414Y824173D01*
X982923Y851664D01*
X1007902Y826685D02*
X1012926Y826685D01*
X1015438Y829197D02*
X1005390Y829197D01*
X1002878Y831709D02*
X1017950Y831709D01*
X1019996Y834221D02*
X1000366Y834221D01*
X997854Y836733D02*
X1017484Y836733D01*
X1014972Y839245D02*
X995342Y839245D01*
X992830Y841757D02*
X1012460Y841757D01*
X1009948Y844269D02*
X990318Y844269D01*
X987806Y846781D02*
X1007436Y846781D01*
X1004924Y849293D02*
X985294Y849293D01*
X983064Y851805D02*
X1002412Y851805D01*
X999900Y854317D02*
X985576Y854317D01*
X988088Y856829D02*
X997388Y856829D01*
X994876Y859341D02*
X990600Y859341D01*
X956816Y825557D02*
X947001Y815742D01*
X956816Y825557D02*
X984307Y798066D01*
X974492Y788251D01*
X947001Y815742D01*
X971980Y790763D02*
X977004Y790763D01*
X979516Y793275D02*
X969468Y793275D01*
X966956Y795787D02*
X982028Y795787D01*
X984074Y798299D02*
X964444Y798299D01*
X961932Y800811D02*
X981562Y800811D01*
X979050Y803323D02*
X959420Y803323D01*
X956908Y805835D02*
X976538Y805835D01*
X974026Y808347D02*
X954396Y808347D01*
X951884Y810859D02*
X971514Y810859D01*
X969002Y813371D02*
X949372Y813371D01*
X947142Y815883D02*
X966490Y815883D01*
X963978Y818395D02*
X949654Y818395D01*
X952166Y820907D02*
X961466Y820907D01*
X958954Y823419D02*
X954678Y823419D01*
D11*
X939937Y839968D02*
X934329Y839968D01*
X934329Y851672D01*
X939937Y851672D01*
X939937Y839968D01*
X939937Y842362D02*
X934329Y842362D01*
X934329Y844756D02*
X939937Y844756D01*
X939937Y847150D02*
X934329Y847150D01*
X934329Y849544D02*
X939937Y849544D01*
X944743Y839968D02*
X950351Y839968D01*
X944743Y839968D02*
X944743Y851672D01*
X950351Y851672D01*
X950351Y839968D01*
X950351Y842362D02*
X944743Y842362D01*
X944743Y844756D02*
X950351Y844756D01*
X950351Y847150D02*
X944743Y847150D01*
X944743Y849544D02*
X950351Y849544D01*
X864753Y839968D02*
X859399Y839968D01*
X859399Y851672D01*
X864753Y851672D01*
X864753Y839968D01*
X864753Y842362D02*
X859399Y842362D01*
X859399Y844756D02*
X864753Y844756D01*
X864753Y847150D02*
X859399Y847150D01*
X859399Y849544D02*
X864753Y849544D01*
X867527Y839968D02*
X872881Y839968D01*
X867527Y839968D02*
X867527Y851672D01*
X872881Y851672D01*
X872881Y839968D01*
X872881Y842362D02*
X867527Y842362D01*
X867527Y844756D02*
X872881Y844756D01*
X872881Y847150D02*
X867527Y847150D01*
X867527Y849544D02*
X872881Y849544D01*
D12*
X1018540Y891540D03*
X1018540Y916940D03*
D13*
X789940Y980440D03*
X1018540Y866140D03*
D14*
X1005840Y1005840D03*
X802640Y1005840D03*
D11*
X841619Y932678D02*
X846973Y932678D01*
X841619Y932678D02*
X841619Y944382D01*
X846973Y944382D01*
X846973Y932678D01*
X846973Y935072D02*
X841619Y935072D01*
X841619Y937466D02*
X846973Y937466D01*
X846973Y939860D02*
X841619Y939860D01*
X841619Y942254D02*
X846973Y942254D01*
X849747Y932678D02*
X855101Y932678D01*
X849747Y932678D02*
X849747Y944382D01*
X855101Y944382D01*
X855101Y932678D01*
X855101Y935072D02*
X849747Y935072D01*
X849747Y937466D02*
X855101Y937466D01*
X855101Y939860D02*
X849747Y939860D01*
X849747Y942254D02*
X855101Y942254D01*
D10*
X1130980Y974970D02*
X1144860Y974970D01*
X1130980Y974970D02*
X1130980Y1013850D01*
X1144860Y1013850D01*
X1144860Y974970D01*
X1144860Y977482D02*
X1130980Y977482D01*
X1130980Y979994D02*
X1144860Y979994D01*
X1144860Y982506D02*
X1130980Y982506D01*
X1130980Y985018D02*
X1144860Y985018D01*
X1144860Y987530D02*
X1130980Y987530D01*
X1130980Y990042D02*
X1144860Y990042D01*
X1144860Y992554D02*
X1130980Y992554D01*
X1130980Y995066D02*
X1144860Y995066D01*
X1144860Y997578D02*
X1130980Y997578D01*
X1130980Y1000090D02*
X1144860Y1000090D01*
X1144860Y1002602D02*
X1130980Y1002602D01*
X1130980Y1005114D02*
X1144860Y1005114D01*
X1144860Y1007626D02*
X1130980Y1007626D01*
X1130980Y1010138D02*
X1144860Y1010138D01*
X1144860Y1012650D02*
X1130980Y1012650D01*
X1181780Y974970D02*
X1195660Y974970D01*
X1181780Y974970D02*
X1181780Y1013850D01*
X1195660Y1013850D01*
X1195660Y974970D01*
X1195660Y977482D02*
X1181780Y977482D01*
X1181780Y979994D02*
X1195660Y979994D01*
X1195660Y982506D02*
X1181780Y982506D01*
X1181780Y985018D02*
X1195660Y985018D01*
X1195660Y987530D02*
X1181780Y987530D01*
X1181780Y990042D02*
X1195660Y990042D01*
X1195660Y992554D02*
X1181780Y992554D01*
X1181780Y995066D02*
X1195660Y995066D01*
X1195660Y997578D02*
X1181780Y997578D01*
X1181780Y1000090D02*
X1195660Y1000090D01*
X1195660Y1002602D02*
X1181780Y1002602D01*
X1181780Y1005114D02*
X1195660Y1005114D01*
X1195660Y1007626D02*
X1181780Y1007626D01*
X1181780Y1010138D02*
X1195660Y1010138D01*
X1195660Y1012650D02*
X1181780Y1012650D01*
X1110744Y825557D02*
X1120559Y815742D01*
X1093068Y788251D01*
X1083253Y798066D01*
X1110744Y825557D01*
X1095580Y790763D02*
X1090556Y790763D01*
X1088044Y793275D02*
X1098092Y793275D01*
X1100604Y795787D02*
X1085532Y795787D01*
X1083486Y798299D02*
X1103116Y798299D01*
X1105628Y800811D02*
X1085998Y800811D01*
X1088510Y803323D02*
X1108140Y803323D01*
X1110652Y805835D02*
X1091022Y805835D01*
X1093534Y808347D02*
X1113164Y808347D01*
X1115676Y810859D02*
X1096046Y810859D01*
X1098558Y813371D02*
X1118188Y813371D01*
X1120418Y815883D02*
X1101070Y815883D01*
X1103582Y818395D02*
X1117906Y818395D01*
X1115394Y820907D02*
X1106094Y820907D01*
X1108606Y823419D02*
X1112882Y823419D01*
X1084637Y851664D02*
X1074822Y861479D01*
X1084637Y851664D02*
X1057146Y824173D01*
X1047331Y833988D01*
X1074822Y861479D01*
X1059658Y826685D02*
X1054634Y826685D01*
X1052122Y829197D02*
X1062170Y829197D01*
X1064682Y831709D02*
X1049610Y831709D01*
X1047564Y834221D02*
X1067194Y834221D01*
X1069706Y836733D02*
X1050076Y836733D01*
X1052588Y839245D02*
X1072218Y839245D01*
X1074730Y841757D02*
X1055100Y841757D01*
X1057612Y844269D02*
X1077242Y844269D01*
X1079754Y846781D02*
X1060124Y846781D01*
X1062636Y849293D02*
X1082266Y849293D01*
X1084496Y851805D02*
X1065148Y851805D01*
X1067660Y854317D02*
X1081984Y854317D01*
X1079472Y856829D02*
X1070172Y856829D01*
X1072684Y859341D02*
X1076960Y859341D01*
X1242003Y851664D02*
X1251818Y861479D01*
X1279309Y833988D01*
X1269494Y824173D01*
X1242003Y851664D01*
X1266982Y826685D02*
X1272006Y826685D01*
X1274518Y829197D02*
X1264470Y829197D01*
X1261958Y831709D02*
X1277030Y831709D01*
X1279076Y834221D02*
X1259446Y834221D01*
X1256934Y836733D02*
X1276564Y836733D01*
X1274052Y839245D02*
X1254422Y839245D01*
X1251910Y841757D02*
X1271540Y841757D01*
X1269028Y844269D02*
X1249398Y844269D01*
X1246886Y846781D02*
X1266516Y846781D01*
X1264004Y849293D02*
X1244374Y849293D01*
X1242144Y851805D02*
X1261492Y851805D01*
X1258980Y854317D02*
X1244656Y854317D01*
X1247168Y856829D02*
X1256468Y856829D01*
X1253956Y859341D02*
X1249680Y859341D01*
X1215896Y825557D02*
X1206081Y815742D01*
X1215896Y825557D02*
X1243387Y798066D01*
X1233572Y788251D01*
X1206081Y815742D01*
X1231060Y790763D02*
X1236084Y790763D01*
X1238596Y793275D02*
X1228548Y793275D01*
X1226036Y795787D02*
X1241108Y795787D01*
X1243154Y798299D02*
X1223524Y798299D01*
X1221012Y800811D02*
X1240642Y800811D01*
X1238130Y803323D02*
X1218500Y803323D01*
X1215988Y805835D02*
X1235618Y805835D01*
X1233106Y808347D02*
X1213476Y808347D01*
X1210964Y810859D02*
X1230594Y810859D01*
X1228082Y813371D02*
X1208452Y813371D01*
X1206222Y815883D02*
X1225570Y815883D01*
X1223058Y818395D02*
X1208734Y818395D01*
X1211246Y820907D02*
X1220546Y820907D01*
X1218034Y823419D02*
X1213758Y823419D01*
D11*
X1199017Y839968D02*
X1193409Y839968D01*
X1193409Y851672D01*
X1199017Y851672D01*
X1199017Y839968D01*
X1199017Y842362D02*
X1193409Y842362D01*
X1193409Y844756D02*
X1199017Y844756D01*
X1199017Y847150D02*
X1193409Y847150D01*
X1193409Y849544D02*
X1199017Y849544D01*
X1203823Y839968D02*
X1209431Y839968D01*
X1203823Y839968D02*
X1203823Y851672D01*
X1209431Y851672D01*
X1209431Y839968D01*
X1209431Y842362D02*
X1203823Y842362D01*
X1203823Y844756D02*
X1209431Y844756D01*
X1209431Y847150D02*
X1203823Y847150D01*
X1203823Y849544D02*
X1209431Y849544D01*
X1123833Y839968D02*
X1118479Y839968D01*
X1118479Y851672D01*
X1123833Y851672D01*
X1123833Y839968D01*
X1123833Y842362D02*
X1118479Y842362D01*
X1118479Y844756D02*
X1123833Y844756D01*
X1123833Y847150D02*
X1118479Y847150D01*
X1118479Y849544D02*
X1123833Y849544D01*
X1126607Y839968D02*
X1131961Y839968D01*
X1126607Y839968D02*
X1126607Y851672D01*
X1131961Y851672D01*
X1131961Y839968D01*
X1131961Y842362D02*
X1126607Y842362D01*
X1126607Y844756D02*
X1131961Y844756D01*
X1131961Y847150D02*
X1126607Y847150D01*
X1126607Y849544D02*
X1131961Y849544D01*
D12*
X1277620Y891540D03*
X1277620Y916940D03*
D13*
X1049020Y980440D03*
X1277620Y866140D03*
D14*
X1264920Y1005840D03*
X1061720Y1005840D03*
D11*
X1100699Y932678D02*
X1106053Y932678D01*
X1100699Y932678D02*
X1100699Y944382D01*
X1106053Y944382D01*
X1106053Y932678D01*
X1106053Y935072D02*
X1100699Y935072D01*
X1100699Y937466D02*
X1106053Y937466D01*
X1106053Y939860D02*
X1100699Y939860D01*
X1100699Y942254D02*
X1106053Y942254D01*
X1108827Y932678D02*
X1114181Y932678D01*
X1108827Y932678D02*
X1108827Y944382D01*
X1114181Y944382D01*
X1114181Y932678D01*
X1114181Y935072D02*
X1108827Y935072D01*
X1108827Y937466D02*
X1114181Y937466D01*
X1114181Y939860D02*
X1108827Y939860D01*
X1108827Y942254D02*
X1114181Y942254D01*
D10*
X1390060Y974970D02*
X1403940Y974970D01*
X1390060Y974970D02*
X1390060Y1013850D01*
X1403940Y1013850D01*
X1403940Y974970D01*
X1403940Y977482D02*
X1390060Y977482D01*
X1390060Y979994D02*
X1403940Y979994D01*
X1403940Y982506D02*
X1390060Y982506D01*
X1390060Y985018D02*
X1403940Y985018D01*
X1403940Y987530D02*
X1390060Y987530D01*
X1390060Y990042D02*
X1403940Y990042D01*
X1403940Y992554D02*
X1390060Y992554D01*
X1390060Y995066D02*
X1403940Y995066D01*
X1403940Y997578D02*
X1390060Y997578D01*
X1390060Y1000090D02*
X1403940Y1000090D01*
X1403940Y1002602D02*
X1390060Y1002602D01*
X1390060Y1005114D02*
X1403940Y1005114D01*
X1403940Y1007626D02*
X1390060Y1007626D01*
X1390060Y1010138D02*
X1403940Y1010138D01*
X1403940Y1012650D02*
X1390060Y1012650D01*
X1440860Y974970D02*
X1454740Y974970D01*
X1440860Y974970D02*
X1440860Y1013850D01*
X1454740Y1013850D01*
X1454740Y974970D01*
X1454740Y977482D02*
X1440860Y977482D01*
X1440860Y979994D02*
X1454740Y979994D01*
X1454740Y982506D02*
X1440860Y982506D01*
X1440860Y985018D02*
X1454740Y985018D01*
X1454740Y987530D02*
X1440860Y987530D01*
X1440860Y990042D02*
X1454740Y990042D01*
X1454740Y992554D02*
X1440860Y992554D01*
X1440860Y995066D02*
X1454740Y995066D01*
X1454740Y997578D02*
X1440860Y997578D01*
X1440860Y1000090D02*
X1454740Y1000090D01*
X1454740Y1002602D02*
X1440860Y1002602D01*
X1440860Y1005114D02*
X1454740Y1005114D01*
X1454740Y1007626D02*
X1440860Y1007626D01*
X1440860Y1010138D02*
X1454740Y1010138D01*
X1454740Y1012650D02*
X1440860Y1012650D01*
X1369824Y825557D02*
X1379639Y815742D01*
X1352148Y788251D01*
X1342333Y798066D01*
X1369824Y825557D01*
X1354660Y790763D02*
X1349636Y790763D01*
X1347124Y793275D02*
X1357172Y793275D01*
X1359684Y795787D02*
X1344612Y795787D01*
X1342566Y798299D02*
X1362196Y798299D01*
X1364708Y800811D02*
X1345078Y800811D01*
X1347590Y803323D02*
X1367220Y803323D01*
X1369732Y805835D02*
X1350102Y805835D01*
X1352614Y808347D02*
X1372244Y808347D01*
X1374756Y810859D02*
X1355126Y810859D01*
X1357638Y813371D02*
X1377268Y813371D01*
X1379498Y815883D02*
X1360150Y815883D01*
X1362662Y818395D02*
X1376986Y818395D01*
X1374474Y820907D02*
X1365174Y820907D01*
X1367686Y823419D02*
X1371962Y823419D01*
X1343717Y851664D02*
X1333902Y861479D01*
X1343717Y851664D02*
X1316226Y824173D01*
X1306411Y833988D01*
X1333902Y861479D01*
X1318738Y826685D02*
X1313714Y826685D01*
X1311202Y829197D02*
X1321250Y829197D01*
X1323762Y831709D02*
X1308690Y831709D01*
X1306644Y834221D02*
X1326274Y834221D01*
X1328786Y836733D02*
X1309156Y836733D01*
X1311668Y839245D02*
X1331298Y839245D01*
X1333810Y841757D02*
X1314180Y841757D01*
X1316692Y844269D02*
X1336322Y844269D01*
X1338834Y846781D02*
X1319204Y846781D01*
X1321716Y849293D02*
X1341346Y849293D01*
X1343576Y851805D02*
X1324228Y851805D01*
X1326740Y854317D02*
X1341064Y854317D01*
X1338552Y856829D02*
X1329252Y856829D01*
X1331764Y859341D02*
X1336040Y859341D01*
X1501083Y851664D02*
X1510898Y861479D01*
X1538389Y833988D01*
X1528574Y824173D01*
X1501083Y851664D01*
X1526062Y826685D02*
X1531086Y826685D01*
X1533598Y829197D02*
X1523550Y829197D01*
X1521038Y831709D02*
X1536110Y831709D01*
X1538156Y834221D02*
X1518526Y834221D01*
X1516014Y836733D02*
X1535644Y836733D01*
X1533132Y839245D02*
X1513502Y839245D01*
X1510990Y841757D02*
X1530620Y841757D01*
X1528108Y844269D02*
X1508478Y844269D01*
X1505966Y846781D02*
X1525596Y846781D01*
X1523084Y849293D02*
X1503454Y849293D01*
X1501224Y851805D02*
X1520572Y851805D01*
X1518060Y854317D02*
X1503736Y854317D01*
X1506248Y856829D02*
X1515548Y856829D01*
X1513036Y859341D02*
X1508760Y859341D01*
X1474976Y825557D02*
X1465161Y815742D01*
X1474976Y825557D02*
X1502467Y798066D01*
X1492652Y788251D01*
X1465161Y815742D01*
X1490140Y790763D02*
X1495164Y790763D01*
X1497676Y793275D02*
X1487628Y793275D01*
X1485116Y795787D02*
X1500188Y795787D01*
X1502234Y798299D02*
X1482604Y798299D01*
X1480092Y800811D02*
X1499722Y800811D01*
X1497210Y803323D02*
X1477580Y803323D01*
X1475068Y805835D02*
X1494698Y805835D01*
X1492186Y808347D02*
X1472556Y808347D01*
X1470044Y810859D02*
X1489674Y810859D01*
X1487162Y813371D02*
X1467532Y813371D01*
X1465302Y815883D02*
X1484650Y815883D01*
X1482138Y818395D02*
X1467814Y818395D01*
X1470326Y820907D02*
X1479626Y820907D01*
X1477114Y823419D02*
X1472838Y823419D01*
D11*
X1458097Y839968D02*
X1452489Y839968D01*
X1452489Y851672D01*
X1458097Y851672D01*
X1458097Y839968D01*
X1458097Y842362D02*
X1452489Y842362D01*
X1452489Y844756D02*
X1458097Y844756D01*
X1458097Y847150D02*
X1452489Y847150D01*
X1452489Y849544D02*
X1458097Y849544D01*
X1462903Y839968D02*
X1468511Y839968D01*
X1462903Y839968D02*
X1462903Y851672D01*
X1468511Y851672D01*
X1468511Y839968D01*
X1468511Y842362D02*
X1462903Y842362D01*
X1462903Y844756D02*
X1468511Y844756D01*
X1468511Y847150D02*
X1462903Y847150D01*
X1462903Y849544D02*
X1468511Y849544D01*
X1382913Y839968D02*
X1377559Y839968D01*
X1377559Y851672D01*
X1382913Y851672D01*
X1382913Y839968D01*
X1382913Y842362D02*
X1377559Y842362D01*
X1377559Y844756D02*
X1382913Y844756D01*
X1382913Y847150D02*
X1377559Y847150D01*
X1377559Y849544D02*
X1382913Y849544D01*
X1385687Y839968D02*
X1391041Y839968D01*
X1385687Y839968D02*
X1385687Y851672D01*
X1391041Y851672D01*
X1391041Y839968D01*
X1391041Y842362D02*
X1385687Y842362D01*
X1385687Y844756D02*
X1391041Y844756D01*
X1391041Y847150D02*
X1385687Y847150D01*
X1385687Y849544D02*
X1391041Y849544D01*
D12*
X1536700Y891540D03*
X1536700Y916940D03*
D13*
X1308100Y980440D03*
X1536700Y866140D03*
D14*
X1524000Y1005840D03*
X1320800Y1005840D03*
D11*
X1359779Y932678D02*
X1365133Y932678D01*
X1359779Y932678D02*
X1359779Y944382D01*
X1365133Y944382D01*
X1365133Y932678D01*
X1365133Y935072D02*
X1359779Y935072D01*
X1359779Y937466D02*
X1365133Y937466D01*
X1365133Y939860D02*
X1359779Y939860D01*
X1359779Y942254D02*
X1365133Y942254D01*
X1367907Y932678D02*
X1373261Y932678D01*
X1367907Y932678D02*
X1367907Y944382D01*
X1373261Y944382D01*
X1373261Y932678D01*
X1373261Y935072D02*
X1367907Y935072D01*
X1367907Y937466D02*
X1373261Y937466D01*
X1373261Y939860D02*
X1367907Y939860D01*
X1367907Y942254D02*
X1373261Y942254D01*
D13*
X68580Y1052195D03*
X1480185Y1052195D03*
D15*
X59525Y-20955D02*
X59528Y-20733D01*
X59536Y-20511D01*
X59550Y-20289D01*
X59569Y-20067D01*
X59593Y-19847D01*
X59623Y-19626D01*
X59658Y-19407D01*
X59699Y-19188D01*
X59745Y-18971D01*
X59796Y-18755D01*
X59853Y-18540D01*
X59915Y-18326D01*
X59982Y-18115D01*
X60054Y-17904D01*
X60132Y-17696D01*
X60214Y-17490D01*
X60302Y-17286D01*
X60394Y-17083D01*
X60492Y-16884D01*
X60594Y-16687D01*
X60701Y-16492D01*
X60813Y-16300D01*
X60930Y-16111D01*
X61051Y-15924D01*
X61177Y-15741D01*
X61307Y-15561D01*
X61442Y-15384D01*
X61580Y-15211D01*
X61723Y-15041D01*
X61871Y-14874D01*
X62022Y-14711D01*
X62177Y-14552D01*
X62336Y-14397D01*
X62499Y-14246D01*
X62666Y-14098D01*
X62836Y-13955D01*
X63009Y-13817D01*
X63186Y-13682D01*
X63366Y-13552D01*
X63549Y-13426D01*
X63736Y-13305D01*
X63925Y-13188D01*
X64117Y-13076D01*
X64312Y-12969D01*
X64509Y-12867D01*
X64708Y-12769D01*
X64911Y-12677D01*
X65115Y-12589D01*
X65321Y-12507D01*
X65529Y-12429D01*
X65740Y-12357D01*
X65951Y-12290D01*
X66165Y-12228D01*
X66380Y-12171D01*
X66596Y-12120D01*
X66813Y-12074D01*
X67032Y-12033D01*
X67251Y-11998D01*
X67472Y-11968D01*
X67692Y-11944D01*
X67914Y-11925D01*
X68136Y-11911D01*
X68358Y-11903D01*
X68580Y-11900D01*
X68802Y-11903D01*
X69024Y-11911D01*
X69246Y-11925D01*
X69468Y-11944D01*
X69688Y-11968D01*
X69909Y-11998D01*
X70128Y-12033D01*
X70347Y-12074D01*
X70564Y-12120D01*
X70780Y-12171D01*
X70995Y-12228D01*
X71209Y-12290D01*
X71420Y-12357D01*
X71631Y-12429D01*
X71839Y-12507D01*
X72045Y-12589D01*
X72249Y-12677D01*
X72452Y-12769D01*
X72651Y-12867D01*
X72848Y-12969D01*
X73043Y-13076D01*
X73235Y-13188D01*
X73424Y-13305D01*
X73611Y-13426D01*
X73794Y-13552D01*
X73974Y-13682D01*
X74151Y-13817D01*
X74324Y-13955D01*
X74494Y-14098D01*
X74661Y-14246D01*
X74824Y-14397D01*
X74983Y-14552D01*
X75138Y-14711D01*
X75289Y-14874D01*
X75437Y-15041D01*
X75580Y-15211D01*
X75718Y-15384D01*
X75853Y-15561D01*
X75983Y-15741D01*
X76109Y-15924D01*
X76230Y-16111D01*
X76347Y-16300D01*
X76459Y-16492D01*
X76566Y-16687D01*
X76668Y-16884D01*
X76766Y-17083D01*
X76858Y-17286D01*
X76946Y-17490D01*
X77028Y-17696D01*
X77106Y-17904D01*
X77178Y-18115D01*
X77245Y-18326D01*
X77307Y-18540D01*
X77364Y-18755D01*
X77415Y-18971D01*
X77461Y-19188D01*
X77502Y-19407D01*
X77537Y-19626D01*
X77567Y-19847D01*
X77591Y-20067D01*
X77610Y-20289D01*
X77624Y-20511D01*
X77632Y-20733D01*
X77635Y-20955D01*
X77632Y-21177D01*
X77624Y-21399D01*
X77610Y-21621D01*
X77591Y-21843D01*
X77567Y-22063D01*
X77537Y-22284D01*
X77502Y-22503D01*
X77461Y-22722D01*
X77415Y-22939D01*
X77364Y-23155D01*
X77307Y-23370D01*
X77245Y-23584D01*
X77178Y-23795D01*
X77106Y-24006D01*
X77028Y-24214D01*
X76946Y-24420D01*
X76858Y-24624D01*
X76766Y-24827D01*
X76668Y-25026D01*
X76566Y-25223D01*
X76459Y-25418D01*
X76347Y-25610D01*
X76230Y-25799D01*
X76109Y-25986D01*
X75983Y-26169D01*
X75853Y-26349D01*
X75718Y-26526D01*
X75580Y-26699D01*
X75437Y-26869D01*
X75289Y-27036D01*
X75138Y-27199D01*
X74983Y-27358D01*
X74824Y-27513D01*
X74661Y-27664D01*
X74494Y-27812D01*
X74324Y-27955D01*
X74151Y-28093D01*
X73974Y-28228D01*
X73794Y-28358D01*
X73611Y-28484D01*
X73424Y-28605D01*
X73235Y-28722D01*
X73043Y-28834D01*
X72848Y-28941D01*
X72651Y-29043D01*
X72452Y-29141D01*
X72249Y-29233D01*
X72045Y-29321D01*
X71839Y-29403D01*
X71631Y-29481D01*
X71420Y-29553D01*
X71209Y-29620D01*
X70995Y-29682D01*
X70780Y-29739D01*
X70564Y-29790D01*
X70347Y-29836D01*
X70128Y-29877D01*
X69909Y-29912D01*
X69688Y-29942D01*
X69468Y-29966D01*
X69246Y-29985D01*
X69024Y-29999D01*
X68802Y-30007D01*
X68580Y-30010D01*
X68358Y-30007D01*
X68136Y-29999D01*
X67914Y-29985D01*
X67692Y-29966D01*
X67472Y-29942D01*
X67251Y-29912D01*
X67032Y-29877D01*
X66813Y-29836D01*
X66596Y-29790D01*
X66380Y-29739D01*
X66165Y-29682D01*
X65951Y-29620D01*
X65740Y-29553D01*
X65529Y-29481D01*
X65321Y-29403D01*
X65115Y-29321D01*
X64911Y-29233D01*
X64708Y-29141D01*
X64509Y-29043D01*
X64312Y-28941D01*
X64117Y-28834D01*
X63925Y-28722D01*
X63736Y-28605D01*
X63549Y-28484D01*
X63366Y-28358D01*
X63186Y-28228D01*
X63009Y-28093D01*
X62836Y-27955D01*
X62666Y-27812D01*
X62499Y-27664D01*
X62336Y-27513D01*
X62177Y-27358D01*
X62022Y-27199D01*
X61871Y-27036D01*
X61723Y-26869D01*
X61580Y-26699D01*
X61442Y-26526D01*
X61307Y-26349D01*
X61177Y-26169D01*
X61051Y-25986D01*
X60930Y-25799D01*
X60813Y-25610D01*
X60701Y-25418D01*
X60594Y-25223D01*
X60492Y-25026D01*
X60394Y-24827D01*
X60302Y-24624D01*
X60214Y-24420D01*
X60132Y-24214D01*
X60054Y-24006D01*
X59982Y-23795D01*
X59915Y-23584D01*
X59853Y-23370D01*
X59796Y-23155D01*
X59745Y-22939D01*
X59699Y-22722D01*
X59658Y-22503D01*
X59623Y-22284D01*
X59593Y-22063D01*
X59569Y-21843D01*
X59550Y-21621D01*
X59536Y-21399D01*
X59528Y-21177D01*
X59525Y-20955D01*
D16*
X68580Y-20955D03*
M02*
